<?xml version="1.0" standalone="no"?><!DOCTYPE svg PUBLIC "-//W3C//DTD SVG 1.1//EN" "http://www.w3.org/Graphics/SVG/1.1/DTD/svg11.dtd" ><svg xmlns="http://www.w3.org/2000/svg"><metadata></metadata><defs><font id="LiuKai Regular" horiz-adv-x="256"><font-face font-family="LiuKai" font-weight="400" font-stretch="normal" units-per-em="256" panose-1="2 0 0 0 0 0 0 0 0 0" ascent="221" descent="-57" x-height="0" bbox="1 -49 255 216" underline-thickness="12" underline-position="-45" unicode-range="U+002e-ff1f" /><missing-glyph horiz-adv-x="256" d="M37 -2 q-12 0 -13 12 q1 12 13 13 q12 -1 14 -14 q-1 -10 -14 -11 ZM50 166 l-5 -111 q0 0 0 -1 q-3 -10 -8 -10 q-6 0 -6 12 l-6 111 q0 17 13 17 q13 -1 12 -18 Z" /><glyph glyph-name="period" unicode="." d="M38 -3 q-16 1 -16 13 q1 13 16 14 q14 -1 15 -15 q-1 -11 -15 -12 Z" /><glyph glyph-name="slash" unicode="/" d="M3 -17 l112 194 q7 11 14 9 q7 -8 5 -15 l-109 -189 q-4 -8 -16 -8 q-9 1 -6 9 Z" /><glyph glyph-name="colon" unicode=":" d="M38 -2 q-12 0 -13 12 q1 12 13 13 q13 -1 14 -14 q-1 -10 -14 -11 ZM38 68 q-12 1 -13 14 q1 12 13 13 q13 -1 14 -14 q-1 -11 -14 -13 Z" /><glyph glyph-name="at" unicode="@" d="M161 139 l-26 -68 q-5 -10 -5 -17 q0 -4 8 -4 q35 8 40 55 q-4 55 -67 61 q-74 -5 -77 -80 q2 -74 74 -77 q48 2 71 39 l12 0 q-26 -54 -85 -51 q-91 3 -91 90 q5 89 95 95 q80 -6 84 -77 q-6 -66 -63 -71 q-19 0 -17 19 q-16 -18 -35 -18 q-27 1 -29 32 q8 70 62 76 q18 0 25 -15 l5 11 l19 0 ZM86 49 q16 0 31 26 q1 3 2 4 q9 17 8 31 q1 14 -14 14 q-37 -4 -42 -58 q1 -16 15 -17 Z" /><glyph glyph-name="A" unicode="a" d="M115 97 q-6 17 -21 46 q-13 -23 -27 -53 q14 3 29 4 q8 1 14 2 q3 1 5 1 ZM177 20 q8 -18 5 -20 q-26 -3 -31 9 q-5 17 -18 47 q-3 8 -5 12 q-19 1 -37 -5 q-9 -2 -1 2 q6 4 14 7 q2 2 0 2 q-36 1 -49 -10 q-20 -32 -35 -62 q-4 -4 -11 -2 q-9 17 -5 28 q6 10 25 40 q-9 11 -8 22 q5 -6 10 -4 q2 1 5 1 q2 1 4 1 q9 15 28 53 q3 5 7 13 q10 16 7 20 q-3 8 1 10 q7 0 14 -6 q2 -3 5 -7 q1 -3 2 -4 q29 -48 73 -147 Z" /><glyph glyph-name="C" unicode="c" d="M139 141 q-7 -6 -13 3 q-16 17 -40 9 q-27 -11 -39 -38 q-16 -39 -3 -72 q13 -25 51 -23 q40 3 77 30 q2 1 3 0 q1 0 0 -3 q-23 -46 -86 -47 q-60 -2 -74 43 q-11 38 10 82 q26 51 72 58 q28 -2 44 -25 q5 -12 -2 -17 Z" /><glyph glyph-name="M" unicode="m" d="M205 0 q-21 0 -22 18 q0 5 -1 14 q-5 72 -9 103 q-14 -28 -34 -86 q-9 -23 -24 -26 q-14 -1 -20 12 q-23 60 -45 101 q-9 -71 -11 -129 q0 -7 -10 -7 q-20 4 -17 22 q0 2 2 12 q4 24 6 35 q8 75 5 96 q-4 -1 -7 -4 q-2 -2 -3 -1 q-1 0 -1 3 q2 11 16 18 q20 2 31 -11 q27 -64 53 -114 q24 53 47 119 q7 5 22 7 q11 0 12 -13 q3 -76 13 -152 q3 -18 -3 -17 Z" /><glyph glyph-name="W" unicode="w" d="M233 181 q6 -1 -1 -18 q-20 -54 -41 -150 q-1 -13 -11 -13 q-9 0 -15 7 q-10 12 -22 61 q-12 46 -21 67 q-25 -60 -44 -127 q-4 -8 -15 -8 q-12 2 -14 15 q-10 48 -43 139 q-7 22 8 28 q11 3 16 -16 q2 -6 7 -24 q20 -71 29 -97 q11 25 32 91 q6 18 8 25 q13 17 31 0 q21 -60 38 -118 q1 4 4 14 q20 73 28 109 q3 18 26 15 Z" /><glyph glyph-name="Y" unicode="y" d="M159 183 q14 -12 18 -27 q1 -4 -4 -7 q-3 -1 -4 -2 q-20 -18 -59 -66 q-2 -2 -2 -18 q-1 -5 0 -40 q0 -12 0 -15 q-2 -10 -15 -6 q-11 11 -12 13 q5 23 4 38 q1 26 -5 30 q-44 59 -74 81 q-4 2 -4 4 q0 1 4 4 q9 6 21 6 q7 2 12 -8 q20 -27 57 -69 q27 27 46 54 q9 12 10 24 q0 4 6 4 q1 0 1 0 Z" /><glyph glyph-name="a" unicode="a" d="M90 30 q4 40 0 53 q-20 19 -44 4 q-23 -21 -13 -52 q7 -19 28 -19 q19 -2 29 14 ZM120 8 q-7 -8 -17 -8 q-10 0 -12 10 q-11 -11 -32 -10 q-39 -1 -47 26 q-12 42 14 72 q29 29 64 5 q0 4 0 8 q-1 3 0 4 q2 2 5 1 q10 -1 18 -8 q4 -3 2 -6 q-5 -24 -5 -66 q-1 -23 9 -20 q3 2 4 -1 q0 -2 -3 -7 Z" /><glyph glyph-name="b" unicode="b" d="M101 47 q8 31 -15 42 q-23 7 -46 -5 q0 -15 -2 -42 q-1 -10 -1 -15 q7 -8 25 -10 q30 1 39 30 ZM122 44 q-14 -43 -56 -44 q-21 1 -31 7 q0 -8 -7 -7 q-6 0 -10 15 q0 1 -1 2 q-4 9 -8 12 q-9 10 -2 10 q9 2 10 20 q4 27 3 63 q-1 32 -5 47 q-1 5 -5 5 q-6 3 1 8 q12 3 26 -4 q1 0 2 -1 q4 -2 3 -4 q-2 -5 -2 -11 q0 -51 -1 -60 q32 16 57 7 q39 -15 26 -65 Z" /><glyph glyph-name="c" unicode="c" d="M105 35 q6 3 6 -5 q-12 -32 -60 -31 q-22 1 -33 15 q-16 25 -6 58 q12 35 39 42 q42 5 50 -21 q-5 -10 -13 -7 q-12 7 -21 6 q-36 -5 -38 -47 q2 -26 29 -28 q26 -3 47 18 Z" /><glyph glyph-name="d" unicode="d" d="M95 22 q0 40 -1 61 q-6 8 -21 9 q-21 1 -32 -11 q-28 -34 -1 -59 q19 -12 55 0 ZM124 174 q-5 -1 -5 -5 q-5 -23 -6 -70 q0 -51 5 -73 q9 -7 1 -15 q-11 -11 -17 -11 q-7 -1 -6 7 q-42 -15 -68 -3 q-24 14 -23 50 q3 38 34 55 q28 11 55 -7 q0 32 -2 69 q0 6 6 8 q13 4 26 3 q6 -3 0 -8 Z" /><glyph glyph-name="e" unicode="e" d="M109 56 q-27 -14 -78 -10 q7 -27 35 -28 q26 0 40 16 q5 4 7 2 q1 -2 -1 -8 q-9 -30 -51 -28 q-57 6 -49 68 q9 43 48 49 q36 3 54 -28 q11 -24 -5 -33 ZM50 90 q-17 -10 -19 -29 q30 0 57 10 q13 8 -1 19 q-18 12 -37 0 Z" /><glyph glyph-name="g" unicode="g" d="M100 33 q0 30 0 51 q-13 16 -37 10 q-25 -8 -30 -36 q-3 -25 17 -35 q28 -10 50 10 ZM125 105 q3 -3 -2 -7 q-3 -1 -3 -17 q2 -53 -2 -94 q-4 -41 -55 -36 q-26 5 -44 20 q-6 6 -5 9 q1 4 7 2 q26 -14 52 -13 q23 3 25 23 q1 16 1 22 q-16 -14 -43 -14 q-47 5 -44 59 q7 43 46 55 q26 4 43 -10 q0 5 -2 7 q-1 5 6 3 q12 -2 20 -9 Z" /><glyph glyph-name="h" unicode="h" d="M127 19 q10 -1 11 -5 q0 -5 -11 -12 q-28 -9 -30 18 q0 12 2 43 q1 6 1 9 q3 18 -12 20 q-23 4 -46 -12 q0 -47 -2 -69 q0 -10 -7 -11 q-8 1 -14 9 q-3 4 -2 14 q1 2 1 4 q3 22 4 76 q0 51 -3 65 q-1 6 -4 7 q-3 1 -3 5 q0 3 4 3 q16 -2 25 -8 q6 -5 3 -11 q-2 -1 -2 -8 q0 -5 0 -16 q1 -25 0 -42 q42 24 68 12 q16 -7 10 -36 q-8 -55 7 -55 Z" /><glyph glyph-name="i" unicode="i" d="M41 144 q-23 1 -28 19 q-1 9 5 9 q3 0 7 -1 q4 0 6 -1 q19 -1 19 -19 q-3 -6 -9 -7 ZM51 40 q4 -3 4 -13 q-2 -30 -24 -27 q-16 4 -16 24 q-1 23 4 64 q1 5 -5 8 q-3 1 -3 3 q0 1 2 3 q7 5 10 9 q3 6 10 2 q7 -3 13 -9 q3 -3 0 -7 q-7 -9 -10 -32 q-2 -27 2 -43 q7 4 10 17 q1 2 3 1 Z" /><glyph glyph-name="l" unicode="l" d="M47 37 q4 -3 4 -12 q-2 -28 -23 -25 q-13 2 -15 7 q-4 21 -2 60 q0 3 0 10 q4 72 2 81 q-1 4 -3 2 q-1 -2 -2 -3 q-1 0 -1 2 q-1 11 11 21 q5 4 10 0 q14 -3 11 -11 q-4 -27 -7 -74 q-2 -43 0 -67 q1 -4 2 -5 q1 -1 3 1 q6 6 7 12 q2 2 3 1 Z" /><glyph glyph-name="n" unicode="n" d="M127 79 q0 -3 -1 -11 q-1 -16 0 -24 q0 -1 0 -3 q4 -30 1 -37 q-3 -7 -11 -4 q-11 9 -13 13 q-4 5 0 12 q3 7 2 28 q0 19 -3 28 q-6 17 -24 10 q-26 -12 -34 -38 q-9 -26 -10 -49 q-2 -5 -12 -3 q-8 9 -11 18 q-1 9 3 19 q10 25 -2 60 q-4 8 -3 11 q8 9 19 6 q11 -2 9 -27 q36 31 71 24 q21 -4 19 -33 Z" /><glyph glyph-name="o" unicode="o" d="M74 101 q-33 -4 -37 -44 q-1 -43 36 -44 q35 1 37 44 q-4 41 -36 44 ZM133 54 q-1 -55 -60 -56 q-59 1 -60 58 q5 57 60 62 q57 -3 60 -64 Z" /><glyph glyph-name="p" unicode="p" d="M113 77 q-10 35 -63 16 q-4 -10 -2 -67 q16 -9 31 -7 q37 8 34 58 ZM137 74 q-3 -63 -54 -72 q-22 -2 -35 11 q0 -38 1 -59 q-3 -6 -11 -2 q-1 2 -8 7 q-2 1 -3 2 q0 6 0 20 q2 52 0 106 q-7 -3 -14 -1 q-6 3 -3 8 q8 10 29 19 q90 19 98 -39 Z" /><glyph glyph-name="r" unicode="r" d="M90 92 q-6 -15 -17 -11 q-8 6 -17 0 q-18 -12 -18 -51 q0 -17 -3 -26 q-2 -4 -11 -3 q-8 5 -10 17 q-1 8 2 20 q6 26 -4 60 q-4 10 -3 11 q5 8 19 4 q11 -3 8 -26 q16 27 41 22 q14 -2 13 -17 Z" /><glyph glyph-name="s" unicode="s" d="M92 48 q8 -14 0 -29 q-13 -19 -44 -19 q-34 0 -40 28 q0 9 6 6 q15 -17 33 -17 q22 -1 29 14 q2 7 -5 12 q-5 3 -20 6 q-3 1 -5 1 q-43 8 -39 35 q10 33 74 29 q6 1 9 -7 q2 -8 0 -12 q-3 -4 -8 -2 q-33 9 -53 -6 q-8 -16 22 -20 q35 -5 41 -19 Z" /><glyph glyph-name="t" unicode="t" d="M72 100 q1 -9 -5 -7 q-5 3 -22 0 q-3 0 -4 0 q-3 -35 -1 -65 q0 -5 2 -7 q2 -1 6 2 q7 4 13 16 q7 4 8 -12 q-7 -29 -34 -27 q-17 5 -16 21 q0 29 2 66 q0 -2 0 5 q-17 -1 -20 19 q9 -2 21 1 q2 39 -2 50 q0 0 -1 -1 q-1 0 -3 -4 q0 -1 -1 -1 q-2 0 -2 1 q0 12 12 22 q6 2 11 0 q14 -6 11 -12 q0 -10 -4 -49 q1 3 0 -5 q6 0 14 2 q12 1 15 -15 Z" /><glyph glyph-name="u" unicode="u" d="M128 14 q7 -1 -1 -9 q-5 -5 -16 -6 q-21 1 -21 19 q-31 -26 -61 -15 q-16 9 -14 36 q2 31 0 46 q0 13 -6 20 q-3 5 3 7 q9 2 12 1 q19 -4 16 -29 q-3 -24 -2 -45 q0 -16 11 -18 q20 -3 40 20 q2 33 0 58 q-1 15 6 17 q20 -1 20 -21 q-6 -31 -5 -70 q0 -14 18 -11 Z" /><glyph glyph-name="uni3002" unicode="&#x3002;" d="M65 37 q-24 -1 -26 -24 q2 -24 26 -25 q23 1 25 25 q-2 23 -25 24 ZM65 -21 q-34 2 -35 34 q2 33 35 34 q30 -1 34 -34 q-3 -32 -34 -34 Z" /><glyph glyph-name="uni4E0D" unicode="&#x4e0d;" d="M136 100 q2 1 8 -1 q-5 2 1 0 q6 0 23 -8 q18 -6 34 -12 q16 -7 19 -12 q2 -5 3 -13 q0 -1 0 -2 q1 -6 -2 -8 q-1 -3 -9 2 q-6 5 -41 26 q-4 3 -12 8 q-21 14 -24 17 q-1 3 0 3 ZM130 159 q-36 -4 -55 -9 q-18 -4 -21 -6 q-3 0 -6 10 q-2 8 0 11 q1 1 12 1 q6 1 10 1 q10 0 54 5 q8 1 12 2 q48 5 51 7 q0 1 1 1 q4 0 13 -6 q11 -8 8 -13 q-4 -7 -7 -5 q0 0 -1 0 q-4 3 -9 3 q-7 3 -55 -1 q6 -1 9 -9 q3 -5 1 -11 q-2 -5 -17 -23 q3 -54 1 -85 q-1 -30 -7 -36 q-3 -3 -5 -3 q-3 0 -5 7 q-3 9 -1 16 q2 8 2 24 q0 31 -1 60 q-17 -19 -42 -42 q-20 -16 -26 -19 q-3 -1 -3 -1 q0 1 5 7 q9 8 24 28 q17 20 39 51 q0 9 -6 14 q-5 4 -3 11 q3 7 8 5 q5 -1 15 -12 q6 9 6 12 q-1 2 -1 5 Z" /><glyph glyph-name="uni4E0E" unicode="&#x4e0e;" d="M214 104 q1 -5 -1 -17 q-1 -3 -1 -5 q-3 -15 -11 -40 q-7 -25 -24 -37 q-14 -8 -20 -8 q-8 0 -8 10 q0 11 -3 15 q-1 1 -2 2 q-2 4 -6 8 q-5 4 -2 4 q4 -1 17 -3 q13 -3 18 0 q5 1 11 11 q5 8 8 36 q3 25 -2 26 q-2 2 -45 -5 q-42 -6 -45 -8 q-3 -1 -6 -6 q-3 -6 -9 2 q-6 8 -2 12 q4 6 7 19 q3 12 4 33 q2 21 0 27 q-1 6 -3 8 q-2 1 4 4 q1 0 3 1 q1 0 1 0 q5 0 8 -4 q5 -6 6 -10 q2 -4 0 -22 q16 2 36 6 q7 1 9 1 q10 3 12 5 q3 3 9 -1 q5 -3 7 -7 q3 -5 -7 -8 q-10 -4 -34 -8 q-25 -4 -27 -4 q-2 0 -5 10 q-1 -7 -6 -29 q3 14 -3 -14 q45 5 66 9 q19 3 24 5 q4 1 13 -5 q8 -6 9 -13 ZM27 56 q0 2 0 3 q-1 3 3 3 q2 0 16 2 q9 2 15 3 q28 4 56 10 q30 5 30 6 q3 2 13 -5 q11 -6 6 -11 q-3 -5 -6 -4 q-3 2 -9 2 q-7 3 -45 -4 q-38 -6 -53 -10 q-6 -2 -14 -5 q-3 -1 -4 -1 q-3 0 -4 2 q0 1 -1 3 q-2 4 -3 6 Z" /><glyph glyph-name="uni4E24" unicode="&#x4e24;" d="M154 162 q-3 -1 -8 -2 q-14 -5 -23 -6 q-5 -1 -17 -4 q-10 -3 -14 -4 q-11 -2 -14 -2 q-2 0 -4 5 q0 2 -2 6 q-1 4 -2 6 q-2 6 4 6 q6 2 37 6 q31 6 35 9 q1 0 4 0 q4 0 11 -3 q9 -6 6 -10 q-2 -3 -13 -7 ZM66 33 q3 -7 4 -15 q3 -8 -1 -11 q-4 -3 -12 5 q-8 8 -8 12 q0 2 -2 9 q-3 14 -5 24 q-6 29 -9 33 q-2 3 -2 4 q0 1 2 1 q5 1 11 -2 q1 0 2 -1 q4 -1 6 -4 q0 0 0 -1 q2 -3 7 -25 q2 -8 5 -20 q2 -7 2 -9 ZM92 97 q-15 -3 -20 -5 q-1 0 -3 -1 q-1 -1 -3 -1 q-1 0 -4 3 q-3 4 -4 7 q-1 3 2 3 q1 0 14 2 q11 2 18 3 q0 15 -4 19 q-5 6 -1 7 q3 2 8 2 q5 1 11 -7 q7 -8 5 -18 l33 6 q2 13 -3 19 q-4 7 -2 8 q1 0 3 1 q2 1 3 1 q5 2 11 -5 q6 -6 6 -10 q0 -3 -1 -11 q33 3 36 8 q2 4 16 -7 q11 -8 11 -17 q0 0 0 -2 q-1 -1 -1 -2 q-3 -10 -10 -50 q-7 -41 -18 -50 q-9 -5 -13 -5 q-2 0 -3 0 q-6 3 -5 14 q0 13 -6 18 q-6 6 -10 8 q-3 3 6 1 q8 0 15 0 q7 0 9 3 q3 2 7 38 q5 36 2 37 q-2 3 -37 -4 q-1 -6 -4 -16 q-1 -3 -1 -4 q8 1 12 -2 q6 -3 9 -12 q5 -10 0 -17 q-3 -6 -7 -3 q-1 1 -3 4 q-3 5 -5 9 q-6 10 -9 11 q-9 -16 -20 -28 q-12 -12 -14 -12 q-1 0 2 5 q3 4 10 17 q6 12 13 44 l-33 -6 q-1 -2 -2 -6 q0 -4 -3 -11 q9 2 12 -3 q4 -3 4 -11 q1 -9 -2 -10 q-3 -1 -7 3 q-1 2 -5 7 q-3 4 -5 7 q-2 -4 -7 -11 q-4 -6 -6 -9 q-6 -7 -10 -11 q-4 -4 -6 -4 q-1 1 2 7 q5 7 8 17 q5 10 9 32 Z" /><glyph glyph-name="uni4E2A" unicode="&#x4e2a;" d="M61 84 q-1 -1 -2 -2 q-18 -15 -22 -16 q-5 -1 -5 0 q0 0 2 2 q3 5 20 23 q17 19 36 49 q21 30 21 37 q1 7 -1 10 q-1 4 0 4 q11 4 15 -6 q5 -8 5 -11 q0 -3 -1 -4 q1 0 2 -1 q3 0 4 -2 q6 -4 10 -7 q1 -1 11 -10 q8 -6 13 -10 q21 -15 44 -25 q24 -9 31 -12 q1 0 2 -1 q2 0 2 -1 q0 0 -2 0 q-4 0 -18 -4 q-13 -3 -17 -8 q-4 -3 -7 -3 q0 1 -5 3 q-6 4 -10 6 q-14 9 -26 24 q-12 15 -23 26 q-10 12 -13 12 q-3 0 -3 4 q-46 -63 -63 -77 ZM129 -25 q-2 -4 -5 -4 q-2 0 -2 3 q-3 7 -3 26 q0 20 0 45 q-1 27 -1 48 q0 10 -1 22 q0 3 0 4 q-1 5 -4 6 q-1 3 0 3 q1 2 4 3 q2 2 11 -4 q8 -6 8 -10 q0 -11 -1 -17 q-1 -12 0 -50 q2 -36 0 -51 q0 -17 -6 -24 Z" /><glyph glyph-name="uni4E48" unicode="&#x4e48;" d="M89 148 q15 20 13 25 q-1 2 -3 6 q-1 1 -1 2 q-2 2 -1 3 q0 1 2 1 q2 0 3 0 q3 0 9 0 q8 -1 11 -4 q1 -1 5 -9 q2 -4 3 -6 q5 -12 0 -16 q-1 -1 -3 -2 q-3 -2 -18 -14 q-6 -5 -19 -14 q-10 -7 -15 -11 q-19 -13 -25 -15 q-3 -1 -4 0 q1 1 1 1 q3 5 15 18 q1 1 3 4 q9 11 24 31 ZM163 50 q-2 -2 -5 -2 q-4 2 -27 -7 q-23 -6 -37 -13 q-15 -6 -21 -14 q-3 -2 -5 -4 q-3 -2 -7 -2 q-4 2 -9 17 q-6 17 -3 17 q2 2 9 2 q8 1 15 7 q6 6 29 33 q17 20 24 32 q1 6 1 9 q0 4 2 4 q3 0 5 0 q4 -1 8 -9 q5 -8 3 -14 q-1 -3 -15 -17 q-12 -12 -41 -40 q14 3 34 8 q20 5 25 5 q3 1 9 -2 q-1 1 -3 4 q-1 2 -1 2 q0 1 -1 2 q-7 8 -7 11 q-1 2 0 3 q2 0 11 0 q9 1 22 -13 q13 -12 16 -22 q3 -5 3 -13 q0 -3 -1 -7 q-1 -12 -6 -13 q-4 -1 -7 3 q-4 4 -13 22 q-2 3 -5 7 q-1 3 -2 4 Z" /><glyph glyph-name="uni4E4B" unicode="&#x4e4b;" d="M118 131 q-11 18 -16 23 q-6 5 -7 8 q0 3 4 5 q3 1 8 1 q4 0 7 0 q11 -2 19 -11 q9 -10 9 -22 q23 5 34 8 q11 3 12 6 q1 3 13 -7 q11 -9 11 -17 q1 -7 -14 -5 q-15 3 -26 0 q-12 -3 -56 -22 q-44 -19 -65 -30 q26 -3 46 -9 q14 -6 32 -12 q19 -4 31 -6 q12 -2 49 -2 q39 0 43 -1 q3 -1 3 -1 q0 -1 -2 -1 q-1 -1 -2 -1 q-4 -1 -18 -5 q-12 -4 -18 -11 q-6 -8 -8 -8 q-1 0 -3 0 q-12 1 -25 1 q-25 2 -34 3 q-10 2 -31 13 q-21 12 -41 17 q-21 6 -26 5 q-1 0 -2 -1 q-6 -2 -10 -5 q-6 -5 -9 -3 q-3 3 -5 15 q0 2 -1 4 q0 2 0 3 q0 5 3 6 q3 2 24 0 q4 6 130 69 l-35 -10 q-1 -4 -4 -7 q-3 -3 -6 -3 q-4 0 -10 6 q-4 -2 -12 -5 q-24 -10 -27 -13 q-7 -3 -7 -10 q0 -5 -4 -7 q-3 -1 -11 5 q-7 6 -9 14 q-2 9 1 9 q5 0 65 14 Z" /><glyph glyph-name="uni4E5F" unicode="&#x4e5f;" d="M41 86 q-12 -6 -15 -6 q-3 2 -6 5 q-1 3 -3 10 q0 1 0 2 q-1 2 -1 2 q0 2 2 2 q3 0 7 1 q6 1 20 7 q1 5 1 11 q1 4 1 5 q0 3 -2 5 q-1 2 0 2 q0 0 1 1 q1 0 3 1 q1 0 1 0 q0 2 5 -3 q4 -5 4 -8 q-1 -4 -3 -10 l32 14 q4 16 7 34 q1 2 1 3 q1 7 -1 11 q-1 2 2 2 q4 0 10 -6 q4 -4 4 -9 q-2 -4 -8 -30 q27 11 31 16 q4 6 16 -5 q11 -12 6 -19 q-4 -7 -18 -33 q-14 -25 -17 -26 q-5 0 -5 10 q-1 9 2 11 q2 1 8 16 q5 11 6 19 q0 4 -6 3 q-4 -1 -27 -12 q-4 -14 -9 -33 q-3 -11 -4 -14 q-5 -12 -7 -9 q-3 3 -3 8 q0 4 1 13 q1 8 7 29 l-31 -15 q-6 -27 5 -42 q10 -15 46 -15 q36 0 79 8 q43 9 46 14 q4 5 7 14 q1 5 3 5 q1 0 3 -6 q2 -10 8 -18 q5 -4 5 -9 q0 -1 -1 -4 q-3 -5 -28 -13 q-25 -9 -85 -10 q-3 0 -8 0 q-6 -1 -9 -1 q-45 0 -60 9 q-16 11 -21 26 q-4 16 -2 37 Z" /><glyph glyph-name="uni4E86" unicode="&#x4e86;" d="M145 179 q-33 -12 -42 -20 q-10 -6 -10 -11 q0 -4 -6 -10 q-6 -4 -13 5 q-4 7 -4 14 q0 3 0 5 q3 12 12 18 q9 9 9 5 q0 -1 0 -3 q1 -4 1 -6 q55 14 58 15 q1 1 2 3 q1 3 2 4 q2 6 6 6 q2 0 3 -1 q6 -3 14 -16 q5 -6 5 -10 q0 -3 -4 -4 q-7 -1 -25 -15 q-5 -4 -13 -9 q-8 -6 -9 -6 q17 -13 23 -39 q6 -26 4 -50 q0 -3 -1 -9 q-2 -23 -5 -30 q-3 -12 -13 -23 q-8 -10 -13 -10 q0 0 -1 0 q0 1 -1 1 q-5 2 -8 14 q-3 10 -12 17 q-9 8 -12 9 q-1 1 -1 2 q1 0 4 -1 q7 -1 19 -3 q12 0 15 1 q2 3 5 12 q5 10 6 29 q2 19 -3 40 q-5 21 -14 27 q-1 1 -3 2 q-6 5 -9 5 q-2 2 -2 8 q0 6 4 6 q4 0 14 -6 q11 17 18 34 Z" /><glyph glyph-name="uni4E8B" unicode="&#x4e8b;" d="M121 174 q-42 -5 -54 -8 q-10 -1 -15 -3 q-3 0 -3 3 q-1 2 -3 6 q0 3 -1 3 q1 2 1 2 q4 2 21 2 q5 0 18 2 q22 2 36 3 q0 11 -4 15 q-3 6 -6 8 q-2 2 -1 2 q0 1 2 2 q4 2 10 2 q8 1 11 -7 q4 -7 4 -21 q61 6 7 1 q54 5 58 6 q3 3 11 -3 q6 -3 6 -9 q0 -1 -1 -2 q-1 -4 -3 -5 q-1 1 -9 3 q-4 0 -6 1 q-13 4 -64 -1 l-1 -16 q1 0 3 1 q9 2 13 4 q4 3 16 -4 q12 -7 8 -12 q-3 -2 -13 -17 q-2 -3 -3 -5 q4 -3 4 -6 q-1 -3 -4 -3 q-3 2 -10 0 q-6 1 -14 -1 l0 -12 q40 6 40 10 q5 5 16 -4 q12 -10 6 -15 q-3 -3 -5 -6 q4 2 8 2 q9 3 12 -2 q2 -2 3 -5 q1 -3 1 -4 q0 -1 -3 -1 q-3 0 -12 -2 q-11 -1 -16 -2 q-2 -3 -5 -8 q-4 -8 -7 -12 q6 -7 4 -13 q-2 -4 -8 -2 q-6 1 -30 -2 q0 -15 1 -32 q0 -5 0 -6 q0 -4 -3 -20 q0 -1 -1 -4 q-3 -10 -9 -11 q-6 -1 -10 11 q-6 11 -15 14 q-9 4 -6 5 q1 0 5 1 q5 2 9 3 q9 1 11 3 q2 3 3 12 q0 4 1 11 q0 7 0 10 q-22 -5 -44 -12 q-4 -1 -5 -1 q-4 -3 -7 -4 q-1 0 -3 2 q0 1 -1 2 q-1 1 -3 6 q-2 5 1 5 q4 0 61 15 l0 17 q-45 -13 -51 -14 q-6 -1 -11 -4 q-11 -4 -15 1 q-3 4 -4 7 q-1 4 2 5 q9 1 39 8 q24 5 39 8 l0 15 q-33 -7 -38 -9 q-6 -3 -7 -3 q-3 0 -5 3 q0 1 -2 3 q-1 3 -2 4 q-2 4 1 4 q1 0 21 3 q19 3 32 5 l0 13 l-14 -3 q-2 -6 -4 -7 q-2 -2 -5 0 q0 1 -1 2 q-1 2 -3 12 q-3 11 -6 19 q-4 10 -7 13 q-1 2 -1 2 q0 1 1 1 q1 0 3 0 q3 1 5 1 q5 0 9 -3 l21 5 q0 5 0 17 ZM135 80 q10 1 26 4 q-2 0 4 1 q2 6 7 17 l-37 -8 l0 -14 ZM135 128 l12 2 q-1 5 -1 8 q0 1 1 2 q0 2 4 11 l-16 -3 l0 -20 ZM108 123 l14 3 l0 19 l-17 -4 q2 -7 3 -18 ZM160 73 q-5 -1 -23 -4 l1 -18 l19 5 q-1 4 -1 7 q1 2 2 5 q2 4 2 5 Z" /><glyph glyph-name="uni4E8E" unicode="&#x4e8e;" d="M149 199 q1 0 1 0 q4 0 12 -5 q12 -6 9 -11 q-4 -4 -27 -10 q-23 -6 -37 -9 q-3 -1 -9 -2 q-4 -1 -9 -2 q-4 0 -6 5 q0 2 -2 5 q-1 4 -2 5 q-2 6 2 6 q2 0 18 3 q8 2 30 8 q18 4 20 7 ZM128 109 q-29 -3 -56 -10 q-29 -6 -32 -8 q-3 -1 -4 2 q-1 3 -3 9 q-1 2 -1 3 q0 3 2 3 q3 0 92 13 q-3 9 -9 13 q-7 3 -7 8 q0 6 2 9 q3 5 14 -3 q12 -6 18 -24 q54 7 57 10 q3 3 14 -6 q8 -7 8 -13 q0 -2 0 -2 q-3 -6 -7 -3 q-3 2 -18 5 q-11 4 -52 -3 q3 -15 3 -37 q0 -21 -1 -40 q-1 -18 -3 -30 q-2 -8 -13 -23 q-9 -12 -13 -11 q-2 0 -2 0 q-6 3 -4 14 q0 12 -3 13 q-1 1 -8 4 q-2 1 -3 1 q-9 5 -4 3 q2 0 5 0 q6 -1 11 -1 q10 1 13 4 q3 3 6 37 q1 35 -2 63 Z" /><glyph glyph-name="uni4E9B" unicode="&#x4e9b;" d="M97 94 q22 9 25 11 q3 3 9 -2 q2 -2 2 -4 q-1 -1 -4 -2 q-7 -2 -40 -20 q-33 -18 -40 -24 q-6 -5 -8 -7 q-1 0 -4 3 q-1 2 -3 5 q-2 3 -3 5 q-3 5 -3 6 q0 1 1 1 q0 0 4 2 q8 2 13 4 q-1 3 0 5 q2 3 2 15 q0 13 -6 19 q-6 6 -9 7 q-1 0 -1 1 q0 1 1 2 q1 1 3 2 q2 2 3 2 q3 1 12 -5 q10 -6 11 -11 q0 -4 -1 -15 q-2 -11 -5 -17 l34 14 q-5 7 -4 12 q0 5 1 34 q0 29 -4 36 q-3 7 -8 10 q-5 3 -2 5 q2 2 8 5 q2 1 3 1 q5 0 11 -6 q8 -8 8 -13 q-1 -6 -1 -31 q7 3 13 6 q2 2 5 4 q1 1 1 1 q1 2 7 -3 q5 -5 3 -8 q-3 -1 -12 -6 q-8 -3 -10 -5 q-3 0 -7 3 q-1 -20 -5 -42 ZM157 127 q31 20 31 24 q0 1 -1 3 q0 3 -1 4 q0 3 2 3 q4 0 8 0 q4 -1 7 -12 q4 -12 -2 -15 q-2 0 -7 -2 q-9 -3 -14 -5 q-16 -6 -24 -7 q-3 -15 7 -25 q9 -9 20 -7 q3 0 8 1 q4 1 8 1 q5 1 11 -11 q0 -1 1 -3 q1 -3 1 -6 q0 -4 -4 -5 q-6 -3 -25 2 q-19 5 -29 18 q-12 14 -9 38 q2 24 7 38 q1 3 2 7 q2 10 1 12 q0 5 -4 9 q-4 4 -1 5 q1 0 4 1 q2 1 4 1 q1 0 1 0 q5 1 11 -8 q8 -9 3 -12 q-3 -3 -8 -17 q-5 -12 -8 -32 ZM121 60 q3 1 8 2 q4 1 8 2 q1 1 3 3 q1 1 1 1 q2 2 6 0 q4 -1 7 -3 q3 -3 2 -7 q-1 -5 -14 -8 q-4 -1 -11 -3 q-9 -3 -14 -5 q-12 -3 -15 -3 q-2 0 -5 4 q0 2 -2 4 q-1 3 -2 4 q-2 6 1 5 q0 0 3 0 q12 3 24 4 ZM59 4 q0 0 3 1 q11 2 21 3 q22 5 55 9 q4 1 10 2 q23 4 25 5 q2 2 11 -6 q9 -7 9 -10 q-1 -2 -3 -5 q-2 -3 -5 -3 q-1 0 -5 1 q-5 2 -8 3 q-11 4 -29 1 q-11 -1 -35 -5 q-5 0 -8 -1 q-11 -3 -24 -6 q-5 -2 -6 -2 q-2 -1 -2 -1 q-4 0 -6 4 q-1 4 -3 6 q-1 4 0 4 Z" /><glyph glyph-name="uni4EBA" unicode="&#x4eba;" d="M102 118 q8 0 12 -5 q3 -3 39 -25 q35 -21 63 -29 q13 -3 29 -6 q5 -2 7 -2 q2 0 2 -1 q0 -1 -3 -1 q-2 -1 -3 -1 q-10 0 -28 -6 q-20 -5 -23 -8 q-3 -2 -6 -2 q-2 0 -2 1 q-5 1 -23 13 q-17 10 -39 31 q-19 20 -24 24 q-5 6 -11 6 q-56 -56 -65 -62 q-6 -5 -12 -8 q-3 -1 -3 0 q0 1 0 1 q1 3 7 10 q4 3 23 24 q10 11 16 18 q6 7 17 19 q14 16 29 31 q4 5 9 12 q6 7 6 8 q0 2 2 2 q1 0 4 -3 q6 -3 6 -8 q1 -4 -2 -7 q-1 -2 -27 -26 Z" /><glyph glyph-name="uni4EC0" unicode="&#x4ec0;" d="M155 97 q-29 -4 -42 -9 q-12 -3 -15 -5 q-3 -2 -5 1 q-3 3 -4 9 q-3 7 0 7 q1 0 24 4 q25 4 42 7 q0 59 0 63 q0 0 -1 2 q0 2 -3 5 q-4 4 -1 5 q3 2 8 3 q2 1 3 1 q3 0 5 -3 q2 -3 6 -7 q3 -4 3 -10 q0 -1 0 -6 q-1 -25 -1 -50 q39 8 42 9 q2 4 12 -6 q6 -7 6 -12 q0 -1 0 -2 q-3 -4 -6 -4 q-2 1 -8 2 q-3 1 -4 1 q-10 3 -42 -1 q-1 -81 -3 -98 q-2 -15 -7 -21 q-1 -3 -3 -2 q-3 0 -4 7 q-1 5 -2 27 q0 11 0 29 q0 15 0 54 ZM57 122 q-3 -2 -8 -5 q-5 -4 -18 -12 q-12 -7 -17 -9 q-3 0 -3 1 q0 0 1 1 q3 3 18 20 q17 16 30 32 q14 16 14 22 q1 6 1 9 q0 2 3 4 l1 0 q4 0 13 -10 q11 -11 10 -14 q0 -3 -6 -7 q-2 -1 -11 -9 q-13 -10 -23 -18 q12 -3 13 -7 q1 -4 1 -12 q-1 -3 -1 -22 q-1 -13 -1 -21 q0 -6 -1 -18 q-1 -16 -1 -33 q0 -13 -4 -20 q-4 -6 -9 5 q-4 10 -1 14 q2 5 2 37 q0 13 1 32 q0 10 0 14 q0 15 -4 26 Z" /><glyph glyph-name="uni4ED6" unicode="&#x4ed6;" d="M37 125 q27 30 27 32 q0 3 -1 8 q0 3 4 3 q0 0 2 0 q6 0 9 -5 q3 -4 5 -18 q3 -13 -2 -15 q-5 0 -26 -14 q7 -6 8 -9 q3 -4 1 -25 q0 -3 -1 -10 q0 -10 -3 -43 q-3 -30 -6 -32 q0 0 -1 0 q-3 0 -6 8 q-3 11 -1 15 q2 6 3 38 q0 9 1 24 q1 9 1 18 q0 9 -2 12 q-40 -24 -44 -25 q-3 -1 -3 1 q0 1 35 37 ZM105 94 q-7 -3 -9 -3 q-2 0 -4 6 q-4 6 -4 8 q-1 2 2 2 q3 2 15 5 q1 10 -1 13 q-1 3 1 4 q3 0 6 0 q3 -1 5 -4 q2 -3 0 -9 l31 11 q6 41 5 48 q0 8 -2 10 q-1 1 -1 2 q1 1 3 1 q3 0 7 -1 q4 0 7 -9 q4 -9 2 -12 q-1 -2 -4 -19 q-2 -9 -3 -15 q29 11 29 16 q2 5 9 0 q8 -5 9 -8 q2 -4 -4 -16 q-6 -12 -19 -31 q-13 -19 -16 -19 q-3 0 -4 8 q-1 9 3 9 q1 1 6 9 q3 4 4 6 q6 15 8 27 l-28 -13 q-9 -36 -17 -48 q-8 -9 -8 -6 q-2 2 -2 6 q0 4 2 8 q1 1 5 10 q1 3 2 5 q1 5 3 13 q1 4 1 6 q-11 -4 -27 -14 q-1 -1 -2 -1 q-6 -33 3 -44 q7 -10 45 -8 q37 2 52 6 q16 6 19 11 q3 6 4 14 q0 4 1 4 q0 0 2 -2 q0 -1 1 -5 q2 -5 3 -9 q3 -10 8 -14 q2 -1 2 -5 q0 -2 -1 -5 q-5 -6 -38 -11 q-35 -4 -65 -3 q-30 3 -39 14 q-9 12 -10 19 q-1 8 3 33 Z" /><glyph glyph-name="uni4EE5" unicode="&#x4ee5;" d="M101 97 q-28 -34 -39 -58 q-9 -21 -15 -23 q-4 0 -9 9 q-4 11 -9 18 q-4 7 -4 9 q0 2 2 2 q3 0 9 3 q3 1 10 5 q5 3 8 4 q-4 4 -6 11 q0 2 -1 6 q-2 7 -3 12 q-1 13 -6 19 q-1 1 -2 3 q-2 3 -5 6 q-2 2 -1 2 q0 1 2 2 q0 0 2 1 q4 1 6 1 q5 0 15 -4 q11 -5 10 -11 q0 -5 0 -20 q0 -15 -2 -22 q19 15 34 30 q-6 7 -9 10 q-2 1 -1 2 q0 0 2 1 q2 1 12 3 q9 0 17 -12 q7 -10 5 -18 q-3 -7 -7 -12 q-5 -4 -8 5 q-4 10 -2 5 q-2 5 -5 11 ZM180 68 q-19 -20 -36 -29 q-16 -9 -18 -8 q-3 1 3 6 q3 2 19 20 q6 6 9 9 q22 25 31 49 q9 26 5 35 q-3 9 -8 15 q-5 6 -1 6 q1 1 6 1 q5 1 7 1 q10 1 19 -11 q8 -12 8 -19 q-1 -6 -7 -19 q-4 -6 -5 -10 q-12 -22 -27 -40 q18 2 22 -3 q2 -3 9 -12 q5 -8 2 -17 q-3 -8 -6 -8 q-3 0 -6 8 q-4 9 -26 26 Z" /><glyph glyph-name="uni4EEC" unicode="&#x4eec;" d="M105 38 q0 1 0 3 q1 11 1 21 q0 22 2 40 q0 20 -1 27 q-2 7 1 7 q3 -1 7 -3 q3 -1 5 -4 q1 -4 1 -21 q-1 -6 -1 -19 q-1 -13 -1 -20 q-1 -21 -1 -30 q0 -4 -1 -9 q0 -3 0 -4 q-1 -4 -3 -6 q-3 -1 -4 -1 q-3 1 -4 5 q-1 4 -1 7 q-1 4 0 7 ZM213 162 q6 -6 5 -11 q-2 -5 1 -41 q2 -36 3 -54 q0 -3 0 -6 q0 -15 -3 -26 q-2 -13 -8 -18 q-5 -4 -8 -3 q-5 2 -5 12 q-1 11 -9 15 q-8 5 -5 5 q3 1 5 1 q1 0 3 0 q2 1 4 1 q5 0 6 1 q2 3 2 16 q1 14 -2 50 q-2 37 -4 43 q-1 8 -3 8 q-1 1 -6 0 q-2 -1 -3 -1 q-7 -1 -15 -3 q-2 0 -5 -1 q-3 0 -6 -1 q-2 0 -4 2 q0 1 -1 3 q-1 1 -2 2 q-3 3 -1 4 q0 0 2 0 q6 1 12 2 q12 2 19 3 q6 1 9 4 q3 2 8 0 q5 0 11 -7 ZM69 14 q0 -15 -4 -20 q-1 -2 -3 -2 q-3 0 -5 7 q-4 7 -2 14 q3 5 3 37 q0 32 0 46 q0 15 -4 26 q-8 -6 -21 -15 q-3 -3 -5 -4 q-12 -8 -15 -8 q-4 0 -3 0 q0 1 0 2 q1 1 3 3 q8 9 16 17 q15 17 29 33 q12 16 13 22 q0 2 1 6 q0 2 0 3 q0 2 3 4 l1 0 q3 0 12 -10 q10 -11 10 -14 q0 -1 -4 -5 q-1 -1 -2 -2 q-6 -4 -32 -27 q11 -3 12 -7 q0 -4 0 -12 q0 -7 -1 -43 q0 -6 -1 -18 q-1 -16 -1 -33 ZM131 144 q-3 3 -8 10 q-3 5 -5 7 q-2 3 -5 6 q-1 3 -2 3 q-1 1 1 1 q-2 0 1 1 q3 0 9 0 q6 0 12 -6 q8 -6 9 -8 q3 -4 2 -11 q0 -7 -3 -10 q-4 -2 -11 7 Z" /><glyph glyph-name="uni4EF6" unicode="&#x4ef6;" d="M160 198 q2 0 3 0 q3 0 4 -1 q3 -2 8 -8 q3 -5 2 -14 q-1 -4 -1 -25 q2 1 3 1 q12 6 13 7 q2 2 8 -3 q7 -6 4 -8 q-4 -3 -20 -10 q-5 -1 -8 -3 l0 -36 q1 0 4 1 q6 1 8 2 q21 4 22 7 q2 3 10 -5 q7 -6 7 -11 q-1 -7 -4 -5 q-3 2 -13 4 q-9 2 -25 -1 q-1 0 -4 -1 q-3 0 -5 -1 l0 -39 q0 -35 -2 -50 q-3 -13 -6 -16 q-1 -1 -1 -1 q-3 0 -4 8 q-2 7 -2 55 l0 39 q-11 -2 -23 -5 q-30 -7 -37 -11 q-7 -3 -9 -3 q-3 -1 -6 7 q-3 8 -2 8 q3 0 43 9 q19 3 34 6 q0 16 0 33 q-6 -1 -11 -4 q-5 0 -9 9 q0 1 0 2 q-1 1 -1 1 q-2 0 -4 -2 q-6 -5 -19 -8 q-12 -4 -17 -4 q-2 1 -2 1 q-1 1 1 2 q3 2 9 6 q6 4 12 10 q6 6 6 12 q0 8 -1 9 q-2 3 1 2 q2 0 6 0 q5 0 7 -3 q0 -1 1 -3 q2 -5 3 -8 q1 -4 1 -7 q9 2 17 3 q0 14 -1 23 q0 15 -2 18 q-1 1 -2 3 q-1 2 -2 3 q-1 1 0 2 q2 2 6 3 ZM56 128 q-12 -9 -25 -18 q-14 -9 -17 -9 q-3 -1 -4 0 q1 1 1 1 q1 1 5 6 q8 9 14 15 q17 17 30 33 q13 16 13 22 q1 6 1 9 q0 2 3 3 l1 0 q3 0 12 -9 q10 -11 10 -14 q0 -2 -6 -8 q-3 -2 -21 -17 q-8 -6 -11 -9 q12 -3 13 -8 q1 -4 1 -12 q-1 -6 -3 -45 q-1 -39 -1 -56 q0 -15 -5 -16 q-5 0 -8 6 q-3 9 -1 14 q1 3 1 19 q1 12 1 19 q0 30 0 48 q0 15 -4 26 Z" /><glyph glyph-name="uni4EFB" unicode="&#x4efb;" d="M63 126 q-16 -14 -33 -26 q-6 -5 -14 -10 q-4 -3 -5 -4 q-4 -1 -4 0 q-1 0 -1 0 q0 2 2 3 q1 1 6 7 q9 9 15 16 q3 4 10 12 q16 17 23 27 q12 14 15 23 q1 5 1 6 q0 3 3 4 q3 2 13 -9 q9 -11 9 -14 q0 -3 -6 -8 q-1 -1 -6 -4 q-12 -10 -23 -18 q13 -3 13 -8 q1 -5 1 -11 q0 -8 0 -50 q0 -16 1 -41 q0 -15 0 -21 q0 -13 -4 -13 q-1 0 -4 1 q2 -1 -1 1 q-8 8 -8 19 q1 13 1 46 q0 31 0 46 q0 15 -4 26 ZM174 100 q6 2 11 2 q11 3 27 6 q11 3 15 4 q3 3 10 -7 q5 -6 5 -11 q0 0 0 -1 q-1 0 -1 -1 q-1 -4 -4 -4 q-2 2 -14 3 q-11 3 -36 0 q-3 0 -7 -1 q-4 0 -6 0 q1 -25 -2 -45 q0 -1 -1 -3 q-1 -3 -1 -6 q23 5 25 6 q3 3 9 -6 q6 -6 6 -12 q-2 -6 -5 -4 q-2 0 -6 1 q-4 2 -7 2 q-9 2 -30 -1 q-19 -3 -28 -7 q-2 -1 -5 -2 q-3 -1 -5 -2 q-2 0 -5 9 q0 1 -1 3 q-1 6 1 5 q0 0 2 0 q3 1 6 1 q6 2 33 6 q-3 7 -2 10 q0 1 0 5 q1 17 1 34 l0 3 q-12 -1 -25 -6 q-29 -8 -32 -11 q-4 -2 -7 7 q0 1 -1 3 q-1 5 0 5 q2 0 27 5 q10 1 33 6 q3 1 5 1 q0 4 -1 10 q0 17 -2 20 q-2 9 -5 9 q-1 1 0 4 q3 3 6 4 q3 1 11 -5 q7 -7 6 -13 q0 -6 0 -26 ZM164 168 q16 10 17 14 q2 3 2 5 q0 0 1 0 q1 0 7 -6 q7 -7 10 -13 q2 -4 -6 -9 q-9 -3 -32 -9 q-34 -8 -40 -8 q-8 0 -4 2 q3 2 14 7 q4 2 6 3 q10 3 25 14 Z" /><glyph glyph-name="uni4F1A" unicode="&#x4f1a;" d="M113 197 q3 0 6 -4 q2 -2 3 -3 q4 -7 1 -12 q4 0 8 -1 q7 -3 13 -12 q8 -9 30 -30 q21 -20 45 -32 q23 -12 30 -15 q3 0 3 -2 q0 0 -5 0 q-11 0 -23 -3 q-12 -3 -15 -6 q-4 -2 -6 0 q0 0 -2 1 q-7 5 -13 11 q-14 10 -29 31 q-14 21 -23 35 q-1 1 -2 2 q-10 12 -13 12 q0 0 -1 1 q0 0 -1 0 q-3 -4 -10 -18 q-5 -9 -8 -13 q-20 -34 -40 -55 q-19 -22 -25 -25 q-3 -1 -3 0 q0 1 2 4 q2 2 5 7 q8 12 17 24 q18 27 33 56 q15 29 18 35 q2 6 0 9 q-1 2 0 2 q0 0 2 0 q2 1 3 1 ZM84 67 q8 2 27 6 q12 3 18 4 q26 6 26 9 q2 3 12 -5 q11 -7 8 -13 q-2 -6 -4 -4 q-2 2 -14 3 q-12 1 -33 -3 q-9 -1 -16 -3 q4 -1 7 -6 q3 -6 3 -10 q0 -3 -21 -27 q14 3 30 6 q7 2 7 2 q2 2 8 -4 q6 -5 4 -8 q-2 -3 -5 -2 q-3 2 -12 0 q-9 -1 -24 -8 q-15 -5 -20 -10 q-1 -1 -3 -1 q-3 0 -8 7 q-6 13 -3 13 q2 0 5 0 q3 1 11 10 q7 9 10 17 q5 9 3 13 q0 2 -1 4 q0 1 0 1 q-3 -1 -7 -3 q-3 -1 -4 -1 q-4 -2 -11 -6 q-4 -2 -5 -3 q-3 0 -7 9 q-4 9 -2 9 q1 0 6 1 q9 2 15 3 ZM167 -3 q0 0 -1 -2 q-5 -5 -8 -4 q-3 1 -6 11 q-3 12 -7 23 q-1 3 -3 8 q-1 4 -3 8 q-1 4 0 4 q1 0 4 -1 q2 -1 4 -1 q6 -2 9 -5 q3 -1 9 -12 q7 -11 7 -17 q0 -6 -5 -12 ZM100 112 q8 2 19 6 q11 3 12 5 q2 3 10 -2 q8 -6 5 -9 q-1 0 -6 -3 q-9 -4 -16 -7 q-1 0 -3 -1 q-16 -6 -21 -9 q-6 -3 -10 8 q-4 11 -1 11 q3 0 11 1 Z" /><glyph glyph-name="uni4F24" unicode="&#x4f24;" d="M63 124 q-6 -5 -16 -14 q-20 -18 -23 -19 q-7 -4 -10 -4 q-2 0 -2 1 q0 0 2 2 q1 1 6 6 q9 12 16 20 q5 6 13 17 q6 7 18 24 q12 18 12 22 q0 6 0 8 q0 2 3 2 q3 0 12 -7 q7 -7 10 -13 q2 -5 -3 -10 q-6 -4 -32 -31 q-1 0 -2 -1 q3 0 8 -3 q0 -1 1 -1 q3 -3 3 -9 q0 -1 0 -4 q-1 -20 -1 -40 q0 -38 -3 -61 q-3 -19 -6 -21 q-3 -3 -8 6 q-3 8 -1 12 q1 3 3 21 q1 6 1 10 q2 24 2 53 q0 24 -3 34 ZM171 95 q27 8 30 9 q3 1 6 4 q2 3 11 -7 q1 -1 2 -2 q5 -7 5 -11 q0 0 0 -1 q-2 -3 -8 -31 q-8 -27 -11 -37 q-3 -5 -6 -12 q-1 -3 -2 -4 q-2 -4 -16 -14 q-11 -9 -16 -9 q-1 0 -2 0 q-4 3 -3 10 q0 7 -2 12 q-2 8 -7 14 q-3 3 -6 6 q-1 2 -1 2 q-3 2 3 0 q1 0 3 -1 q8 -4 14 -5 q11 -5 14 -5 q4 0 7 5 q5 4 9 22 q0 2 1 5 q4 13 6 28 q3 17 0 18 q-15 0 -36 -7 q-4 -9 -12 -25 q-15 -30 -31 -48 q-15 -14 -23 -17 q-6 -1 -2 2 q4 4 17 22 q13 20 25 44 q2 3 4 9 q2 4 3 6 q-3 -1 -9 -3 q-5 -1 -7 -2 q-11 -5 -14 -5 q-3 -1 -6 5 q-3 7 0 8 q1 0 10 2 q17 5 31 8 q0 1 1 2 q1 2 1 5 q3 11 2 15 q-1 5 -1 6 q-1 2 1 2 q3 0 5 0 q3 0 7 -6 q5 -6 5 -11 q-1 -1 -1 -4 q-1 -2 -1 -4 ZM135 131 q-6 -6 -13 -11 q-15 -12 -20 -13 q-3 0 -4 1 q0 1 3 3 q1 1 4 6 q12 15 22 29 q21 30 20 35 q-1 6 -1 8 q0 3 3 3 q1 0 4 0 q2 0 3 0 q3 1 9 -10 q1 -2 2 -5 q2 -5 2 -11 q0 -5 -16 -20 q-6 -5 -11 -10 q57 16 60 19 q0 4 12 -3 q9 -7 9 -12 q0 -5 -4 -5 q-4 0 -15 0 q-11 0 -35 -7 q-3 -1 -8 -2 q-14 -4 -17 -5 q-1 0 -9 10 Z" /><glyph glyph-name="uni4F59" unicode="&#x4f59;" d="M113 195 q-1 3 3 3 q0 0 2 0 q6 -1 8 -3 q0 -1 1 -2 q1 0 3 -6 q3 -4 0 -12 q8 -2 29 -22 q22 -19 49 -33 q20 -12 39 -19 q8 -1 8 -3 q0 -1 -1 -1 q1 0 -2 -1 q-2 0 -6 -1 q-9 -2 -15 -3 q-1 0 -2 0 q-11 -2 -15 -5 q-4 -3 -6 -3 q-2 0 -18 13 q15 -12 -3 3 q-19 15 -36 36 q-18 22 -26 28 q-16 -26 -40 -53 q-23 -27 -35 -37 q-2 -2 -6 -6 q-4 -3 -7 -5 q-1 -2 -4 -2 q0 1 0 1 q0 1 2 4 q1 2 14 19 q9 12 14 19 q25 33 37 54 q12 21 13 27 q2 7 0 10 ZM137 76 q21 4 24 7 q3 3 13 -3 q9 -5 8 -10 q-3 -4 -6 -4 q-3 2 -7 2 q-12 -1 -32 -6 q0 -60 0 -66 q0 -8 -5 -17 q-6 -7 -9 -7 q0 0 -1 1 q-4 2 -5 8 q0 6 -7 15 q-5 4 -11 8 q-2 1 -2 2 q1 1 4 1 q6 0 12 1 q5 1 6 4 q2 3 0 47 q-7 -1 -22 -5 q-9 -3 -13 -4 q-5 -2 -13 -5 q-6 -1 -7 -2 q-3 -1 -4 2 q-3 3 -4 7 q-3 5 0 5 q1 1 8 2 q6 2 10 3 q7 1 23 5 q14 3 22 5 q1 8 -5 11 q-5 5 -5 5 q0 2 3 3 q1 1 3 2 q2 1 3 2 q4 2 8 -1 q4 -3 7 -6 q0 -1 1 -3 q1 -1 3 -9 ZM164 48 q5 0 11 -3 q6 -3 12 -16 q6 -12 3 -18 q-3 -5 -7 -5 q-3 0 -7 8 q-2 4 -8 12 q-2 3 -3 5 q-2 2 -6 6 q-2 3 -5 7 q-3 4 0 4 q3 2 10 0 ZM84 43 q2 2 2 -6 q0 -4 -1 -14 q-1 -3 -1 -5 q-1 -12 -3 -18 q-1 -4 -6 -3 q-5 2 -8 7 q-2 7 1 19 q2 12 8 15 q5 5 8 5 ZM150 124 q7 -3 8 -7 q0 -4 -5 -6 q-5 -1 -17 -6 q-6 -1 -16 -5 q-6 -1 -8 -2 q-3 -1 -7 -2 q-4 -1 -7 -2 q-4 -1 -5 3 q-1 3 -3 8 q-1 6 0 6 q1 0 10 2 q7 2 12 3 q1 0 2 1 q18 3 24 6 q6 4 12 1 Z" /><glyph glyph-name="uni4F5C" unicode="&#x4f5c;" d="M32 110 q-9 -5 -12 -3 q0 2 6 7 q3 3 11 12 q3 4 5 6 q4 4 12 16 q6 9 10 14 q12 19 12 23 q0 4 4 4 q6 1 8 -1 q3 -1 14 -11 q12 -9 8 -13 q-3 -3 -19 -15 q-10 -6 -21 -14 q7 -1 10 -4 q3 -3 3 -8 q0 -5 -1 -53 q0 -48 -2 -58 q-2 -11 -7 -16 q-2 -3 -4 -2 q-2 1 -3 5 q-4 7 -1 18 q3 12 2 49 q0 37 0 49 q-1 10 -3 16 q-15 -12 -32 -21 ZM160 -10 q-1 -1 -2 -1 q-3 -1 -8 7 q-6 7 -4 13 q2 7 2 31 q0 24 -1 50 q-1 27 -3 30 q-1 2 -6 5 q-5 4 -1 7 q3 2 6 2 q2 1 10 -2 q9 -3 10 -10 q1 -12 1 -22 q30 10 33 15 q1 2 10 -5 q8 -7 5 -10 q-3 -3 -10 -5 q-6 0 -38 -10 q0 -16 0 -33 q33 10 40 15 q3 4 12 -5 q9 -9 6 -13 q-3 -3 -7 -1 q-5 3 -11 1 q-10 -2 -22 -6 q-10 -1 -13 -3 q-2 -1 -5 2 q0 -50 -4 -52 ZM149 143 q0 1 0 1 q-17 -15 -32 -25 q-4 -2 -6 -1 q-1 0 1 2 q4 5 12 15 q10 12 16 21 q6 9 5 13 q0 3 -6 7 q-2 1 -4 3 q-2 2 -4 3 q-1 0 -2 1 q0 0 1 2 q1 0 3 2 q4 3 6 4 q4 3 7 3 q3 1 6 -1 q6 -2 13 -11 q8 -9 6 -14 q-5 -7 -18 -20 q2 0 3 1 q50 16 54 23 q1 5 13 -3 q7 -5 9 -11 q0 -6 -7 -7 q-4 2 -15 0 q-17 -4 -34 -10 q-16 -5 -19 -7 q-4 0 -8 9 Z" /><glyph glyph-name="uni4F60" unicode="&#x4f60;" d="M82 140 q-2 -1 -6 -5 q-4 -3 -6 -5 q3 -1 6 -3 q1 -1 2 -1 q2 -3 2 -18 q0 -4 0 -16 q-1 -21 -1 -35 q0 -35 0 -44 q1 -10 -1 -12 q-3 -1 -4 -1 q-5 0 -8 8 q-6 10 -4 14 q2 3 3 20 q2 17 0 48 q0 27 -2 33 q-2 -1 -5 -4 q-4 -3 -6 -5 q-13 -12 -26 -21 q-12 -9 -16 -10 q-1 0 -1 0 q0 2 4 6 q2 2 12 13 q12 14 21 24 q26 30 30 39 q1 2 2 6 q2 3 2 6 q0 4 -1 5 q0 2 7 2 q7 0 13 -12 q6 -11 3 -15 q-1 -1 -4 -4 q-9 -7 -16 -13 ZM147 133 q0 2 0 2 q-14 -15 -32 -28 q-6 -4 -7 -4 q-2 0 1 3 q1 2 6 9 q10 13 16 23 q18 25 17 31 q-1 6 -3 12 q-2 4 -4 6 q0 2 2 2 q2 1 5 2 q4 1 5 1 q5 0 14 -11 q9 -11 6 -17 q-2 -6 -8 -11 q-2 -2 -6 -6 q-3 -2 -11 -11 q0 0 2 0 q28 8 43 13 q6 3 15 6 q6 3 7 3 q3 3 13 -8 q6 -7 6 -11 q1 -3 -2 -3 q-1 -1 -2 -2 q-8 -5 -12 -10 q-9 -8 -18 -14 q-4 -3 -7 -2 q-2 0 -2 4 q0 7 3 10 q3 3 7 10 q5 8 1 7 q-1 0 -7 -2 q-7 -3 -13 -5 q-7 -3 -19 -8 q-4 -2 -5 -2 q-3 -1 -11 11 ZM162 49 q0 5 0 27 q0 21 -2 26 q-1 3 -3 8 q-1 1 -1 1 q-3 3 0 5 q1 1 2 1 q2 1 3 1 q3 2 11 -6 q8 -6 7 -13 q0 -1 0 -6 q-1 -16 -1 -28 q0 -27 1 -33 q0 -6 -7 -21 q-6 -11 -11 -11 q-9 0 -8 8 q0 6 -3 15 q-4 9 -8 13 q-3 3 -3 4 q0 1 3 1 q6 -2 12 -2 q7 0 7 1 q0 1 0 3 q1 4 1 6 ZM221 50 q-3 5 -9 15 q-3 6 -5 9 q-1 2 -3 5 q-5 7 -5 9 q-1 2 4 1 q4 0 18 -6 q12 -6 16 -16 q2 -6 2 -13 q0 -3 -1 -7 q-1 -11 -6 -11 q-3 0 -11 14 ZM127 56 q-3 -21 -6 -24 q-4 -1 -9 5 q-5 6 -4 19 q1 12 7 18 q5 6 11 9 q2 1 3 1 q2 0 1 -2 q0 -2 -3 -26 Z" /><glyph glyph-name="uni4FE1" unicode="&#x4fe1;" d="M60 127 q-6 -4 -20 -16 q-8 -8 -13 -12 q-3 -2 -8 -6 q-12 -9 -15 -12 q-1 0 -2 0 q-1 -1 -1 0 q0 1 0 1 q1 1 6 8 q8 11 15 20 q20 24 35 47 q15 22 15 25 q0 4 4 4 q4 2 13 -6 q9 -6 10 -10 q0 -5 -31 -35 q5 -3 5 -9 q1 -6 1 -16 q0 -4 1 -22 q1 -22 1 -37 q1 -48 -1 -55 q-1 -8 -7 -6 q-5 2 -8 10 q-3 8 -2 12 q0 1 0 3 q1 3 1 5 q2 6 3 53 q1 47 -2 54 ZM149 -2 q0 -1 0 -4 q2 -15 0 -17 q-3 -3 -4 -3 q-3 0 -6 6 q-6 9 -4 14 q1 1 0 12 q-1 6 -1 9 q-3 21 -6 27 q-1 3 -3 6 q-1 3 -1 3 q-1 2 -1 3 q1 1 2 1 q2 1 3 1 q3 0 7 -4 q1 -1 2 -2 q1 0 3 -3 q11 4 28 10 q21 7 26 10 q2 3 12 -7 q9 -10 6 -13 q-1 -1 -2 -2 q-9 -12 -13 -17 q3 -1 6 -5 q6 -6 5 -10 q0 -3 -3 -2 q-3 0 -11 0 q-5 0 -46 -9 q0 0 1 -2 q0 -2 0 -2 ZM162 156 q-3 8 -12 18 q0 0 -1 1 q-4 7 -10 10 q-6 5 -6 5 q-1 1 6 4 q7 3 16 3 q6 0 14 -11 q9 -12 11 -24 l0 -1 q3 1 9 2 q3 2 5 2 q22 6 25 9 q3 3 12 -7 q8 -8 8 -11 q-1 -5 -5 -4 q-1 0 -3 0 q-5 1 -10 1 q-9 1 -30 -2 q-2 0 -5 0 q-4 -1 -6 -1 q0 -3 -2 -4 q-4 -3 -9 -1 q0 1 -1 1 q-1 1 -1 1 q-2 0 -6 -1 q-6 -2 -21 -6 q-31 -9 -32 -10 q-2 -1 -6 6 q-3 7 -2 7 q1 0 37 8 q4 1 12 2 q9 2 13 3 ZM142 37 q2 -6 3 -20 q1 -3 1 -5 q15 4 33 10 q0 2 1 4 q0 2 0 3 q1 1 2 4 q1 5 2 7 q3 7 2 10 q1 1 -11 -2 q-13 -4 -33 -11 ZM177 94 q15 5 17 6 q1 2 7 -4 q5 -5 3 -7 q-1 -3 -3 -2 q-2 1 -10 0 q-4 -1 -6 -1 q-13 -3 -28 -9 q-8 -3 -16 -7 q-1 -1 -1 -1 q-2 -2 -5 -2 q-1 0 -7 6 q-5 7 -2 7 q1 0 5 1 q8 2 14 3 q6 2 16 5 q11 3 16 5 ZM171 123 q9 5 12 6 q2 2 8 -3 q8 -4 5 -7 q-1 0 -3 -1 q-9 -4 -17 -6 q-16 -4 -22 -7 q-6 -1 -7 -3 q-1 0 -6 6 q-5 5 -2 5 q2 2 12 3 q2 1 7 3 q9 3 13 4 Z" /><glyph glyph-name="uni50BB" unicode="&#x50bb;" d="M144 170 q55 9 58 12 q3 2 10 -8 q7 -9 5 -12 q-3 -3 -8 -21 q-6 -16 -12 -25 q-5 -6 -8 -5 q-1 1 -4 6 q0 2 -1 3 q-2 -3 -16 -4 q-13 -1 -30 -6 q-5 -2 -12 -5 q-5 -1 -6 -2 q-3 -1 -5 2 q-2 2 -2 5 q-1 2 0 2 q3 0 13 3 q-4 3 -4 4 q0 1 -2 6 q-2 3 -3 6 q-4 9 -9 14 q-3 5 -5 11 q-2 7 2 8 q3 3 11 -7 q7 -9 13 -22 q5 -13 4 -18 q42 10 44 10 q3 1 8 -4 q9 19 12 31 q1 9 1 15 q-1 2 -7 0 q-2 0 -11 -2 q-9 -1 -14 -2 q-5 -1 -12 -3 q-7 -1 -9 -2 q-2 1 -5 7 q-7 -3 -14 -7 q-2 -2 -3 -2 q-2 0 -2 3 q-1 3 2 6 q1 1 4 4 q4 4 7 6 q1 1 3 3 q4 6 7 8 q1 3 1 6 q0 2 2 2 q1 0 2 -1 q4 0 7 -5 q3 -5 2 -8 q-2 -3 -14 -12 ZM159 149 q6 6 7 9 q1 3 1 5 q0 1 3 0 q-3 1 2 -1 q4 -2 6 -6 q1 -4 -8 -11 q5 -3 8 -6 q1 -3 1 -6 q-1 -3 -3 -4 q-1 0 -6 2 q-4 3 -9 6 q-1 -1 -3 -1 q-7 -5 -14 -8 q-6 -2 -8 -2 q-3 1 2 4 q2 1 7 6 q4 4 7 6 q-2 1 -5 1 q-4 2 -6 3 q-2 0 -2 3 q-1 3 4 2 q2 0 12 -1 q-7 1 4 -1 ZM123 84 q5 4 5 10 q0 5 0 6 q-2 2 1 2 q2 1 6 -2 q4 -4 3 -9 q0 -5 -4 -10 q-1 -4 -12 -11 q-10 -6 -12 -3 q-3 2 0 6 q1 3 4 5 q3 2 9 6 ZM180 97 q0 -5 8 -7 q8 -1 13 0 q5 1 9 -5 q4 -6 -2 -7 q-6 0 -19 2 q-11 2 -15 9 q-3 8 -3 12 q0 6 0 9 q0 2 5 1 q5 0 5 -3 q2 -1 0 -3 q-1 -2 -1 -8 ZM145 56 q9 -9 19 -16 q5 10 8 19 q-7 -1 -9 0 q-1 2 -3 5 q-2 3 2 4 q2 0 6 1 q2 1 3 1 q5 2 6 3 q1 2 5 0 q3 -2 5 -4 q2 -2 0 -8 q-1 -1 -3 -6 q-5 -13 -10 -22 q25 -18 49 -25 q5 -1 12 -3 q12 -3 15 -4 q1 0 1 -1 q0 0 -11 0 q-15 -2 -24 -6 q-9 -4 -12 -4 q-1 0 -2 0 q-2 1 -11 6 q-1 1 -6 4 q-12 9 -22 17 q-9 -12 -21 -17 q-12 -8 -16 -9 q-4 0 -5 1 q0 0 6 5 q7 3 14 10 q4 3 10 13 q3 3 4 5 q-10 11 -18 20 q-16 -19 -24 -25 q-3 -3 -8 -6 q-3 -2 -4 -3 q-3 -2 -6 -3 q-1 0 2 3 q1 1 3 3 q4 5 7 8 q3 3 10 13 q9 11 14 18 q-6 8 -9 9 q-3 2 -3 3 q-1 3 3 4 q3 2 5 0 q3 -1 10 -7 q8 11 9 15 q0 3 0 5 q-1 2 2 2 q3 0 6 -1 q2 -2 3 -5 q2 -3 -1 -6 q-2 -3 -11 -16 ZM62 129 q-19 -14 -30 -23 q-2 -1 -4 -3 q-6 -5 -11 -7 q-3 -1 -4 -1 q0 1 0 1 q0 2 2 3 q1 1 8 10 q6 5 9 9 q3 3 8 10 q6 6 17 21 q10 15 13 21 q2 6 0 8 q0 2 4 3 q4 1 13 -8 q9 -9 9 -12 q-1 -3 -6 -8 q-6 -4 -23 -19 q11 -3 13 -8 q1 -1 1 -4 q1 -3 1 -4 q0 -4 -1 -29 q0 -8 -1 -22 q0 -16 -1 -23 q0 -21 -2 -34 q-1 -11 -4 -16 q0 -3 -3 -3 q-1 0 -4 3 q-7 6 -5 17 q2 14 3 41 q2 27 0 6 q2 21 2 41 q0 16 -4 30 Z" /><glyph glyph-name="uni50CF" unicode="&#x50cf;" d="M59 136 q-33 -28 -39 -32 q-6 -4 -7 -3 q-1 1 -1 2 q0 1 3 4 q1 1 7 9 q12 15 21 27 q24 32 26 33 q2 2 0 8 q-2 6 2 5 q1 0 3 0 q3 -1 5 -1 q4 0 10 -11 q4 -11 1 -14 q0 -1 -6 -6 q-9 -8 -15 -14 q3 -3 3 -9 q0 -2 -1 -11 q0 -15 -1 -27 q-2 -33 -2 -65 q1 -27 -1 -34 q-3 -2 -8 3 q-4 5 -4 10 q0 1 0 6 q1 21 1 41 q0 40 3 79 ZM161 120 q1 3 7 -2 q6 -5 3 -7 q-1 0 -7 -3 q-9 -3 -15 -6 q-2 -4 -7 -11 q-3 -6 -4 -8 q6 0 9 -5 q5 -4 7 -12 q1 1 3 -1 q0 -1 1 -2 q22 17 31 28 q12 12 11 14 q0 2 5 0 q5 -2 7 -8 q3 -4 -1 -6 q-2 0 -21 -12 q18 12 -2 -1 q-18 -14 -26 -17 q19 -15 41 -24 q5 -2 13 -4 q9 -3 12 -5 q1 0 1 0 q0 -1 -2 -1 q2 0 -2 -1 q-6 0 -16 -5 q-11 -3 -13 -5 q-3 0 -7 2 q-2 1 -7 6 q-4 4 -7 6 q-9 9 -20 23 q6 -34 -2 -51 q-7 -16 -13 -18 q-1 -1 -3 -1 q-2 0 -4 2 q-2 5 -2 10 q0 3 -3 7 q-1 0 -1 1 q0 0 -1 1 q-4 5 -1 4 q3 -1 9 -1 q7 0 8 2 q1 1 2 8 q1 4 2 7 q1 13 -2 28 q-13 -28 -28 -42 q-14 -11 -20 -12 q-3 -1 -3 0 q0 1 2 2 q5 3 15 14 q10 11 16 22 q7 12 8 20 q-11 -14 -26 -23 q-13 -10 -18 -9 q-2 0 -2 1 q0 1 2 2 q1 1 3 3 q9 7 15 13 q15 13 20 20 q1 1 2 2 q4 6 4 7 q0 3 4 0 q-3 6 -7 6 q-24 -20 -30 -22 q-1 0 -2 -1 q-6 -2 -7 -2 q-1 0 2 3 q2 1 10 9 q6 6 10 9 q15 14 20 23 q-5 -2 -20 -7 q-3 -1 -7 -3 q-3 -1 -4 -1 q-1 -1 -3 2 q-3 3 -3 7 q-2 4 1 4 q1 1 6 1 q4 1 6 1 q15 4 31 10 q3 9 3 15 q0 9 -2 10 q-1 2 0 2 q2 2 4 2 q3 0 6 -4 q6 -6 2 -21 q6 3 7 5 ZM112 122 q-3 11 -5 13 q-1 3 -3 4 q-1 1 2 1 q3 1 6 1 q3 0 6 -6 q3 -6 4 -14 q2 -9 0 -11 q-2 -3 -5 0 q-3 2 -5 12 ZM138 174 q-15 -14 -23 -23 q-2 -1 -5 -4 q-3 -2 -4 -2 q-1 0 -1 1 q0 1 1 2 q1 1 3 6 q5 9 9 16 q9 20 9 21 q-2 3 -2 6 q-2 4 1 4 q1 0 4 -1 q9 0 12 -4 q4 -4 5 -9 q1 0 3 1 q10 2 11 5 q3 3 12 -5 q7 -8 2 -11 q-4 -3 -24 -23 q38 8 42 11 q5 3 12 -6 q7 -8 2 -10 q-7 -4 -16 -15 q-11 -13 -14 -11 q-1 2 -3 8 q0 5 2 8 q2 2 8 12 q-5 -9 2 3 q-14 -3 -34 -8 q-21 -6 -24 -6 q-1 -1 -3 0 q0 1 -1 3 q-1 1 -2 2 q-2 4 1 4 q4 0 19 3 q0 3 2 8 q1 2 6 12 q2 3 3 5 q-1 0 -3 -1 q-4 -2 -6 -3 q-3 0 -6 1 Z" /><glyph glyph-name="uni5173" unicode="&#x5173;" d="M54 -23 q-1 0 -2 -1 q-1 -1 -2 -1 q0 0 -1 1 q0 1 3 4 q1 1 4 5 q2 2 16 19 q14 18 25 46 q2 4 5 12 q2 8 4 11 q-25 -8 -34 -13 q-13 -9 -16 -10 q-3 -2 -9 10 q-5 12 -1 12 q1 0 18 4 q11 2 18 4 q3 1 14 3 q8 3 13 4 q1 8 -2 15 q-1 5 -3 6 q0 1 -1 2 q-1 1 0 1 q1 1 2 2 q2 1 2 1 q3 2 10 -3 q4 -3 7 -7 q1 -1 2 -2 q0 -1 0 -3 q1 -5 0 -8 q2 0 6 1 q8 2 18 4 q3 1 7 2 q16 4 18 6 q2 2 10 -6 q8 -8 6 -14 q-2 -6 -4 -4 q-2 1 -17 4 q-15 2 -46 -6 q-1 0 -1 0 q-2 -3 -2 -7 q0 0 1 0 q1 1 2 0 q2 0 8 -4 q-5 4 2 -1 q6 -5 22 -23 q15 -18 42 -32 q12 -6 27 -12 q5 -2 6 -3 q4 -2 4 -2 q0 -1 -2 -1 q-6 0 -15 0 q-10 -1 -18 -4 q-8 -2 -11 -4 q-1 -2 -6 0 q-4 1 -19 15 q-15 15 -23 29 q-8 15 -14 22 q-6 9 -10 10 q0 -1 -2 -5 q-1 -3 -2 -5 q-12 -33 -32 -51 q-21 -22 -27 -23 ZM106 138 q16 3 34 7 q17 5 18 7 q1 3 10 -4 q8 -6 4 -10 q-5 -3 -29 -12 q-12 -4 -28 -8 q-5 -1 -7 -2 q-10 -1 -13 -3 q-1 0 -6 6 q-5 6 -5 12 q-2 5 2 5 q1 0 7 1 q8 1 13 1 ZM152 188 q-2 3 -5 8 q-1 3 -2 4 q0 2 4 2 q1 0 2 0 q5 1 12 -2 q8 -3 13 -12 q3 -4 7 -12 q1 -1 1 -2 q2 -7 -4 -11 q-6 -4 -11 0 q-6 5 -15 1 q-3 -1 -7 -3 q-5 -1 -7 -2 q-4 -1 -5 0 q0 0 2 2 q2 3 10 11 q9 8 5 16 ZM101 184 q11 3 15 3 q3 1 -3 -8 q-7 -7 -6 -12 q0 -1 1 -2 q1 -3 2 -4 q2 -3 0 -10 q-2 -6 -8 -3 q-4 3 -12 15 q-7 11 -6 19 q0 7 2 10 q2 4 4 2 q3 -3 11 -10 Z" /><glyph glyph-name="uni5230" unicode="&#x5230;" d="M78 145 q-9 -1 -10 -3 q-3 0 -5 4 q-3 5 -4 12 q-2 8 1 6 q5 0 28 5 q24 6 27 8 q3 2 8 -6 q6 -7 -1 -10 q-7 -3 -37 -12 q11 -5 12 -8 q0 -3 -6 -10 q-5 -4 -25 -22 l52 16 q-2 5 -4 10 q-1 1 -1 1 q-1 2 2 2 q3 2 9 0 q5 0 11 -12 q5 -12 -1 -17 q-5 -5 -8 -2 q0 1 -2 4 q-2 5 -3 9 q-55 -27 -66 -35 q-4 -3 -10 8 q-3 5 -4 9 q0 3 2 2 q5 2 9 3 q6 4 15 16 q1 1 2 4 q11 15 9 18 ZM99 44 q8 4 22 10 q13 6 15 7 q3 1 3 -1 q0 -1 -2 -4 q-2 -3 -27 -19 q-14 -10 -22 -15 q-4 -3 -12 -8 q-25 -15 -27 -17 q-3 -3 -9 7 q-4 8 -4 11 q0 1 1 2 q1 0 9 4 q22 9 42 18 q-3 3 -1 8 q0 1 0 5 q1 4 1 7 q-4 -2 -9 -4 q-7 -4 -9 -4 q-2 -1 -5 5 q-4 5 -6 8 q-1 3 2 4 q4 0 26 9 q0 5 -4 9 q-4 5 -4 5 q-1 1 2 4 q3 3 9 2 q6 0 9 -3 q3 -2 4 -10 q1 1 5 2 q7 3 7 4 q2 0 8 -3 q6 -3 3 -6 q-2 -2 -22 -13 q-2 -15 -5 -24 ZM158 90 q0 12 -1 25 q0 14 -3 18 q-1 1 -3 3 q-1 2 -1 2 q-1 2 2 5 q4 3 7 3 q3 1 10 -8 q7 -8 7 -17 q0 -2 -1 -9 q-1 -11 -2 -19 q-1 -21 -4 -24 q-4 -3 -8 3 q-4 8 -3 18 ZM198 96 q-1 72 -4 78 q-3 6 -6 9 q-2 2 2 4 q1 0 2 1 q2 1 6 1 q4 0 10 -9 q5 -9 4 -16 q0 -6 0 -73 q0 -67 2 -76 q0 -1 0 -3 q0 -8 -6 -19 q-6 -13 -12 -13 q0 0 -1 0 q-6 3 -8 13 q-2 9 -7 15 q-3 4 -9 8 q-1 1 -2 1 q-2 2 -2 2 q0 1 4 1 q2 -1 8 -1 q4 -1 7 -1 q9 0 11 2 q1 1 1 17 q0 11 0 59 Z" /><glyph glyph-name="uni5355" unicode="&#x5355;" d="M134 157 q-2 1 1 5 q3 3 12 14 q9 12 9 18 q0 3 -1 10 q-1 2 -1 4 q-3 7 0 7 q1 0 1 0 q1 0 4 0 q4 -1 6 -1 q6 0 10 -13 q3 -14 1 -17 q-3 -4 -31 -26 q36 5 39 9 q3 4 14 -8 q10 -12 7 -15 q-2 -1 -11 -22 q-4 -9 -7 -15 q-14 -33 -20 -36 q-6 -2 -11 13 q-6 0 -18 -3 l0 -21 q58 5 61 8 q3 3 15 -4 q8 -6 8 -11 q0 -1 -1 -3 q-3 -6 -7 -4 q-4 2 -17 3 q-12 2 -59 -3 q0 -45 -2 -63 q-3 -14 -7 -18 q-3 -1 -3 -1 q-3 0 -4 5 q-3 9 -3 75 q-58 -8 -69 -11 q-3 -1 -8 -2 q-3 -1 -4 -1 q-1 1 -3 4 q0 2 -1 8 q1 -4 -1 2 q0 1 0 2 q0 3 4 2 q5 -2 82 10 l0 18 q-14 -3 -28 -6 q-5 -1 -5 -1 q-3 -1 -4 2 q-1 3 -3 5 q-2 4 1 4 q1 1 10 3 q4 0 6 1 q0 0 -1 1 q-4 6 -5 12 q-1 2 -3 8 q-4 10 -6 16 q-7 17 -9 21 q-2 3 -1 4 q0 1 2 1 q5 0 9 -1 q4 -1 7 -6 q3 -6 9 -26 q6 -20 4 -29 l17 3 l0 21 q-3 0 -6 -1 q-2 -1 -5 -1 q-1 2 -3 3 q-2 3 -2 5 q-1 2 -1 3 q0 0 2 0 q1 0 6 1 q5 2 9 3 q0 15 -2 18 q-2 3 2 5 q-14 -3 -17 -3 q-3 0 -4 2 q-1 3 -3 6 q0 3 3 3 q3 0 36 4 ZM129 147 q4 -1 7 -5 q2 -2 2 -14 q3 1 6 3 q3 1 5 1 q2 3 8 -1 q7 -4 5 -7 q-3 -3 -24 -9 l0 -23 q12 3 15 3 q4 -1 6 -4 q6 5 14 31 q1 3 2 8 q6 21 4 21 q-2 2 -50 -4 ZM117 174 q2 -3 2 -11 q-1 -7 -6 -6 q-4 2 -9 7 q-2 2 -5 7 q-4 4 -6 6 q-5 9 -4 15 q0 2 1 6 q0 4 1 6 q2 5 6 0 q4 -6 10 -16 q4 -5 9 -12 q1 -1 1 -2 Z" /><glyph glyph-name="uni53E5" unicode="&#x53e5;" d="M205 165 q12 -8 12 -17 q0 -1 -1 -3 q-2 -11 -2 -50 q0 -39 -12 -66 q-11 -24 -29 -38 q-15 -12 -19 -12 q-1 0 -1 0 q-4 3 -5 11 q0 6 -6 17 q-6 11 -1 9 q1 -1 5 -2 q5 -1 8 -2 q9 -3 14 0 q6 3 17 24 q11 21 11 57 q0 36 0 45 q0 5 -2 11 q-1 1 -1 2 q-3 4 -6 4 q-1 0 -14 -4 q-10 -2 -17 -4 q-27 -8 -30 -11 q-4 -3 -5 -1 q0 1 -2 3 q-2 4 -3 6 q-2 5 1 5 q1 0 10 2 q11 3 19 5 q13 3 28 8 q4 1 5 1 q6 3 9 7 q2 3 17 -7 ZM118 106 q-28 -8 -33 -11 q-6 -1 -7 -1 q-1 1 -4 7 q-3 6 0 5 q1 0 12 3 q6 1 9 2 q5 1 12 3 q9 3 10 4 q1 0 2 1 q3 1 4 2 q3 3 14 -9 q10 -10 8 -15 q-1 -1 -3 -4 q-6 -7 -10 -13 q-5 -5 -8 -8 q0 0 1 -1 q6 -6 5 -10 q-1 -4 -4 -3 q-2 0 -4 1 q-2 0 -3 0 q-2 1 -12 0 q-3 -1 -5 -1 q-10 -1 -19 -6 q5 -19 1 -25 q-2 -6 -8 2 q-4 8 -4 12 q0 3 -6 26 q-6 23 -10 27 q-4 6 -5 6 q-3 1 -1 4 q0 1 3 4 q2 1 9 -2 q4 -2 8 -6 q2 -3 5 -14 q3 -9 6 -22 q7 2 18 5 q8 2 11 3 q-1 5 0 7 q0 1 1 3 q3 7 6 12 q4 12 1 12 ZM94 190 q-1 2 -1 3 q1 1 3 1 q2 0 3 0 q1 0 4 -1 q6 0 9 -2 q5 0 9 -16 q4 -15 -1 -18 q-6 -3 -24 -12 q-10 -5 -30 -12 q-3 -1 -5 -2 q-2 0 -5 -1 q-13 -4 -15 -3 q0 0 0 1 q0 2 6 6 q8 6 29 26 q21 19 21 22 q-1 3 -3 8 Z" /><glyph glyph-name="uni53EA" unicode="&#x53ea;" d="M67 15 q-27 -18 -31 -18 q-2 1 1 3 q1 2 7 10 q9 11 15 19 q19 26 19 29 q0 3 -2 6 q-1 3 5 3 q7 0 11 -1 q3 0 8 -10 q4 -9 4 -13 q-1 -3 -4 -5 q-4 0 -33 -23 ZM186 47 q10 -16 10 -27 q1 -9 -5 -16 q-5 -3 -8 1 q-3 6 -16 26 q-1 1 -2 4 q-10 17 -14 22 q-4 5 -6 8 q-1 3 6 3 q4 0 13 -2 q-6 2 3 0 q8 -1 19 -19 ZM155 163 q-43 -8 -49 -10 q-6 -2 -7 -2 q-3 1 -6 8 q-3 6 1 6 q1 0 14 2 q9 2 15 3 q27 5 31 6 q4 1 8 4 q0 0 2 0 q3 0 14 -10 q13 -11 10 -17 q-1 -1 -2 -4 q-6 -9 -11 -16 q-5 -8 -11 -18 q-2 -1 -2 -2 q0 -1 2 -2 q1 -1 1 -1 q8 -8 6 -13 q-2 -4 -5 -4 q-4 2 -15 3 q-10 1 -16 1 q-3 -1 -28 -6 q2 -7 -2 -15 q-4 -7 -10 1 q-6 8 -6 12 q0 4 -6 28 q-6 24 -11 30 q-5 6 -8 7 q-2 2 -2 3 q0 1 1 1 q1 4 4 5 q3 3 12 -2 q9 -5 11 -8 q3 -3 6 -19 q1 -5 4 -15 q2 -10 3 -15 q17 3 36 7 q2 0 3 0 q-1 4 1 7 q2 3 9 24 q6 21 3 21 Z" /><glyph glyph-name="uni53EF" unicode="&#x53ef;" d="M129 172 q100 12 103 15 q0 0 2 0 q3 0 10 -7 q8 -6 8 -10 q0 0 0 -1 q-1 0 -1 -1 q-2 -3 -7 -1 q-4 2 -31 2 q-27 0 -94 -10 q-69 -10 -76 -13 q-2 -1 -5 -2 q-2 -1 -5 -2 q-3 -2 -5 1 q-1 1 -1 1 q-1 2 -2 6 q-2 3 -2 4 q0 2 0 3 q0 3 2 3 q3 0 104 12 ZM155 106 q0 30 -3 35 q-3 5 -7 8 q-5 5 -2 6 q2 2 8 3 q6 3 14 -5 q8 -7 8 -16 q0 -8 -1 -61 q-1 -53 0 -59 q1 -8 -5 -19 q-6 -13 -11 -13 q-7 0 -7 10 q-1 7 -6 14 q-4 8 -9 11 q-3 2 -3 3 q0 1 3 1 q4 -1 10 -1 q6 0 8 2 q2 2 3 26 q2 26 0 55 ZM111 99 q-2 3 -2 5 q0 0 0 3 q1 4 2 7 q1 9 1 10 q0 3 -11 -1 q-2 -1 -6 -2 q-5 -1 -7 -2 q-3 -2 -5 2 q-1 1 -2 2 q-1 2 -3 6 q-1 3 2 4 q4 0 19 3 q13 3 16 8 q2 4 15 -3 q12 -8 9 -11 q-1 -1 -7 -12 q-6 -10 -10 -17 q11 -9 9 -12 q-1 -3 -3 -3 q-3 2 -13 0 q-1 0 -3 0 q-8 -1 -20 -4 q8 -16 5 -21 q-3 -4 -9 0 q-6 5 -7 10 q-1 5 -7 15 q-4 9 -12 20 q-6 12 -10 14 q-3 2 2 5 q4 3 8 3 q5 0 8 -5 q5 -4 16 -30 l25 6 Z" /><glyph glyph-name="uni540E" unicode="&#x540e;" d="M159 71 q-39 -11 -42 -14 q-3 -1 -7 6 q-4 9 0 8 q2 0 29 7 q27 6 30 10 q3 4 14 -8 q11 -10 7 -15 q-3 -3 -16 -25 q-3 -6 -6 -10 q2 -1 6 -6 q7 -7 4 -12 q-2 -4 -5 -2 q-1 1 -9 3 q-7 1 -16 1 q-8 0 -29 -7 q3 -12 1 -18 q-2 -3 -4 -3 q-2 0 -5 3 q-5 6 -5 8 q-2 4 -3 16 q-3 15 -9 33 q-3 10 -8 19 q-1 1 -1 1 q-3 2 -1 3 q1 2 4 3 q3 2 8 -1 q6 -2 8 -5 q1 -1 3 -9 q2 -7 4 -12 q3 -13 6 -25 q9 3 24 6 q7 1 10 2 q0 5 0 6 q2 2 7 15 q-4 -12 1 4 q6 15 5 17 q-2 2 -5 1 ZM10 -14 l-1 0 q0 0 0 1 q0 1 3 4 q1 1 4 7 q10 17 19 34 q20 36 28 69 q9 32 10 47 q2 16 0 19 q0 4 -2 7 q-2 1 1 2 q0 0 3 0 q3 0 8 -3 q5 -4 6 -7 q0 0 0 -2 q1 -3 1 -6 q2 -6 -9 -48 q-10 -42 -30 -76 q-19 -34 -28 -40 q-3 -2 -8 -5 q-3 -2 -5 -3 ZM208 131 q7 -8 7 -13 q0 -1 -1 -3 q-2 -4 -5 -3 q-1 2 -12 3 q-10 3 -33 1 q-23 0 -44 -6 q-1 0 -3 -1 q-19 -4 -22 -7 q-3 -3 -7 5 q-5 8 -2 8 q2 0 25 4 q5 1 15 3 q24 5 39 7 q30 6 32 9 q2 3 11 -7 ZM151 200 q0 1 3 1 q2 0 4 -1 q6 0 12 -12 q6 -12 4 -16 q-3 -3 -14 -7 q-10 -3 -34 -7 q-24 -4 -29 -3 q-3 0 -4 1 q0 1 2 2 q2 1 15 7 q10 4 25 13 q14 8 15 13 q2 5 0 6 q-1 3 1 3 Z" /><glyph glyph-name="uni542C" unicode="&#x542c;" d="M175 195 q3 3 6 3 q3 0 6 -2 q8 -5 12 -14 q4 -8 1 -11 q-3 -3 -11 -1 q-8 2 -23 0 q-13 0 -18 0 q-4 2 -3 2 q1 1 9 6 q-7 -4 5 3 q12 9 16 14 ZM228 123 q8 -5 8 -10 q0 0 0 -1 q-2 -3 -9 -1 q-7 2 -19 -1 q-11 -1 -32 -10 q-20 -7 -23 -9 q-2 -2 -5 5 q-6 -29 -16 -47 q-9 -17 -14 -20 q-6 -2 -4 1 q0 1 3 6 q4 10 7 18 q9 21 11 43 q3 21 3 38 q-1 17 -4 20 q-2 4 3 5 q5 2 9 -4 q5 -6 6 -10 q2 -3 0 -16 q0 -12 -2 -24 q66 21 67 23 q2 2 11 -6 ZM190 -22 q-1 -3 -3 -3 q-3 0 -4 3 q-4 7 -4 15 q1 3 0 19 q0 16 0 27 q-1 18 -2 37 q0 7 0 8 q-1 4 -4 7 q-2 3 1 4 q1 0 3 1 q2 0 3 0 q3 0 9 -6 q7 -6 7 -13 q0 -7 0 -37 q0 -28 -1 -41 q-1 -15 -5 -21 ZM80 99 q0 1 0 2 q-2 4 -1 7 q0 3 6 32 q-3 -1 -9 -3 q-21 -8 -24 -8 q-3 -1 -5 2 q-3 3 -3 6 q0 3 2 3 q3 0 14 3 q4 1 9 3 q7 1 10 2 q9 3 11 6 q3 4 15 -5 q12 -8 6 -13 q-4 -4 -21 -36 q7 -1 7 -6 q1 -4 1 -6 q0 0 -8 -1 q-6 0 -39 -8 q0 -2 1 -5 q0 -3 1 -5 q0 -3 -2 -6 q-2 -1 -5 0 q-4 3 -6 13 q-3 11 -9 30 q-5 21 -8 26 q-2 3 -3 6 q1 3 5 2 q1 1 4 0 q2 0 3 0 q5 -1 9 -15 q1 -3 2 -11 q4 -15 5 -23 q4 1 12 3 q13 3 20 5 Z" /><glyph glyph-name="uni54C1" unicode="&#x54c1;" d="M127 165 q-15 -5 -19 -8 q-4 -3 -6 2 q-1 2 -3 9 q-1 3 -2 5 q-1 9 3 8 q4 0 25 4 q20 3 26 9 q0 2 3 2 q5 0 15 -13 q13 -16 7 -22 q-2 -2 -12 -12 q-8 -9 -13 -15 q3 -11 2 -14 q-1 -3 -6 -1 q-5 2 -17 1 q-13 -3 -22 -7 q1 -9 -4 -9 q-5 0 -10 4 q-5 2 -6 11 q0 6 -9 29 q-9 24 -10 28 q0 6 3 6 q4 1 10 -2 q7 -3 8 -12 q0 -1 1 -5 q2 -4 12 -33 l34 6 q-3 3 0 8 q1 2 2 7 q2 4 3 7 q3 9 2 11 q-2 2 -17 -4 ZM94 78 q-8 -3 -18 -6 q-3 -1 -4 -1 q-4 -1 -7 -3 q-3 0 -4 2 q-1 2 -3 8 q-3 6 1 6 q1 1 7 2 q8 2 13 3 q15 5 18 8 q3 5 15 -6 q12 -11 9 -14 q-3 -4 -15 -33 q9 -7 8 -13 q-1 -5 -4 -5 q-4 2 -13 0 q-9 0 -28 -8 q7 -21 4 -30 q-1 -5 -4 -5 q-1 0 -2 1 q-1 1 -2 1 q-6 6 -6 13 q-1 5 -10 32 q-10 27 -16 35 q-4 6 -4 12 q0 2 0 3 q1 8 4 8 q2 0 8 -8 q2 -2 3 -3 q9 -11 20 -44 l30 10 q-3 6 -3 9 q2 4 3 26 ZM159 45 q10 3 29 5 q1 0 1 0 q-3 6 -1 10 q0 1 2 5 q2 6 4 10 q3 12 3 14 q1 3 -15 -1 q-16 -4 -19 -6 q-3 -1 -5 2 q-2 2 -3 5 q-1 2 -1 2 q-1 4 3 5 q5 0 10 2 q1 0 4 1 q2 1 16 4 q13 3 16 9 q3 6 15 -8 q8 -9 8 -14 q0 0 0 -1 q-7 -8 -24 -42 q8 -11 6 -14 q0 -3 -4 -3 q-1 0 -3 0 q-6 1 -11 1 q-7 3 -28 -3 q0 -21 -1 -28 q-2 -4 -3 -4 q-2 -1 -5 2 q-5 3 -5 9 q2 6 0 22 q-1 17 -7 39 q-6 23 -9 27 q-3 5 -1 6 q3 1 8 1 q5 0 9 -10 q3 -11 11 -47 Z" /><glyph glyph-name="uni5728" unicode="&#x5728;" d="M145 173 q0 -1 0 -2 q-1 -2 -1 -3 q15 4 29 10 q3 2 11 -6 q7 -9 7 -13 q-1 -4 -7 -6 q-9 -2 -26 -6 q-18 -5 -27 -7 q-14 -31 -34 -60 q0 -6 0 -12 q0 -60 -3 -71 q-1 -12 -6 -19 q0 0 -1 -1 q0 0 -1 0 q-2 0 -5 6 q-3 9 -1 14 q3 5 2 62 l0 2 q-21 -28 -48 -56 q-12 -10 -17 -10 q-2 -1 -3 0 q0 1 1 2 q0 1 5 6 q10 10 17 19 q26 31 45 62 q-1 7 -4 16 q-2 2 -4 5 q-2 2 -2 2 q-2 3 1 5 q3 1 6 1 q3 1 9 -5 q3 -3 5 -7 q9 17 18 33 q-9 -1 -18 -3 q-3 0 -7 2 q-3 3 -7 15 q-3 11 0 10 q3 0 17 1 q14 2 28 5 q0 2 2 4 q5 16 3 26 q-2 6 -2 8 q0 3 2 3 l1 0 q1 0 3 -1 q2 0 3 -1 q8 -4 9 -7 q7 -7 0 -23 ZM215 23 q6 -4 6 -8 q0 0 0 -1 q-1 -1 -1 -2 q-3 -4 -6 -3 q-3 3 -15 2 q-9 0 -45 -4 q-1 0 -4 0 q-24 -3 -28 -4 q-6 0 -7 1 q-3 1 -4 7 q-2 6 2 5 q3 0 16 1 q12 2 26 3 q-1 3 -1 6 l1 42 q-2 0 -5 -1 q-5 -2 -14 -4 q-3 2 -6 6 q-3 6 -3 10 q-1 4 3 4 q1 0 3 0 q3 1 5 1 q1 0 3 0 q5 1 14 4 q0 18 -2 24 q-2 2 -5 7 q-1 2 -2 3 q-3 5 0 5 q3 2 7 2 q5 2 12 -7 q8 -5 8 -12 q0 -4 0 -16 q3 2 9 5 q1 2 2 2 q2 1 9 -2 q8 -3 6 -8 q0 -4 -5 -8 q-2 -1 -8 -3 q-3 -2 -15 -7 q-2 -35 -6 -52 q4 1 13 2 q18 3 26 4 q3 3 11 -4 Z" /><glyph glyph-name="uni5766" unicode="&#x5766;" d="M186 151 q-6 -2 -16 -4 q-8 -2 -12 -3 q-4 -1 -6 2 q-1 3 -3 8 q-2 5 1 5 q3 0 23 3 q19 3 23 7 q3 4 16 -4 q12 -7 9 -15 q-3 -7 -9 -37 q-6 -29 -12 -35 q-6 -7 -15 10 q-4 -1 -11 -2 q-11 -2 -23 -5 q-4 -1 -9 -3 q-3 -1 -3 -1 q-2 -1 -4 3 q2 -4 -1 1 q-1 5 -3 9 q-1 2 1 2 q1 0 3 1 q2 0 3 0 q-9 48 -11 53 q-3 5 0 7 q1 2 5 1 q1 0 5 -2 q1 -1 2 -2 q5 -4 6 -9 q0 -4 3 -17 q6 0 16 4 q3 1 8 3 q3 1 4 2 q2 2 7 -3 q5 -4 1 -8 q-4 -3 -17 -7 q-12 -3 -17 -1 q1 -10 1 -18 q4 1 11 2 q12 3 15 3 q3 0 6 -3 q3 -3 5 -3 q2 0 5 23 q1 4 1 10 q2 12 3 18 q1 6 -2 6 q-2 1 -7 -1 q4 2 -2 0 ZM72 183 l1 0 q3 0 8 -3 q6 -3 9 -8 q3 -3 1 -14 q0 -4 -1 -13 q0 -9 -1 -13 q2 1 6 3 q1 1 2 2 q2 2 9 -3 q8 -4 3 -9 q-6 -3 -16 -11 q-3 -2 -5 -3 q-2 -24 -2 -48 q4 3 13 8 q12 8 17 12 q5 2 4 0 q0 -3 -6 -9 q-11 -11 -20 -20 q-15 -15 -22 -21 q-11 -10 -16 -19 q-1 -3 -3 -3 q-5 0 -10 13 q0 2 -1 6 q-1 3 -2 5 q0 3 1 3 q15 8 30 17 q2 23 2 47 q-7 -4 -15 -7 q-5 -2 -11 10 q-7 13 -2 13 q5 0 15 3 q7 1 13 4 l0 16 q-1 25 -3 31 q-1 5 -3 7 q-3 2 0 2 q1 2 5 2 ZM231 55 q6 -6 6 -10 q0 0 0 -1 q-1 -1 -1 -2 q-3 -7 -7 -5 q-1 1 -6 2 q-4 1 -6 2 q-9 4 -29 2 q-24 -2 -48 -7 q-4 -1 -10 -2 q-20 -4 -22 -5 q-3 -1 -4 1 q-3 2 -4 7 q-2 4 1 4 q1 0 14 2 q9 2 15 3 q27 5 58 9 q32 5 33 6 q1 2 10 -6 Z" /><glyph glyph-name="uni5929" unicode="&#x5929;" d="M145 187 q1 1 2 1 q4 1 10 -5 q8 -6 8 -10 q1 -4 -5 -6 q-5 -3 -26 -11 q-5 -2 -14 -5 q-7 -3 -14 -5 q-6 -1 -9 0 q-3 3 -9 12 q-6 9 -6 11 q0 3 5 3 q6 0 16 1 q10 2 25 6 q3 1 7 3 q7 3 10 5 ZM98 91 q-31 -8 -42 -11 q-2 0 -4 -1 q-6 -2 -9 -3 q-1 -1 -3 2 q0 1 -1 4 q-1 2 -1 4 q-1 5 2 5 q1 0 16 4 q24 5 43 10 q0 10 -5 19 q-6 9 -4 10 q1 0 3 1 q2 1 3 1 q5 2 12 -4 q8 -5 8 -11 q0 -5 0 -12 q54 11 57 14 q3 4 13 -1 q11 -4 10 -12 q0 -6 -5 -6 q-3 1 -17 1 q-14 2 -56 -9 q5 -1 9 -7 q4 -7 22 -26 q18 -19 53 -34 q13 -6 30 -12 q8 -4 9 -4 q0 0 1 -1 q1 0 1 -1 q0 0 -2 -1 q-5 0 -20 -3 q-14 -2 -23 -5 q-8 -2 -10 -2 q-1 1 -5 4 q-10 7 -18 14 q-20 16 -34 38 q-13 23 -19 23 q-11 -35 -33 -60 q-21 -20 -33 -26 q-10 -6 -13 -5 q-1 1 4 5 q2 2 2 2 q7 5 26 27 q19 24 25 41 q7 19 8 28 Z" /><glyph glyph-name="uni597D" unicode="&#x597d;" d="M69 129 q1 8 4 21 q4 23 4 27 q0 5 -3 8 q-1 2 0 2 q0 1 2 1 q4 0 7 -2 q5 -1 8 -7 q4 -4 2 -13 q-1 -4 -4 -16 q-2 -10 -4 -16 q6 2 13 5 q3 1 3 1 q2 3 6 -2 q5 19 3 23 q-3 4 0 5 q2 0 11 -3 q8 -4 6 -11 q-1 -2 -5 -15 q-3 -9 -5 -15 q-9 -23 -28 -53 q24 -13 30 -19 q6 -6 5 -17 q0 -10 -4 -10 q-4 1 -16 14 q-11 14 -23 22 q-21 -20 -37 -31 q-7 -5 -16 -11 q-3 -1 -4 -2 q-3 -1 -4 0 q0 1 2 3 q2 2 8 7 q7 6 11 10 q14 11 31 31 q-8 5 -11 3 q-4 -1 -6 5 q-2 7 1 8 q3 1 10 31 q-4 -2 -11 -5 q-18 -6 -27 -12 q-10 -6 -13 -6 q-3 -1 -5 5 q-1 3 -3 7 q-2 5 -3 7 q-2 3 -2 5 q0 3 2 2 q3 -1 18 2 q12 3 47 11 ZM79 120 q-5 -18 -10 -33 q-1 -2 -1 -2 q-3 -3 0 -5 q3 -2 12 -5 q16 24 25 52 q-10 0 -26 -7 ZM191 172 q-18 -8 -25 -14 q-7 -6 -7 -10 q0 -4 -6 -9 q-6 -3 -9 2 q-4 4 -4 15 q1 10 10 16 q8 8 8 5 q0 -3 0 -8 q35 11 36 12 q1 1 2 3 q1 3 2 4 q1 3 4 3 q1 0 4 -1 q6 -3 12 -11 q7 -9 -2 -12 q-9 -2 -19 -14 q-3 -3 -8 -7 q-5 -6 -7 -6 q12 -7 15 -24 q32 5 33 8 q3 3 12 -3 q9 -6 9 -11 q0 0 -1 -1 q-1 -5 -4 -5 q-3 2 -12 3 q-8 3 -35 -2 q5 -38 2 -59 q-4 -22 -7 -30 q-1 -1 -3 -4 q-1 -2 -9 -12 q-7 -8 -12 -8 q0 0 -1 0 q-5 3 -5 12 q-1 12 -12 19 q-11 6 -14 9 q-2 3 4 0 q6 -1 20 -3 q13 -1 15 0 q3 3 7 21 q4 19 1 52 q-14 -2 -35 -8 q-4 -1 -5 -1 q-17 -4 -20 -7 q-4 0 -5 3 q-3 5 -3 9 q-2 5 2 5 q4 0 64 10 q-3 15 -10 18 q-2 1 -4 2 q-2 1 -4 2 q-2 1 -2 7 q0 5 4 5 q3 0 11 -5 q8 15 13 30 Z" /><glyph glyph-name="uni5A9A" unicode="&#x5a9a;" d="M85 148 q-2 -9 -5 -17 q1 0 2 0 q8 3 11 5 q2 2 7 -3 q0 1 1 2 q1 2 1 5 q3 12 2 17 q0 6 2 5 q2 1 6 -2 q5 -3 6 -6 q2 -4 0 -12 q0 -1 -1 -2 q-5 -18 -14 -37 q-8 -19 -19 -35 q11 -3 19 -9 q5 -4 7 -14 q1 -10 -2 -15 q-3 -4 -7 0 q-1 1 -2 3 q-1 2 -6 9 q-5 9 -17 16 q-1 -1 -3 -3 q-1 -1 -2 -2 q-19 -20 -32 -28 q-13 -9 -19 -10 q-2 -1 -2 0 q0 1 2 4 q6 4 18 16 q8 7 26 26 q-14 -15 1 2 q0 1 1 1 q0 1 0 1 q-4 2 -6 3 q-3 0 -5 -1 q-3 -3 -5 5 q-3 7 0 7 q2 1 4 8 q0 1 1 3 q0 3 6 24 q-8 -3 -16 -8 q-18 -9 -21 -13 q-4 -3 -8 -1 q0 1 -1 3 q-3 6 -5 10 q0 2 -1 4 q-1 2 -1 4 q0 1 1 1 q2 0 16 3 q6 1 17 3 q7 2 11 3 q2 1 6 2 q3 1 5 1 q1 3 2 7 q2 13 3 20 q3 17 0 23 q-1 2 -2 4 q-1 2 -2 4 q-1 2 0 2 q1 1 4 1 q2 1 3 1 q6 0 10 -4 q6 -5 7 -10 q3 -5 -4 -26 ZM117 52 q9 30 13 56 q3 28 2 38 q-1 6 -3 13 q-1 1 -1 2 q-3 5 -4 5 q-1 2 0 3 q0 0 1 0 q2 1 4 1 q4 0 8 -3 q5 -3 8 -9 q2 -5 0 -26 q17 5 27 6 q-2 6 -2 8 q0 6 0 11 q1 4 -3 9 q-4 -3 -10 -4 q-1 -1 -6 8 q-4 9 -1 9 q0 0 3 0 q7 1 12 2 q12 2 26 5 q1 0 3 1 q12 2 15 4 q1 0 1 0 q3 1 12 -6 q1 -1 2 -2 q5 -5 5 -9 q0 0 0 -1 q-1 -1 -1 -2 q-5 -3 -13 -19 q-3 -5 -6 -8 q8 -6 6 -10 q-2 -3 -5 -3 q-3 1 -12 1 q-9 1 -21 -2 q-12 -3 -20 -6 q-2 -1 -5 -2 q-2 -1 -5 -2 q-1 -1 -3 3 q0 -3 0 -8 q-5 -36 -17 -69 q-12 -33 -21 -46 q-8 -15 -13 -19 q-2 -1 -2 -1 q-2 0 1 6 q4 10 10 22 q6 15 15 44 ZM193 102 q-18 -4 -21 -7 q-3 -2 -5 -2 q-3 0 -4 6 q-3 6 1 6 q3 0 18 4 q3 1 7 2 q10 3 10 4 q3 2 10 -4 q7 -7 8 -12 q0 -6 1 -31 q0 -25 1 -42 q0 -17 -6 -30 q-6 -16 -11 -16 q-5 0 -5 11 q-1 9 1 12 q4 3 4 19 q2 15 0 47 q-2 32 -4 32 q-1 1 -5 1 ZM164 80 l0 -5 q18 6 20 7 q2 2 7 -2 q6 -3 3 -6 q-2 -3 -13 -6 q-12 -3 -13 -4 q-1 0 -3 3 q2 -3 -1 2 l0 -19 q17 5 20 6 q3 3 9 -1 q5 -4 2 -7 q-3 -2 -12 -4 q8 2 -2 -1 q-8 -2 -12 -3 q-2 0 -5 5 q1 -5 0 -14 q0 -5 0 -7 q19 5 22 6 q3 2 9 -3 q5 -4 5 -9 q0 -3 -3 -2 q-4 2 -11 1 q-9 0 -22 -3 q-1 -3 -1 -4 q-2 -6 -5 -6 q-4 0 -7 6 q-1 8 -1 12 q2 3 3 20 q0 17 0 35 q-1 18 -4 20 q-3 2 -1 3 q1 0 3 1 q1 0 2 0 q2 0 5 -4 q4 -3 5 -6 q1 -3 1 -11 ZM89 104 q5 11 8 20 q-4 0 -18 -4 q-2 0 -2 0 q-1 -4 -3 -7 q-2 -5 -5 -14 q-2 -6 -3 -9 q-1 -3 -3 -7 q-1 -3 -2 -4 q0 -1 7 -4 q1 -1 2 -1 q2 -1 3 -1 q10 14 16 31 ZM201 176 q-16 -2 -23 -6 q2 0 3 -2 q3 -3 3 -6 q0 -1 -1 -7 q-1 -4 -1 -7 q0 -1 -1 -2 q-1 -2 -1 -6 q7 3 10 3 q1 0 3 1 q2 0 3 1 q0 4 1 7 q2 3 4 13 q2 11 0 11 Z" /><glyph glyph-name="uni5AF5" unicode="&#x5af5;" d="M58 117 q7 45 7 49 q0 5 -3 8 q-1 2 0 2 q0 1 2 1 q4 0 8 -1 q3 -2 8 -7 q4 -5 1 -14 q-1 -9 -7 -33 q4 2 10 4 q4 2 6 3 q2 2 6 -3 q4 20 2 24 q-1 4 0 5 q3 0 11 -3 q9 -5 7 -11 q-2 -4 -7 -22 q-2 -6 -3 -9 q-7 -24 -27 -53 q4 -3 9 -7 q7 -5 10 -7 q6 -5 4 -17 q-2 -10 -5 -7 q-3 3 -8 11 q-6 7 -18 16 q-20 -21 -35 -31 q-13 -9 -19 -11 q-2 0 -2 -1 q-2 0 1 3 q4 5 16 16 q14 11 30 30 q-7 6 -12 4 q-3 -1 -5 5 q-2 8 1 8 q3 1 9 32 q-1 -1 -4 -2 q-21 -8 -27 -12 q-3 -2 -7 -4 q-2 -1 -2 -1 q-3 0 -6 6 q0 2 -2 5 q-1 5 -2 8 q-1 1 -1 3 q0 3 3 3 q5 -1 15 0 q7 1 30 8 q4 1 6 2 ZM193 72 q0 0 0 1 q-28 -3 -49 -7 q-20 -4 -26 -7 q-5 -3 -8 -4 q-1 -1 -6 6 q-4 9 -3 8 q0 0 4 0 q8 1 15 2 q9 2 25 4 q2 0 3 0 q0 1 -1 2 q-4 4 -3 6 q0 6 -1 12 q0 2 0 2 q-2 0 -4 -1 q-3 0 -5 -1 q-4 0 -5 0 q-2 0 -5 6 q-3 6 -1 5 q2 0 10 0 q3 1 8 1 q0 1 -1 3 q0 3 -1 4 q-1 8 -4 9 q-1 2 0 2 q3 1 3 1 q4 0 6 -2 q5 -1 6 -6 q0 -1 0 -3 q1 -4 1 -6 q8 2 12 3 q-1 5 -2 12 q0 4 0 4 q-2 4 -2 4 q2 2 6 0 q4 0 6 -3 q2 -3 2 -13 q0 0 0 -2 l8 1 l3 1 q0 3 0 5 q0 2 -1 6 q0 4 -1 7 q0 3 1 3 q2 1 6 -2 q5 -1 6 -6 l0 -11 q3 2 9 3 q1 1 2 1 q0 3 -1 9 q0 5 -1 8 q-1 3 -3 5 q-1 2 -1 2 q0 1 1 1 q1 1 6 -1 q-4 2 2 0 q7 -2 7 -5 q0 -3 0 -15 q3 1 3 1 q2 3 6 -4 q5 -6 -1 -8 q-3 -1 -9 -3 q0 -5 -1 -10 q-1 -9 -6 -18 q1 0 1 0 q10 2 16 3 q6 2 8 3 q2 2 10 -5 q7 -6 7 -10 q0 -2 -1 -2 q-3 -4 -5 -3 q-3 2 -10 3 q-8 1 -29 1 q0 0 -1 0 q-2 -1 -3 -1 q-8 -10 -13 -12 q-5 -3 -5 -3 q-1 0 1 3 q2 2 5 6 q3 3 4 5 ZM166 160 q4 -1 10 0 q3 2 13 4 q3 1 4 1 q11 3 12 6 q2 3 8 -5 q6 -6 3 -10 q-3 -3 -7 -2 q-3 2 -10 0 q-7 -2 -15 -5 q-2 -1 -6 -2 q-3 -1 -6 -2 q-3 -1 -6 2 q-1 5 -6 9 q-5 -2 -12 -4 q-7 -3 -9 -4 q-2 0 -5 -1 q-6 -2 -9 -2 q-3 0 -3 1 q0 1 3 3 q3 2 8 5 q4 4 7 6 q7 7 8 13 q0 5 -1 8 q-2 3 1 4 q3 0 7 0 l1 0 q4 0 11 -10 q7 -9 -1 -15 ZM69 62 q16 24 25 53 q-10 0 -26 -8 q-2 -6 -5 -16 q-3 -14 -6 -19 q-2 -3 1 -5 q3 -2 11 -5 ZM209 39 q-1 2 -3 6 q-5 8 -5 9 q-1 2 5 2 q7 0 13 -6 q7 -6 10 -14 q4 -9 2 -16 q-3 -8 -6 -7 q-3 2 -5 6 q0 1 -1 2 q-1 4 -10 18 ZM130 29 q-2 -4 -3 -12 q-1 -1 -1 -2 q-1 -2 -2 -5 q-1 -2 -2 -5 q-1 -2 -3 -2 q-1 0 -2 1 q-3 2 -5 10 q-2 6 0 14 q1 1 2 3 q2 3 5 6 q3 3 8 6 q2 1 4 1 q1 -1 1 -3 q1 -3 -2 -12 ZM178 26 q-2 6 -2 14 q-1 9 0 10 q1 2 7 -2 q6 -3 8 -13 q0 -3 1 -8 q0 -5 1 -8 q0 -5 -4 -8 q-3 -1 -7 4 q-3 5 -4 11 ZM159 37 q0 -7 0 -16 q-2 -10 -4 -12 q-4 -3 -8 3 q-3 6 -2 14 q0 7 3 13 q3 6 7 8 q3 2 4 -1 q0 -3 0 -9 ZM185 102 l0 3 q-2 0 -6 -1 q-4 0 -6 -1 l0 -11 q0 -9 0 -13 q2 1 5 1 q4 1 6 1 q-1 6 0 9 q1 3 1 12 ZM153 99 q1 -12 1 -16 q0 -3 -1 -7 q7 2 13 2 q-1 5 -1 8 q0 6 -1 15 q-5 0 -11 -2 ZM197 108 q-2 0 -2 -1 q0 -4 -1 -10 q0 -8 -1 -10 q0 -1 -1 -3 q0 -2 0 -2 q1 0 2 0 q3 1 4 0 q2 5 3 9 q4 8 4 19 q-5 -2 -8 -2 Z" /><glyph glyph-name="uni5B57" unicode="&#x5b57;" d="M119 165 q0 18 -2 22 q-3 6 -5 7 q-1 2 0 3 q1 3 5 5 q1 0 2 1 q1 0 1 0 q3 0 10 -4 q9 -4 11 -10 q2 -5 -1 -19 q0 -4 -1 -6 q19 2 39 5 q5 1 6 1 q4 1 7 4 q3 4 10 1 q7 -2 16 -16 q6 -12 6 -17 q0 -1 0 -2 q-1 -2 -1 -3 q-3 -7 -10 -3 q-7 6 -12 7 q-4 2 -13 1 q-3 0 -8 -1 q-2 0 -3 0 q-2 -1 -2 0 q0 2 2 3 q3 2 7 7 q2 2 3 3 q3 4 3 7 q-2 1 -44 -5 q-1 0 -5 -1 q-3 0 -5 -1 q-1 -3 -4 -5 q-7 -7 -9 -3 q-3 3 -3 6 q-4 -1 -11 -3 q-8 -1 -11 -2 q-4 -1 -10 -3 q-4 -1 -5 -1 q-3 -1 -6 6 q0 0 -1 1 q-2 6 0 6 q0 0 8 1 q19 2 35 4 q0 1 1 3 q0 1 0 1 ZM56 103 q-1 1 -2 4 q-1 4 -2 7 q0 1 1 2 q0 1 0 1 q2 3 4 18 q0 2 1 5 q1 11 0 14 q0 3 2 5 q1 3 8 -3 q6 -5 5 -17 q0 -3 -1 -8 q-1 -11 -2 -17 q-1 -13 -5 -18 q-4 -3 -9 7 ZM139 118 q-20 -7 -26 -13 q-7 -7 -12 -10 q-3 -2 -7 2 q-3 4 -5 13 q-3 8 2 7 q3 -1 18 3 q3 1 4 1 q18 5 24 6 q7 3 10 7 q3 4 12 -8 q7 -12 4 -14 q-3 0 -8 -2 q-5 0 -20 -16 q6 -6 9 -18 q37 6 39 9 q4 3 13 -8 q10 -12 7 -16 q-3 -3 -9 0 q-7 3 -16 6 q-8 2 -32 -3 q4 -30 -1 -55 q-6 -22 -13 -30 q-7 -6 -10 -6 q-1 0 -3 0 q-5 3 -7 12 q-2 6 -7 13 q-1 1 -2 2 q-6 3 -3 3 q1 0 5 -1 q5 -1 8 -1 q9 -1 11 0 q3 2 6 12 q4 11 4 26 q0 4 -1 11 q0 4 -1 11 q-36 -5 -57 -11 q-20 -4 -23 -6 q-4 0 -5 3 q0 1 -1 5 q1 -2 -1 2 q0 0 0 2 q0 2 2 3 q1 0 23 4 q33 6 60 10 q-2 10 -5 14 q-3 3 -6 6 q-3 2 0 5 q3 3 12 -1 q6 12 8 21 Z" /><glyph glyph-name="uni5B58" unicode="&#x5b58;" d="M211 88 q7 -6 7 -10 q0 0 0 -1 q-3 -6 -5 -4 q-1 1 -5 1 q-4 1 -6 1 q-16 0 -33 -3 q4 -33 2 -50 q-2 -15 -11 -31 q-10 -18 -16 -20 q-8 -2 -7 13 q0 14 -2 16 q-1 4 -12 8 q-1 1 -2 1 q-7 5 -3 4 q4 -1 16 -1 q12 0 14 2 q4 2 7 13 q3 12 1 37 q0 4 0 6 q-7 -1 -23 -4 q-15 -3 -23 -4 q-6 -1 -8 -1 q-2 0 -2 2 q0 1 -1 4 q-1 2 -2 3 q0 4 3 4 q30 5 54 9 q-2 9 -7 15 q-4 3 -5 4 q-1 1 0 4 q2 2 5 4 q3 2 8 -4 q12 20 11 23 q0 0 -1 1 q0 2 -1 1 q-19 -11 -31 -22 q-2 -7 -7 -3 q-1 1 -3 5 q-5 9 -6 12 q-1 6 1 8 q1 0 1 0 q15 0 27 5 q18 6 19 11 q1 5 13 -3 q14 -9 11 -13 q-3 -5 -30 -29 q5 -8 7 -17 q5 1 15 3 q13 3 19 5 q1 1 6 -2 q3 -2 5 -3 ZM116 201 q-1 4 3 4 q5 0 10 -3 q6 -3 5 -10 q-3 -9 -6 -17 q9 1 17 4 q6 1 11 -5 q6 -5 3 -8 q-1 -1 -11 -4 q-7 -2 -11 -3 q-4 -1 -15 -4 q-3 -1 -5 -2 q-16 -31 -38 -56 q-2 -32 -2 -64 q2 -26 5 -33 q2 -9 -2 -15 q-3 -5 -10 6 q-5 9 -5 15 q2 6 2 28 q0 26 1 51 q-20 -20 -43 -38 q-9 -4 -9 -3 q0 1 0 2 q4 4 19 19 q19 19 34 38 q0 4 1 12 q0 8 0 12 q0 3 -1 8 q0 -1 -1 1 q-3 3 -1 5 q2 1 5 1 q2 0 7 -4 q5 -4 4 -11 l-1 -6 q9 13 16 26 q-3 -2 -7 -1 q-3 1 -4 8 q-2 7 -2 10 q-1 4 2 4 q1 0 3 0 q8 1 21 4 q1 2 3 8 q3 7 4 11 q1 6 -2 10 Z" /><glyph glyph-name="uni5BA4" unicode="&#x5ba4;" d="M153 48 q6 -3 2 -7 q-9 -5 -21 -8 q-1 -14 -5 -28 q4 1 12 2 q12 2 17 3 q1 3 9 -6 q8 -7 5 -11 q-3 -6 -5 -3 q-1 1 -5 3 q-2 1 -3 2 q-1 0 -2 1 q-6 2 -19 1 q-21 -2 -37 -4 q-3 -1 -9 -2 q-11 -3 -11 -3 q-1 0 -2 0 q-1 0 -2 1 q0 1 -1 2 q-1 3 -2 4 q0 4 2 4 q7 1 23 2 q12 1 19 2 q-2 6 -2 9 q1 8 1 16 q-7 -1 -15 -3 q-1 0 -2 1 q0 0 -1 1 q-1 3 -3 8 q0 5 2 5 q3 1 10 2 q6 1 9 1 q0 14 -4 16 q-3 3 -1 8 q-11 -4 -20 -10 q-5 -3 -8 4 q-2 3 -3 9 q-1 1 -1 2 q0 6 1 5 q3 0 7 1 q4 0 13 10 q8 9 8 15 q-1 1 0 1 q-2 0 -7 0 q-4 -1 -7 -1 q-1 0 -3 4 q0 2 0 4 q-1 3 -1 4 q0 5 3 4 q4 0 25 3 q21 3 23 5 q2 2 8 -3 q-1 1 1 -1 q7 -5 3 -8 q-2 -2 -10 -4 q-3 -1 -5 -1 q-13 -3 -27 -5 q0 0 2 -1 q7 -2 8 -4 q4 -4 3 -6 q0 -1 -10 -9 q-6 -4 -9 -7 q11 2 24 5 q5 1 7 1 q6 2 8 0 q0 0 1 -1 q2 -1 2 -3 q2 -1 -4 -3 q-5 -2 -15 -5 q-6 -2 -9 -3 q9 -1 12 -5 q2 -3 2 -14 q0 -1 0 -3 q3 1 9 3 q2 1 3 1 q2 2 7 -3 ZM124 144 q-6 0 -8 9 q-5 -1 -15 -2 q-10 -2 -15 -3 q-7 -1 -10 -3 q-3 1 -3 4 q0 1 -1 3 q0 2 -1 3 q-1 4 1 4 q22 3 5 1 q17 2 38 4 q1 8 -2 16 q-3 6 -6 8 q-3 3 0 5 q3 2 8 3 q1 1 1 1 q5 0 12 -7 q10 -9 10 -13 q0 -5 0 -11 q8 1 24 3 q17 2 25 4 q13 2 16 5 q3 3 12 -4 q10 -7 13 -20 q0 -1 1 -3 q0 -3 0 -4 q0 -6 -3 -7 q-5 -2 -11 4 q-7 7 -14 4 q-2 -1 -5 -2 q-2 -1 -5 -2 q-4 0 -1 2 q2 3 8 9 q6 7 5 8 q-1 2 -18 0 q-26 -4 -50 -7 q-5 -12 -11 -12 ZM45 167 q0 1 0 1 q-1 1 -1 1 q0 1 2 1 q2 2 5 2 q3 0 8 -7 q5 -6 5 -16 q0 -9 -3 -25 q-3 -15 -6 -17 q-3 0 -7 5 q0 1 -1 2 q-2 2 -3 6 q0 0 1 2 q2 4 2 10 q2 6 2 15 q0 9 -1 13 q-1 4 -3 7 ZM150 87 q-9 12 -10 13 q-1 2 3 3 q5 2 9 1 q4 0 10 -7 q5 -8 6 -14 q0 -7 -3 -10 q-3 -4 -6 -1 q-1 3 -9 15 Z" /><glyph glyph-name="uni5C11" unicode="&#x5c11;" d="M122 134 q-1 49 -5 52 q-3 6 -6 5 q-3 2 0 5 q2 5 7 6 q2 1 4 1 q3 0 11 -5 q9 -9 9 -19 q1 -5 0 -19 q0 -10 0 -15 q-1 -21 -4 -34 q-2 -11 -7 -14 q-4 -3 -8 6 q-4 9 -2 14 q1 6 1 17 ZM78 111 q5 2 7 2 q2 -1 0 -5 q-3 -9 0 -15 q2 -6 2 -12 q-1 -5 -7 -5 q-8 0 -14 8 q-8 9 -8 18 q0 11 5 18 q6 8 7 6 q0 -1 1 -2 q4 -6 7 -13 ZM28 -31 q-4 -1 -9 -3 q-3 -2 -4 -2 q-3 1 2 4 q2 1 13 11 q21 19 37 32 q42 41 70 78 q23 30 36 58 q8 17 9 24 q0 6 -1 7 q-1 2 2 2 q1 0 3 1 q1 0 2 1 q3 0 7 -8 q5 -9 3 -13 q-43 -85 -105 -141 q-5 -4 -15 -12 q-38 -33 -50 -39 ZM189 135 q-3 6 5 8 q12 3 16 0 q4 -1 11 -9 q-1 0 1 -2 q4 -6 4 -11 q0 -3 -1 -8 q-5 -9 -8 -8 q-3 2 -9 9 q-5 9 -19 21 Z" /><glyph glyph-name="uni5DE5" unicode="&#x5de5;" d="M99 162 q2 1 8 2 q5 1 27 6 q23 6 27 9 q1 0 1 0 q5 1 15 -8 q12 -10 9 -13 q-3 -3 -13 -4 q-9 -1 -46 -13 q-7 -2 -18 -6 q-19 -6 -22 -7 q-3 -1 -6 6 q-3 8 -3 17 q-1 9 3 10 q5 -2 18 1 ZM122 45 q-3 4 0 10 q1 2 3 13 q2 8 3 13 q6 20 0 29 q-2 3 -4 9 q-2 4 -3 6 q-3 6 0 6 q4 0 10 0 q7 1 13 -10 q6 -9 5 -19 q-1 -6 -5 -25 q0 2 -1 -5 q-6 -20 -10 -26 q66 6 69 8 q3 3 13 -4 q9 -6 9 -13 q0 -1 0 -3 q-3 -9 -6 -6 q-1 2 -27 5 q-23 2 -56 0 q-35 -2 -65 -8 q-9 -2 -22 -5 q-9 -2 -12 -3 q0 0 -1 -1 q-3 0 -4 2 q-2 3 -5 8 q0 1 0 2 q-1 1 -1 1 q0 2 3 2 q1 0 42 6 q32 5 52 8 Z" /><glyph glyph-name="uni5DF1" unicode="&#x5df1;" d="M133 122 q8 3 11 5 q2 2 8 -9 q6 -10 -1 -10 q-4 0 -23 -4 q-7 -2 -12 -3 q-26 -6 -31 -8 q-3 -3 -5 0 q-2 2 -4 8 q-3 6 1 6 q1 1 14 3 q17 5 31 8 q-6 3 -4 6 q0 4 10 40 q-24 -11 -34 -14 q-3 -1 -7 -2 q-3 -1 -7 -2 q-3 -1 -4 4 q-3 3 -4 12 q-2 9 1 8 q3 0 33 9 q31 8 34 11 q1 0 1 1 q1 0 1 0 q3 0 12 -10 q12 -13 6 -15 q-4 -3 -27 -44 ZM52 82 q6 27 6 31 q-1 5 2 5 q3 0 10 -4 q6 -4 2 -11 q-2 -3 -6 -19 q0 -4 -1 -6 q-6 -20 6 -38 q12 -18 53 -15 q33 1 58 6 q1 0 3 1 q14 5 14 9 q0 1 1 2 q1 3 3 12 q1 5 2 6 q1 1 2 -2 q1 -2 3 -6 q1 -4 2 -6 q3 -7 11 -13 q5 -3 5 -9 q0 -1 -1 -6 q-5 -9 -29 -12 q-22 -2 -63 -2 l-11 0 q-49 1 -64 25 q-10 18 -10 36 q0 8 2 16 Z" /><glyph glyph-name="uni5E73" unicode="&#x5e73;" d="M123 164 q-4 -1 -9 -3 q-7 -3 -10 -4 q-2 0 -5 -1 q-3 -1 -4 -1 q-3 0 -5 6 q-3 3 -5 10 q0 1 0 1 q-2 6 1 5 q3 0 19 3 q15 2 29 8 q13 5 16 5 q2 0 7 -3 q1 -1 2 -2 q6 -5 4 -9 q-1 -2 -15 -7 q-12 -5 -25 -8 ZM91 133 q10 -10 13 -14 q4 -4 4 -11 q1 -6 -2 -8 q-3 -1 -10 2 q-7 4 -15 16 q-8 11 -8 17 q-1 6 0 10 q0 4 5 1 q3 -3 13 -13 ZM120 83 q-57 -8 -78 -13 q-21 -4 -23 -6 q-3 0 -4 3 q-1 3 -3 8 q-1 2 -1 3 q0 1 2 1 q3 0 32 4 q11 1 39 5 q23 3 36 5 q0 10 -1 25 q0 21 -1 24 q-2 5 -5 8 q-3 4 0 4 q3 2 7 3 q3 3 11 -4 q1 -1 2 -2 q5 -5 5 -9 q0 -5 0 -47 q76 8 79 9 q3 0 9 -6 q6 -4 5 -9 q0 -7 -5 -7 q0 1 -5 2 q-6 2 -10 3 q-13 3 -36 2 q-11 -1 -29 -3 q-5 -1 -8 -1 q0 -54 0 -69 q0 -19 -1 -25 q-3 -14 -6 -22 q0 0 -1 -1 q-3 -6 -5 -3 q-3 8 -3 20 q-2 24 -2 98 ZM156 135 q7 12 7 17 q0 1 -1 2 q0 3 -3 8 q-2 2 -1 4 q1 1 5 1 q8 0 11 0 q5 0 9 -16 q5 -15 2 -19 q-3 -3 -8 -3 q-4 0 -18 -9 q-12 -9 -14 -9 q-2 0 -2 3 q0 3 3 6 q1 3 10 15 Z" /><glyph glyph-name="uni5E74" unicode="&#x5e74;" d="M105 175 q-15 -9 -27 -13 q-13 -4 -19 -4 q-3 0 -3 1 q0 1 3 3 q6 5 18 15 q11 10 9 17 q-1 6 -3 10 q-1 3 0 3 q3 0 9 -1 q-3 1 2 -1 q9 -2 12 -8 q0 -1 1 -2 q4 -5 4 -8 q2 -3 0 -5 q19 3 32 8 q13 6 15 8 q2 2 10 -5 q9 -7 5 -10 q-3 -3 -16 -7 q-13 -5 -28 -8 q-14 -3 -17 -3 q-1 1 -7 10 ZM97 65 q14 3 30 6 l-1 50 q-37 -10 -44 -14 q-7 -3 -9 -2 q-2 2 -5 8 q-4 5 0 6 q5 0 57 14 q0 4 -1 10 q0 7 -1 10 q-2 3 -5 5 q0 0 -1 1 q-1 2 0 3 q2 0 7 2 q5 1 13 -4 q9 -6 7 -10 q-1 -6 -1 -13 q23 6 25 8 q4 3 10 -3 q8 -6 6 -9 q-2 -2 -8 -2 q-4 2 -33 -6 q0 -30 1 -51 q6 1 17 4 q21 4 20 5 q1 2 12 -3 q-11 6 2 -1 q0 0 1 -1 q10 -7 9 -11 q0 0 -1 -2 q-3 -6 -7 -3 q-3 1 -9 3 q-4 1 -6 2 q-9 2 -38 -3 q0 -60 -2 -75 q0 -1 -1 -4 q-2 -16 -9 -21 q-3 1 -3 9 q-2 17 -2 38 q0 28 0 49 q-54 -11 -73 -17 q-20 -5 -23 -7 q-3 -1 -4 1 q-1 3 -3 8 q-1 2 -1 3 q0 2 2 2 q1 0 61 12 q-2 2 -2 4 q0 1 -1 6 q-1 4 -1 6 q-3 10 -6 13 q-3 6 -4 6 q-3 2 -1 3 q1 2 4 2 q2 2 9 0 q8 -2 9 -5 q0 -4 3 -17 q1 -6 1 -15 Z" /><glyph glyph-name="uni5E78" unicode="&#x5e78;" d="M159 89 q5 -4 4 -9 q-1 -4 -4 -4 q-1 0 -2 0 q-4 1 -6 0 q-6 0 -24 -3 q9 -6 8 -9 q0 -3 0 -12 q34 5 37 7 q5 3 12 -3 q9 -7 6 -10 q-2 -4 -4 -4 q-3 2 -11 3 q-9 2 -40 -3 q0 -40 -1 -54 q-3 -15 -7 -21 q-2 -3 -4 -3 q-1 0 -1 2 q-3 3 -3 19 q-1 15 -1 54 q-3 0 -8 -1 q-19 -3 -33 -7 q-4 -1 -9 -3 q-4 -1 -6 -2 q-3 0 -4 1 q-1 3 -4 8 q-3 6 1 6 q0 0 14 2 q27 3 49 6 q0 9 -3 14 q-3 4 -1 7 q-12 -3 -15 -5 q-2 0 -5 -2 q-2 -1 -3 -1 q-2 -1 -5 2 q0 1 -2 4 q-1 4 -2 6 q-3 6 1 6 q20 2 40 6 q0 1 1 4 q2 1 6 8 q2 4 3 5 q7 13 7 22 q-1 3 2 5 q1 0 3 0 q2 1 4 1 q3 0 6 -6 q5 -7 2 -12 q-7 -11 -23 -25 q1 0 3 0 q5 1 14 4 q1 2 8 -3 ZM223 146 q4 -4 4 -9 q0 0 0 -2 q-3 -4 -6 -3 q-3 2 -17 3 q-69 0 -163 -23 q-9 -2 -11 -4 q-2 0 -4 3 q-1 4 -3 10 q-1 3 -1 3 q0 3 2 2 q49 5 97 12 q0 2 0 6 q0 7 -1 16 q-12 -4 -19 -6 q-6 -3 -8 -1 q-1 1 -6 10 q-4 9 -3 10 q1 1 6 1 q3 1 5 1 q4 0 15 1 q6 1 9 1 q-1 16 -4 22 q-3 6 -5 8 q-1 3 2 3 q2 2 7 3 q0 0 2 0 q2 0 8 -4 q-5 4 2 -1 q7 -6 7 -11 q0 -2 0 -6 q-1 -6 -1 -10 q15 5 17 6 q3 3 8 -1 q5 -4 4 -7 q-1 -3 -8 -6 q-1 0 -3 -1 q-4 -2 -18 -7 q-1 -14 -3 -19 q-1 -4 -3 -7 q16 2 48 8 q21 3 31 5 q6 2 13 -6 ZM105 113 q3 -6 6 -11 q3 -6 2 -11 q-1 -3 -9 2 q-9 7 -14 20 q-1 2 -2 3 q-1 3 2 3 q4 0 10 0 q4 -1 5 -6 Z" /><glyph glyph-name="uni5EFA" unicode="&#x5efa;" d="M142 147 l15 3 q3 8 6 20 q-4 -1 -15 -3 q-4 -1 -6 -2 l0 -18 ZM132 16 q-4 3 -5 6 q-1 5 0 7 q0 3 0 27 q-22 -6 -24 -7 q-1 0 -3 2 q-1 1 -2 2 q-2 2 -3 2 q-1 3 2 3 q1 1 13 4 q10 2 17 4 l0 15 q-6 -2 -13 -4 q-4 -1 -4 -1 q-2 -1 -5 2 q-1 1 -3 3 q-2 1 -2 1 q-1 2 1 2 q2 1 17 5 q5 1 8 2 l0 18 q-17 -6 -20 -6 q-3 -1 -5 2 q0 1 -1 2 q-1 2 -2 2 q-1 3 3 3 q4 0 25 6 l0 16 q-16 -4 -21 -6 q-5 -1 -8 -4 q-2 -1 -5 3 q0 1 -1 2 q-1 3 -2 4 q-1 1 -1 2 q0 1 2 1 q1 1 5 1 q3 1 5 1 q3 0 22 4 q-17 -4 4 1 l0 16 q-11 -1 -14 -3 q-4 0 -6 3 q0 3 -3 8 q-2 7 2 6 q2 -1 21 2 q-1 14 -3 16 q0 3 -3 5 q-1 1 -1 2 q0 0 1 1 q1 0 2 1 q2 1 4 2 q0 1 2 1 q2 0 4 -2 q4 -2 7 -5 q3 -3 3 -6 q-1 -3 -1 -12 q5 1 12 3 q4 1 6 1 q5 2 6 5 q2 3 12 -3 q1 -1 3 -2 q8 -3 9 -6 q0 -1 -3 -6 q-1 -2 -3 -6 q-4 -6 -6 -11 q27 6 28 8 q3 1 10 -5 q9 -5 6 -8 q-1 -4 -3 -3 q-1 0 -4 1 q-3 1 -6 2 q-7 2 -34 -4 q-3 -7 -6 -10 q-2 -3 -5 -1 q-4 1 -7 7 l-15 -3 l0 -15 q3 1 9 3 q10 3 13 4 q2 1 7 -2 q6 -2 5 -5 q-2 -2 -5 -2 q-3 1 -10 -1 q-1 0 -2 0 q-8 -1 -17 -6 l0 -17 q1 1 4 2 q16 6 18 7 q1 2 8 -1 q6 -2 4 -5 q-2 -3 -5 -4 q-4 -1 -29 -10 l0 -16 q30 8 32 9 q1 0 3 1 q1 0 1 0 q1 2 8 0 q2 -1 6 -3 q1 -1 2 -1 q2 -2 0 -5 q-2 -3 -4 -2 q-3 2 -13 0 q-10 -1 -35 -7 q0 -28 -1 -34 q0 -5 -1 -8 q-1 -3 -3 -4 q21 -7 48 -10 q19 -2 42 -4 q4 -1 6 -1 q10 0 10 0 q0 0 -2 0 q-6 0 -19 -5 q-1 0 -3 -1 q-10 -5 -18 -9 q-2 -1 -4 -3 q-2 -2 -4 -3 q-1 -1 -2 0 q-1 0 -1 0 q-1 0 -7 2 q-15 4 -27 7 q-5 1 -13 4 q-18 4 -23 7 q-4 1 -27 15 q-20 14 -29 18 q-2 -2 -6 -8 q2 4 -2 -2 q-16 -17 -26 -22 q-10 -6 -12 -6 q-1 2 3 4 q1 1 1 1 q5 4 18 20 q6 8 12 17 q-3 0 -4 0 q-6 0 -6 5 q-1 5 1 5 q2 1 9 0 q2 -1 4 -1 q1 0 2 0 q1 2 3 5 q1 3 2 4 q10 19 10 23 q-3 3 -6 3 q-6 2 -9 -1 q-3 -2 -8 4 q-4 7 -2 8 q1 1 4 7 q3 6 11 33 q-4 -2 -10 -4 q-5 -3 -7 -4 q-1 0 -3 -1 q-3 0 -4 -1 q-1 0 -6 10 q-5 9 -2 9 q0 0 1 0 q5 1 9 1 q8 2 18 6 q10 6 11 8 q2 3 9 -7 q7 -8 5 -15 q-1 -4 -6 -9 q-4 -3 -18 -30 q7 0 9 1 q4 1 10 -5 q4 -6 7 -12 q3 -4 -5 -22 q-4 -7 -10 -15 q2 0 5 -2 q4 -1 5 -2 q8 -3 30 -12 q8 -3 12 -5 q1 0 4 -2 q4 -1 6 -2 Z" /><glyph glyph-name="uni5F53" unicode="&#x5f53;" d="M100 180 q-4 2 2 7 q3 2 8 4 q1 1 1 1 q3 0 8 -4 q1 -1 2 -1 q9 -4 12 -9 q4 -4 4 -10 q1 -5 -2 -20 q-1 -13 -3 -25 q-2 -11 -5 -13 q-3 -3 -8 1 q-3 2 -5 6 q0 1 0 1 q-1 4 0 14 q0 9 -1 23 q0 14 -5 18 q-6 5 -8 7 ZM75 150 q8 -3 15 -13 q7 -13 6 -17 q-1 -7 -5 -9 q-5 -3 -12 7 q-9 10 -17 19 q-8 9 -8 11 q1 2 4 2 q2 1 3 1 q6 0 14 -1 ZM166 183 q0 2 6 3 q8 0 11 -1 q5 -3 9 -17 q5 -13 2 -18 q-4 -4 -15 -11 q-3 -2 -8 -4 q-8 -5 -12 -7 q-9 -4 -10 2 q0 6 3 11 q3 4 12 13 q8 9 5 18 q-1 9 -3 11 ZM64 94 q1 0 6 1 q16 3 30 5 q33 6 53 11 q21 6 24 9 q5 3 15 -10 q9 -10 9 -15 q0 -2 -1 -2 q-3 -4 -31 -69 q6 1 9 -2 q4 -4 5 -12 q1 -7 -8 -5 q-8 2 -32 0 q-24 0 -52 -5 q-29 -6 -29 -6 q-5 2 -7 10 q-1 1 -1 2 q0 2 2 2 q1 0 30 4 q38 6 66 10 q-1 8 0 14 q1 6 10 33 q2 7 5 17 q3 10 3 12 q0 3 -5 2 q-6 0 -43 -9 q-37 -7 -43 -9 q-5 -2 -7 -2 q-3 -1 -4 3 q-1 2 -3 5 q-1 1 -1 2 q-3 4 0 4 ZM65 49 q-3 4 6 4 q9 1 32 7 q22 6 28 9 q5 3 12 -4 q7 -7 4 -9 q-2 -3 -11 -3 q-1 0 -5 -1 q-2 0 -20 -4 q-6 -2 -16 -4 q-7 -3 -9 -3 q-8 -3 -11 -3 q-3 -1 -6 3 q-1 2 -3 6 q-1 1 -1 2 Z" /><glyph glyph-name="uni5F71" unicode="&#x5f71;" d="M136 61 q5 -5 2 -8 q-1 -1 -3 -1 q-3 -1 -4 -1 q-12 -2 -26 -5 q-18 -5 -28 -9 q-3 -1 -4 1 q-3 3 -3 4 q-1 3 0 4 q2 0 5 1 q2 0 3 0 q-6 17 -15 31 q0 2 1 2 q2 2 9 0 q6 -3 8 -9 q0 -1 1 -2 q1 -9 4 -13 q1 -4 1 -6 q5 1 16 4 q7 2 10 3 q0 3 1 5 q1 2 3 7 q5 12 6 15 q-2 -1 -7 -3 q-14 -5 -21 -9 q-4 -2 -7 1 q-1 1 -2 3 q-2 2 -3 3 q-2 4 2 5 q4 0 12 2 q4 1 6 1 q16 4 22 9 q4 3 13 -6 q9 -10 3 -13 q-8 -4 -15 -15 q1 0 2 1 q1 0 1 0 q4 3 7 -2 ZM200 35 q13 15 13 24 q0 9 -1 13 q-1 5 1 5 q1 0 7 0 q4 0 10 -10 q4 -5 4 -11 q0 -3 -2 -8 q-5 -10 -22 -26 q-17 -15 -35 -26 q-18 -12 -31 -16 q-9 -3 -10 -3 q-1 0 0 1 q2 1 10 8 q10 9 18 14 q25 19 38 35 ZM117 202 q4 0 12 -5 q12 -7 11 -12 q-1 -4 -3 -9 q-2 -3 -6 -18 q3 13 -1 -4 q-4 -17 -9 -22 q-3 -3 -5 -2 q-2 1 -3 5 q-3 9 0 15 q3 8 5 21 q1 13 -1 16 q-2 2 -11 -1 q-10 -4 -26 -10 q-1 0 -3 2 q-3 4 -4 8 q-2 4 1 4 q15 1 36 9 q3 2 7 3 ZM89 126 q1 1 4 1 q9 0 13 -6 q2 -5 1 -8 q16 4 32 10 q3 2 7 -4 q4 -5 4 -8 q-1 -1 -6 -1 q-6 2 -39 -8 q-6 -2 -16 -5 q-25 -7 -35 -10 q-20 -6 -22 -8 q-3 -1 -4 2 q-3 4 -4 8 q0 2 0 2 q0 3 2 3 q4 1 12 2 q38 8 57 13 q-2 3 -5 9 q-1 3 -1 8 ZM180 155 q11 12 12 19 q2 8 0 12 q-2 2 -1 4 q0 1 2 1 q4 2 10 0 q6 0 13 -13 q8 -14 6 -17 q-3 -4 -22 -16 q-5 -3 -13 -7 q-6 -4 -13 -7 q-5 -4 -9 -2 q-2 3 1 8 q3 6 14 18 ZM75 129 q-3 -2 -5 1 q0 1 -3 8 q-3 5 -4 8 q-4 15 -9 20 q-3 6 -1 14 q3 9 7 5 q4 -3 7 -11 q1 -3 3 -7 q2 -6 3 -9 q24 7 25 10 q1 3 7 -1 q6 -4 5 -8 q-3 -3 -6 -3 q-2 0 -8 -1 q-3 -1 -5 -1 q-2 -1 -5 -2 q-2 -1 -5 -2 q-4 0 -6 1 q2 -4 4 -14 q0 -1 0 -2 q15 3 20 7 q2 3 6 -2 q4 -5 4 -8 q-1 -2 -4 -2 q-3 2 -9 -1 q-4 -1 -8 -3 q-3 -2 -5 -2 q-3 0 -4 3 q0 1 -1 2 q0 1 -1 1 q-1 -1 -2 -1 ZM199 115 q0 1 1 2 q1 5 0 9 q0 3 2 3 q3 0 8 -3 q6 -3 9 -13 q1 -9 -11 -19 q-2 -2 -7 -4 q-6 -5 -16 -11 q-10 -6 -16 -6 q-6 0 -4 3 q2 3 17 18 q15 15 17 21 ZM106 -25 q-1 -1 -2 -2 q-2 -2 -5 -2 q-5 1 -5 7 q0 6 -4 11 q-5 4 -5 6 q-1 2 1 2 l6 0 q3 0 4 1 q2 1 3 16 q0 21 -1 22 q-1 5 0 6 q1 1 7 -2 q7 -3 7 -7 q1 -1 0 -6 q0 -4 0 -6 q-1 -6 -1 -22 q0 -11 -1 -14 q0 -2 -3 -8 q-1 -1 -1 -2 ZM134 18 q-6 9 -9 10 q-4 2 -5 3 q-1 2 2 3 q1 1 5 1 q3 1 5 1 q5 0 13 -7 q8 -8 7 -13 q0 0 0 -2 q-2 -5 -4 -7 q-2 -3 -5 -1 q-3 5 -9 12 ZM73 11 q-1 -9 -1 -13 q0 -5 -4 -6 q-3 -1 -7 4 q-3 4 -3 12 q0 9 4 13 q2 2 7 4 q1 1 1 1 q5 1 5 -1 q0 -1 -1 -7 q-1 -4 -1 -7 Z" /><glyph glyph-name="uni5FC3" unicode="&#x5fc3;" d="M44 57 q-2 -11 -8 -13 q-4 0 -8 6 q-3 10 -2 21 l1 4 q3 13 8 19 q6 9 9 8 q4 1 4 -2 q0 -1 0 -3 q2 -8 1 -14 q-2 -12 -5 -26 ZM144 132 q15 4 17 4 q2 1 1 -2 q-1 -2 -9 -8 q-6 -5 -6 -10 q0 -5 0 -8 q4 -17 0 -19 q-4 -1 -12 5 q-8 6 -9 18 q-1 13 0 18 q3 6 8 10 q5 4 6 4 q0 0 1 -1 q0 -2 3 -11 ZM206 116 q-3 3 -8 8 q-2 2 -3 3 q-2 1 -4 3 q-2 2 -4 3 q-2 3 0 4 q1 1 4 1 q2 1 4 1 q6 2 17 -3 q10 -4 16 -12 q4 -6 4 -11 q1 -1 0 -7 q0 -1 0 -2 q-1 -7 -5 -7 q-6 3 -9 7 q-6 6 -12 12 ZM157 47 q22 -3 29 0 q3 1 2 10 q-1 8 -1 16 q-2 8 1 6 q1 -1 3 -4 q3 -5 5 -9 q8 -14 12 -17 q1 -1 5 -3 q10 -7 9 -10 q0 -7 -19 -10 q-33 -3 -54 2 q-27 7 -46 29 q-18 21 -22 44 q-5 19 -5 28 q1 5 2 1 q1 -1 4 -10 q4 -9 6 -15 q8 -21 27 -38 q18 -17 42 -20 Z" /><glyph glyph-name="uni6211" unicode="&#x6211;" d="M89 139 q12 -2 13 -8 q2 -4 2 -15 l34 10 q-4 24 -6 46 q-3 21 -6 25 q-4 3 -1 7 q3 3 5 2 q0 0 1 0 q3 0 9 -5 q7 -4 7 -21 q-1 -15 5 -50 q23 6 25 9 q3 2 12 -3 q10 -4 10 -10 q-1 -5 -3 -5 q-2 0 -8 1 q-5 0 -34 -4 q3 -26 11 -44 q2 4 6 11 q3 6 6 11 q1 6 1 9 q-1 3 0 5 q0 1 6 1 q3 0 8 -9 q4 -9 4 -12 q0 -3 -18 -22 q-5 -5 -7 -7 q14 -28 23 -42 q10 -13 13 -15 q2 -1 5 5 q3 6 7 11 q2 4 3 2 q1 -3 1 -9 q2 -13 6 -24 q3 -6 3 -10 q0 -3 -3 -5 q0 0 -1 0 q-7 0 -24 13 q-20 15 -44 64 q-11 -9 -20 -17 q-2 -1 -5 -3 q-4 -3 -8 -6 q-4 -1 -3 0 q0 2 3 6 q1 1 2 2 q5 5 26 30 q-9 21 -14 51 q-18 -4 -36 -10 q0 -3 1 -7 q0 -4 0 -5 q9 7 9 4 q0 -3 -9 -15 q2 -34 0 -52 q-2 -19 -7 -29 q-6 -10 -12 -10 q-6 1 -9 8 q-4 9 -7 11 q-4 4 -2 4 q3 0 9 0 q5 0 8 0 q1 1 3 12 q-2 -10 1 3 q3 15 2 36 q-35 -33 -38 -40 q-5 -7 -8 -5 q-3 2 -7 9 q-1 1 -1 2 q-3 8 -1 9 q2 1 16 12 q21 17 38 30 q0 3 -1 8 q0 6 -1 9 q-46 -18 -48 -21 q-3 -3 -6 -1 q-5 2 -8 7 q-2 5 -2 6 q0 1 0 1 q1 1 6 3 q3 0 5 1 q2 1 12 4 q23 7 40 13 q-1 9 -3 13 q-2 6 -3 6 q-1 2 0 6 q-12 -4 -16 -4 q-4 0 -3 3 q2 3 17 18 q6 7 13 15 q3 3 3 3 q2 3 6 1 q4 -2 10 -8 q4 -7 4 -10 q-8 -6 -27 -15 ZM175 168 q-5 5 -12 10 q-3 3 -3 3 q-1 1 -1 1 q0 1 2 2 q1 1 5 1 q2 1 4 1 q7 3 17 -3 q9 -6 10 -13 q2 -6 0 -11 q-2 -6 -5 -4 q-1 1 -10 7 q-4 4 -7 6 Z" /><glyph glyph-name="uni6216" unicode="&#x6216;" d="M109 189 q-6 3 -2 6 q3 3 9 6 q0 0 2 0 q4 0 10 -4 q8 -6 8 -14 q0 -3 1 -8 q1 -11 2 -16 q6 2 12 5 q3 2 10 -5 q9 -7 6 -11 q-1 -1 -5 -2 q-4 -2 -7 -3 q-6 -1 -12 -3 q7 -37 22 -71 q2 -2 2 -4 q9 18 15 35 q0 1 1 3 q7 21 6 24 q-2 4 1 4 q3 1 5 1 q1 0 4 -4 q1 -2 2 -3 q4 -7 3 -14 q-1 -2 -3 -6 q-5 -10 -8 -18 q-7 -19 -18 -37 q20 -31 39 -46 q12 -7 21 4 q10 13 10 8 q0 -3 -2 -13 q-1 -4 -2 -6 q-4 -14 -1 -20 q3 -5 -2 -9 q-1 -1 -3 -1 q-5 0 -17 9 q-34 28 -53 59 q-20 -30 -43 -40 q-7 -4 -8 -2 q0 1 7 7 q21 17 37 47 q0 1 -1 2 q0 2 -1 2 q-17 35 -27 84 q-6 -1 -18 -5 q-7 -2 -11 -3 q-3 -1 -8 -3 q-4 -1 -8 -3 q-3 -2 -6 5 q-3 4 -5 10 q-3 7 0 7 q16 2 21 4 q17 3 30 7 q0 4 -2 11 q-1 8 -2 11 q-5 11 -11 13 ZM120 103 q11 -9 6 -14 q-5 -4 -13 -18 q10 -6 9 -9 q1 -4 -4 -5 q-4 0 -12 0 q-8 2 -32 -6 q2 -9 0 -12 q0 -1 -5 -3 q-6 2 -7 7 q-2 7 -2 10 q0 1 -1 4 q-2 8 -4 13 q-2 7 -7 18 q-1 2 -1 3 q-4 8 -1 9 q3 2 8 1 q2 0 9 -6 q2 -1 3 -2 q23 7 41 17 q1 2 13 -7 ZM82 28 q45 12 47 14 q2 2 8 -3 q6 -4 3 -7 q-3 -3 -7 -4 q-6 0 -30 -6 q-24 -6 -42 -14 q-18 -8 -5 -2 q-13 -6 -15 -6 q-2 0 -5 2 q0 1 -1 2 q-1 1 -3 6 q-1 1 -1 3 q0 3 3 3 q5 2 48 12 ZM68 83 q0 -2 2 -7 q2 -8 3 -14 l27 7 q-3 5 -2 11 q0 3 4 13 q1 1 1 2 l-35 -12 ZM158 179 q-12 10 -11 10 q1 2 8 3 q6 2 11 0 q3 0 11 -9 q7 -8 4 -14 q-3 -7 -8 -3 q-4 5 -15 13 Z" /><glyph glyph-name="uni627E" unicode="&#x627e;" d="M76 120 q-5 -2 -12 -5 q-7 -3 -9 -4 q-6 -4 -9 -2 q-1 1 -5 6 q-2 3 -3 5 q-1 1 -2 3 q-3 5 -3 6 q2 3 5 1 q4 -1 17 2 q11 2 22 7 q0 9 1 15 q1 25 -2 31 q-4 5 -4 6 q-1 0 6 2 q6 3 12 -3 q5 -6 4 -13 q-3 -4 -4 -31 q5 2 6 3 q2 3 9 -5 q7 -7 1 -10 q-5 -2 -17 -8 l0 -2 q0 -5 -1 -15 q0 -8 0 -12 q7 6 13 8 q3 1 3 0 q0 -1 -3 -4 q-3 -3 -13 -13 q-1 -20 0 -32 q0 -10 1 -23 q0 -5 0 -6 q0 -7 -5 -21 q-5 -12 -9 -11 q-5 0 -4 3 q0 2 -1 10 q0 8 -7 14 q-3 3 -6 6 q-2 1 -2 1 q-2 2 1 2 q4 0 11 0 q3 0 6 1 q1 0 1 0 q1 1 1 23 q1 13 1 22 q-3 -1 -4 -3 q-23 -20 -29 -29 q-6 -9 -12 -11 q-4 -2 -9 10 q-3 7 -3 10 q0 3 1 2 q1 1 2 1 q2 1 3 1 q2 0 23 13 q3 3 5 4 q5 3 14 9 q6 4 9 6 q0 17 0 30 ZM157 136 q1 0 4 2 q4 1 6 2 q7 4 15 8 q5 3 5 3 q1 1 10 -2 q8 -4 8 -10 q0 -5 -2 -5 q-3 0 -13 -1 q-10 0 -28 -8 q0 -1 -2 -1 q2 -4 4 -14 q5 -14 8 -21 q1 -1 1 -2 q1 -2 1 -3 q12 14 15 24 q5 11 3 14 q-1 2 0 2 q2 0 4 0 q3 0 7 -6 q4 -6 -2 -18 q-6 -13 -21 -28 q0 0 0 -1 q9 -21 21 -35 q14 -18 17 -20 q1 0 8 7 q7 9 10 11 q2 2 2 1 q1 -1 0 -4 q0 -2 -1 -5 q-1 -6 -2 -10 q-1 -6 3 -16 q3 -4 3 -10 q0 -9 -5 -9 q-7 4 -18 15 q-9 6 -25 25 q-3 4 -5 6 q-9 13 -19 34 q-12 -9 -27 -17 q-23 -12 -29 -11 q0 0 -1 0 q-4 1 0 3 q6 1 26 17 q6 4 17 13 q6 5 9 7 q-1 1 -2 4 q-1 3 -3 9 q-4 10 -10 28 q-1 3 -1 4 q-7 -3 -11 -6 q-9 -4 -10 -7 q-3 -2 -9 5 q-6 8 -6 10 q0 3 2 3 q3 0 18 4 q2 1 6 2 q4 2 6 2 q0 2 -1 5 q-2 7 -4 17 q-5 29 -7 36 q-3 7 -6 10 q-3 2 2 5 q4 3 7 2 q0 0 1 0 q3 0 9 -7 q8 -6 6 -15 q-1 -9 3 -35 q1 -2 2 -6 q1 -5 1 -7 ZM186 179 q-2 2 -4 4 q-1 2 -4 4 q-3 2 0 2 q4 1 10 1 q7 0 17 -6 q9 -6 9 -17 q0 -9 -4 -11 q-4 -2 -12 7 q-3 4 -9 12 q-2 3 -3 4 Z" /><glyph glyph-name="uni62B1" unicode="&#x62b1;" d="M82 100 q14 9 18 11 q2 1 2 0 q0 -1 -2 -3 q-2 -2 -6 -5 q-8 -8 -13 -13 q0 -58 0 -69 q1 -10 -2 -18 q-1 -1 -3 -3 q-5 -5 -7 -7 q-6 -4 -7 -4 q-1 0 -2 1 q-1 1 -1 5 q-1 3 -1 5 q0 6 -6 15 q-1 2 -3 5 q-3 5 -4 5 q-2 2 4 0 q2 -1 5 -1 q4 -1 6 -1 q6 0 7 1 q0 0 0 3 q1 24 2 51 q-33 -30 -37 -35 q-4 -4 -6 -1 q-1 1 -5 7 q-1 3 -2 4 q-3 6 -3 8 q1 1 1 1 q4 0 16 8 q6 3 22 14 q10 6 15 9 q0 7 1 18 q0 8 0 11 q-6 -3 -15 -7 q-7 -4 -8 -5 q-3 -3 -8 12 q-4 15 -3 15 q3 0 35 11 q1 21 -3 31 q-5 8 -8 9 q-3 3 0 5 q1 1 4 1 q3 1 4 1 q0 0 1 0 q5 0 11 -7 q7 -7 7 -12 q-1 -1 -1 -11 q-1 -8 -1 -12 q5 2 6 3 q1 2 7 -6 q5 -7 2 -11 q-3 -3 -18 -11 q-1 -15 -1 -28 ZM145 85 q-1 5 0 6 q2 3 9 19 q-4 2 -11 -3 q-2 -1 -6 -3 q-2 -1 -3 -1 q-2 -1 -5 6 q-3 7 0 7 q0 0 3 1 q5 2 10 3 q2 0 5 1 q7 2 9 3 q3 3 11 -4 q9 -8 7 -10 q-2 -1 -11 -15 q-6 -9 -9 -12 q8 -6 6 -9 q-1 -2 -4 -2 q-3 0 -8 0 q-5 0 -14 -3 q-9 -1 -11 -3 q-1 0 -3 1 q-2 -10 -2 -19 q0 -10 5 -17 q7 -7 25 -8 q20 0 39 4 q21 4 22 7 q3 3 4 11 q2 9 3 14 q0 3 1 3 q1 0 2 -3 q2 -5 3 -11 q2 -6 8 -9 q6 -3 8 -9 q2 -3 2 -5 q0 0 0 -1 q-1 -1 -1 -2 q-3 -3 -16 -7 q-12 -4 -34 -7 q-21 -2 -44 1 q-22 3 -30 15 q-8 11 -8 24 q0 2 1 5 q0 7 3 24 q4 18 4 24 q0 7 -2 10 q-1 2 0 3 q1 0 4 1 q3 0 8 -5 q4 -3 6 -7 q0 -1 -1 -3 q-1 -2 -1 -3 q-3 -4 -7 -21 q3 2 9 3 q12 5 14 6 ZM196 145 q-7 2 -20 -3 q-14 -3 -17 -6 q-2 -1 -5 5 q-3 7 -1 7 q0 0 4 1 q8 2 15 3 q16 4 22 4 q6 1 9 4 q3 2 11 -7 q6 -7 6 -13 q-2 -4 -7 -31 q-6 -27 -9 -33 q-3 -6 -13 -15 q-9 -10 -16 -10 q-7 1 -6 5 q0 4 0 10 q-1 6 -4 12 q-3 4 0 4 q1 0 3 -1 q4 -1 7 -2 q5 -1 8 0 q2 2 5 9 q5 6 8 29 q3 23 0 28 ZM140 168 q0 8 -1 12 q-1 6 -4 7 q-1 2 2 3 q2 0 7 0 q5 0 12 -10 q7 -9 7 -14 q0 -3 -9 -13 q-6 -6 -21 -18 q12 8 -2 -2 q-15 -9 -18 -9 q-1 0 -1 1 q0 1 1 2 q1 1 6 7 q5 7 9 12 q1 2 3 5 q10 14 9 17 Z" /><glyph glyph-name="uni62E5" unicode="&#x62e5;" d="M118 76 q0 20 0 36 q1 17 -2 20 q-1 3 -3 5 q-2 2 1 4 q3 2 7 0 q5 -1 8 -6 q3 -3 3 -15 q0 -12 0 -35 q0 -22 -6 -45 q-6 -22 -12 -36 q-4 -6 -9 -11 q-3 -1 -1 2 q1 1 2 5 q1 4 2 6 q4 11 7 30 q3 21 3 40 ZM223 158 q1 -2 1 -5 q0 -3 -1 -8 q-3 -7 -2 -51 q0 -43 2 -59 q0 -3 0 -6 q0 -12 -5 -25 q-7 -14 -12 -14 q-5 2 -8 13 q-3 14 -10 15 q-1 0 -3 1 q-5 1 -6 2 q-2 1 -1 1 q1 1 4 1 q2 0 6 0 q6 1 9 1 q8 2 9 3 q0 2 0 33 q-1 32 -1 63 q0 33 -2 33 q-2 2 -6 0 q-5 0 -26 -6 q-8 -2 -18 -5 q-5 -1 -6 -1 q-3 -1 -4 1 q-1 3 -3 8 q-1 5 2 5 q1 0 6 1 q4 1 6 1 q3 0 11 2 q11 2 18 3 q13 2 21 6 q1 3 10 -3 q8 -5 9 -10 ZM158 102 q-9 -5 -12 -5 q-2 -1 -2 1 q-1 1 -2 4 q-1 2 -2 4 q-3 6 0 6 q2 0 18 6 q0 2 -1 5 q0 4 -1 5 q0 4 -3 5 q-2 0 1 3 q3 3 5 3 q3 2 7 -3 q5 -3 5 -5 q1 -2 1 -8 q9 5 12 5 q2 0 5 -4 q3 -3 1 -6 q-1 -3 -18 -11 l0 -23 q18 5 19 6 q1 1 6 -3 q6 -6 4 -9 q-3 -4 -3 -4 q-1 1 -4 1 q1 0 -2 1 q-5 1 -20 -2 q-1 -42 -3 -51 q-3 -10 -5 -13 q-4 -2 -5 2 q0 1 0 5 q-1 9 -1 15 q0 15 0 38 q-4 -1 -9 -3 q-3 -1 -4 -1 q-4 -3 -6 -3 q-1 0 -3 2 q-1 3 -3 6 q-1 2 -1 2 q1 1 2 1 q0 0 4 1 q11 3 20 5 l0 22 ZM70 122 q-21 -7 -24 -9 q-3 -2 -6 1 q-1 1 -4 5 q-2 3 -3 5 q-4 8 0 9 q5 0 15 3 q10 2 22 7 q1 33 -2 39 q-2 7 -5 10 q-2 4 1 4 q2 0 4 1 q3 0 4 0 l1 0 q4 0 10 -7 q5 -6 5 -11 q-1 -2 -1 -10 q-1 -12 -2 -20 q3 2 6 2 q4 0 8 -5 q3 -5 2 -8 q-1 -1 -16 -9 l-1 -35 q14 7 15 7 q2 0 -3 -4 q-1 -2 -7 -7 q-3 -3 -5 -5 q1 -26 2 -58 q0 -15 0 -18 q0 -8 -10 -23 q-5 -9 -8 -8 q-3 -1 -6 8 q-3 15 -10 21 q-2 2 -5 5 q-3 3 -4 3 q-2 2 -1 2 q1 1 5 1 q2 -1 7 -1 q5 -1 7 -1 q8 0 9 2 q2 1 0 56 q-36 -25 -41 -34 q-5 -9 -9 -6 q-5 3 -8 12 q0 2 -1 4 q-1 2 -1 4 q0 4 3 4 q3 3 57 30 l0 34 Z" /><glyph glyph-name="uni6444" unicode="&#x6444;" d="M175 46 q2 -3 5 -6 q8 13 12 28 q-3 -1 -9 -3 q-3 -2 -5 -3 q-8 -4 -10 -4 q-2 0 -5 7 q-3 7 -1 7 q1 0 4 1 q5 1 8 1 q-6 7 -4 11 q1 2 1 8 q1 5 1 8 q-15 -3 -34 -10 q-22 -7 -26 -10 q-3 -3 -6 5 q-3 8 -1 8 q0 0 3 1 q8 2 15 3 q6 2 14 3 q-3 6 -3 9 q0 4 0 14 q0 10 0 20 q0 5 -1 11 q0 2 0 3 q0 1 -1 2 q-1 1 -1 2 q-1 1 2 1 q2 1 5 -2 q4 -3 4 -7 q0 0 0 -2 q1 -2 1 -3 q9 2 12 3 q3 3 4 4 q2 1 6 -2 q3 -2 2 -4 q-1 -1 -9 -6 q-4 -1 -8 -4 q-1 -1 -2 -1 q-2 0 -5 4 q0 -5 1 -14 l0 -2 q14 5 15 6 q2 3 6 -1 q5 -4 3 -7 q-1 -2 -4 -2 q-3 0 -8 -1 q-5 -1 -8 -3 q-1 0 -3 -1 q-1 0 -1 0 q0 -10 -1 -14 q0 0 0 -2 q11 4 26 7 q2 1 3 1 q0 18 0 35 q-2 18 -3 21 q-1 2 -2 4 q-1 2 -1 2 q0 0 4 2 q5 1 8 -2 q1 -1 4 -5 q-1 2 1 -2 q2 -4 2 -12 l0 -40 q4 1 9 3 q5 1 6 2 q2 2 8 -4 q6 -6 5 -9 q0 -4 -3 -3 q-1 1 -4 1 q-2 1 -3 1 q-2 0 -9 -1 q-6 -1 -9 -1 q-1 -7 -1 -13 q-1 -9 -3 -13 q7 2 11 3 q4 2 7 5 q1 2 7 -4 q0 0 1 -1 q4 -6 3 -9 q-1 -1 -6 -12 q-2 -5 -3 -7 q-4 -9 -12 -19 q12 -10 26 -18 q15 -9 26 -13 q7 -1 7 -1 q0 -1 -2 -1 q-7 0 -15 -1 q-8 -2 -14 -3 q-2 -1 -5 -1 q-1 -1 -2 -1 q-2 -2 -5 0 q-3 1 -11 8 q-9 9 -16 18 q-17 -18 -29 -22 q-14 -9 -20 -10 q-4 -1 -4 0 q0 1 2 3 q2 2 8 6 q6 4 9 5 q12 9 26 26 q2 2 2 2 q-4 6 -7 12 q-8 11 -11 11 q-4 1 -4 7 q1 5 4 4 q3 0 8 -4 q2 -1 7 -7 q4 -4 6 -6 ZM67 118 q-12 -6 -19 -8 q-6 -1 -7 0 q-1 2 -6 9 q0 1 -1 2 q-4 5 -4 8 q0 3 5 3 q3 0 11 1 q-5 -1 2 1 q7 3 19 6 q0 36 -1 43 q-1 3 -3 8 q-1 1 -1 1 q-1 2 2 4 q1 0 3 0 q2 1 4 1 q4 1 9 -6 q0 -1 0 -1 q4 -9 4 -13 q-1 -2 -1 -15 q-1 -9 -1 -15 q3 2 6 3 q3 2 3 2 q3 0 9 -4 q7 -4 3 -8 q-3 -3 -20 -14 l-1 -27 q16 12 19 14 q3 1 -1 -5 q-2 -2 -9 -11 q-6 -7 -9 -11 q0 -43 0 -55 q0 -16 1 -21 q0 -9 -4 -24 q-5 -16 -11 -16 q-7 2 -8 11 q-1 9 -5 16 q-1 1 -2 2 q-2 3 -6 7 q-3 3 1 2 q1 0 5 0 q4 -1 6 -1 q5 -1 7 0 q2 3 1 64 q-23 -23 -29 -32 q-5 -7 -8 -9 q-4 0 -9 11 q-5 11 -5 14 q0 2 6 4 q5 3 45 31 l0 28 ZM108 40 q2 0 7 -2 q4 -1 6 -1 q1 4 6 12 q4 8 6 13 q-13 -3 -19 -6 q-2 -1 -6 -3 q-2 -1 -3 -2 q-3 -1 -5 6 q-3 9 -1 8 q1 0 5 1 q7 2 11 3 q6 2 14 4 q3 1 4 1 q3 1 4 4 q2 2 8 -4 q6 -7 4 -11 q-2 -5 -11 -20 q-3 -4 -6 -10 q4 -3 7 -4 q0 0 0 -1 q3 -4 3 -10 q1 -9 -2 -10 q-2 -1 -5 2 q-2 5 -8 9 q0 1 -2 2 q-1 1 -2 1 q-3 -5 -5 -8 q-8 -9 -18 -17 q-1 0 -1 0 q-2 -1 -6 -3 q-4 -1 -6 -2 q-3 0 3 6 q8 4 18 19 q1 1 2 3 q1 2 5 7 q-1 0 -1 1 q-1 1 -4 1 q-2 1 -6 3 q-4 4 -7 4 q-3 1 -3 4 q-1 2 -1 2 q1 1 2 1 q4 0 13 -3 ZM149 185 q13 1 25 4 q12 2 13 4 q2 3 9 -3 q6 -5 5 -8 q0 -3 -6 -3 q-6 2 -22 -3 q-7 -1 -18 -4 q-4 -1 -6 -1 q-3 -1 -7 -2 q-3 0 -3 -1 q-2 -1 -5 6 q3 -7 0 1 q-3 9 0 8 q0 0 3 0 q7 1 12 2 Z" /><glyph glyph-name="uni65E0" unicode="&#x65e0;" d="M151 192 q0 1 2 1 q2 0 9 -5 q1 -1 2 -2 q8 -9 0 -12 q-2 -1 -9 -3 q-14 -5 -23 -8 q-8 -2 -20 -6 q-8 -2 -10 -3 q-6 -1 -8 3 q-1 6 -4 13 q-2 9 1 8 q3 0 30 5 q26 6 30 9 ZM130 79 q3 13 3 16 q0 1 -1 3 q0 1 0 1 q0 2 5 2 q3 2 9 -6 q5 -6 5 -9 q1 -3 -3 -5 q-3 -1 -6 -12 q0 -1 -1 -3 q-4 -14 -5 -24 q-2 -16 10 -22 q14 -6 36 -3 q23 2 26 3 q4 3 7 13 q1 2 2 6 q1 5 3 12 q0 3 1 3 q1 0 2 -3 q3 -8 5 -13 q2 -6 4 -8 q3 -1 6 -3 q3 -1 6 -7 q0 -3 0 -4 q0 -3 -3 -6 q-2 -2 -13 -6 q-3 0 -5 -1 q-12 -3 -32 -3 q-4 0 -10 0 q-28 0 -44 11 q-15 11 -13 32 q1 21 6 36 ZM126 123 q10 2 19 5 q33 9 35 11 q2 2 9 -5 q8 -6 7 -11 q-1 -4 -3 -3 q-1 0 -3 0 q-3 1 -5 1 q-7 2 -40 -5 q-4 -1 -11 -2 q-8 -2 -12 -3 q-1 -2 -2 -6 q-1 -3 -5 -15 q-10 -27 -31 -51 q-20 -23 -28 -28 q-2 -1 -4 -2 q-4 -3 -7 -3 q-1 0 -1 0 q0 0 2 3 q3 5 21 27 q17 23 29 50 q2 4 5 10 q2 7 4 10 q-9 -2 -17 -5 q-24 -8 -29 -11 q-4 -1 -6 -3 q-2 0 -7 8 q-4 6 -4 7 q0 1 1 1 q0 0 9 2 q15 3 27 6 q5 1 15 4 q10 2 15 3 q1 2 1 4 q1 3 1 4 q0 12 -1 16 q-1 5 -3 6 q-2 2 4 3 q6 2 9 0 q3 -3 6 -7 q3 -4 3 -7 q0 -1 -1 -6 q-1 -4 -1 -6 q-1 0 -1 -2 Z" /><glyph glyph-name="uni65F6" unicode="&#x65f6;" d="M193 142 q2 1 4 1 q17 3 19 6 q2 2 10 -7 q6 -6 6 -10 q0 -1 0 -3 q-3 -4 -6 -3 q-3 2 -12 4 q-7 2 -21 0 q0 -12 0 -30 q0 -47 2 -69 q0 -16 0 -23 q-1 -2 -4 -9 q-2 -6 -4 -10 q-6 -15 -11 -14 q-6 0 -8 10 q-1 11 -10 19 q-7 10 -10 13 q-3 1 2 1 q6 -2 14 -2 q8 -1 11 -1 q2 0 2 15 q0 15 -1 57 q-1 22 -1 40 q-7 -1 -20 -5 q-8 -2 -12 -3 q-25 -7 -28 -9 q-4 0 -7 7 q-4 8 -2 8 q0 0 5 1 q17 3 34 6 q17 5 30 6 q0 9 0 16 q0 25 -5 31 q-1 2 -3 4 q-1 2 -3 4 q-1 1 2 4 q5 3 9 3 q3 0 12 -5 q9 -6 9 -13 q0 -4 -1 -12 q-1 -4 -1 -6 q0 -1 0 -5 q-1 -10 -1 -17 ZM79 153 q-11 -1 -19 -5 q-2 -1 -5 -2 q-3 -1 -4 -2 q-2 0 -5 7 q-3 7 0 7 q1 0 7 2 q-6 -2 7 1 q12 3 15 3 q3 2 5 3 q2 3 11 -4 q9 -9 9 -13 q0 -4 0 -44 q1 -38 -1 -64 q-1 -24 -9 -31 q-6 -6 -9 6 q-1 12 0 19 q2 6 3 24 q1 18 1 55 q-1 36 -6 38 ZM46 51 l8 4 q14 8 15 9 q2 2 8 -1 q5 -3 3 -6 q-1 -1 -8 -7 q-5 -4 -8 -7 q-11 -8 -19 -18 q-4 -8 -12 4 q-6 9 -6 12 q0 1 1 1 q1 1 3 2 q2 1 3 2 q-4 6 -3 9 q0 3 -1 20 q-1 17 0 40 q0 24 0 28 q0 3 1 3 q2 1 4 -2 q1 -1 2 -2 q3 -5 5 -8 q2 -4 0 -15 q0 -6 0 -16 q11 3 15 6 q5 4 12 -2 q6 -6 1 -9 q-5 -3 -13 -6 q-3 0 -7 -1 q-3 -1 -4 -1 q-2 0 -4 6 l0 -9 q0 -21 3 -33 l1 -3 ZM121 89 q-1 3 -3 7 q-1 4 -2 4 q0 2 2 2 q2 0 8 -1 q7 -1 11 -6 q6 -6 9 -12 q6 -9 5 -15 q0 -7 -6 -12 q-6 -5 -8 -2 q-2 3 -6 12 q3 -7 -1 3 q-1 4 -4 10 q-3 7 -5 10 Z" /><glyph glyph-name="uni6625" unicode="&#x6625;" d="M108 164 q-14 -3 -17 -3 q-3 -1 -3 1 q0 0 -1 2 q-1 1 -3 7 q-2 7 2 7 q3 0 23 4 q1 15 -2 20 q-1 1 -2 3 q-1 2 -2 3 q-1 3 0 4 q0 0 2 0 q2 1 4 1 q1 1 1 1 q4 0 10 -7 q6 -7 6 -10 q-1 -4 -1 -13 q33 6 35 9 q3 3 9 -3 q8 -5 6 -8 q-1 -3 -15 -6 q-12 -2 -37 -8 q-1 -10 -3 -19 q29 9 30 12 q2 2 9 -3 q8 -4 6 -8 q-2 -3 -5 -2 q-3 1 -43 -11 q-2 -11 -7 -23 l22 4 q0 1 -1 2 q-1 3 -4 4 q-2 3 1 4 q3 3 7 1 q3 0 11 -8 q42 8 44 9 q2 2 10 -3 q6 -4 5 -10 q-1 -6 -3 -4 q-1 2 -12 3 q-9 2 -38 -3 q36 -33 64 -45 q13 -5 29 -12 q5 -2 7 -3 q1 0 2 -1 q1 0 1 -1 q0 0 -1 0 q-5 1 -23 -2 q-18 -3 -23 -6 q-5 -3 -7 -1 q-3 2 -17 15 q-15 12 -46 53 q-23 -4 -32 -6 q-7 -14 -16 -26 q5 0 8 -4 q4 -3 4 -7 q0 -3 2 -25 q5 0 13 3 q1 0 1 0 q3 3 8 -2 q6 -5 4 -7 q-1 -3 -9 -4 q-1 0 -2 0 q-6 -2 -15 -2 q0 -14 0 -26 q5 1 12 2 q5 2 9 2 q5 2 8 -4 q2 -3 2 -4 q-1 -1 -3 -1 q-4 0 -12 -1 q-7 -2 -15 -3 q1 -9 -2 -12 q-4 -3 -8 7 q-4 10 -4 13 q0 1 0 3 q1 8 1 13 q0 6 -1 23 q-1 5 -1 8 q-1 19 -4 22 q-15 -21 -31 -37 q-16 -15 -24 -19 q-1 -1 -4 -2 q-3 -3 -4 -2 q0 1 3 4 q4 5 13 14 q11 11 27 35 q16 24 22 35 q-4 -1 -10 -2 q-20 -5 -23 -7 q-9 -1 -10 -3 q-3 0 -5 2 q-1 1 -2 4 q-1 1 -1 2 q-2 4 1 4 q1 0 20 4 q20 4 35 7 q1 1 2 4 q4 10 6 17 q-4 -1 -9 -3 q-7 -3 -10 -4 q-3 -1 -4 0 q-2 2 -5 6 q-3 3 0 4 q1 0 17 5 q9 3 14 5 q1 5 3 15 q1 3 1 4 ZM137 72 q-3 0 -8 -3 q-5 -1 -11 -4 q-1 0 -3 -1 q-1 -1 -3 -1 q-1 -1 -3 2 q0 1 -1 2 q0 1 -3 6 q-1 6 2 6 q3 0 15 3 q14 3 15 6 q3 2 12 -5 q9 -7 9 -15 q0 -8 0 -41 q0 -29 -7 -50 q-5 -12 -8 -11 q-1 0 -3 3 q-5 11 -1 20 q3 7 4 35 q0 27 -1 35 q0 3 -1 8 q0 2 0 3 q0 3 -4 2 Z" /><glyph glyph-name="uni662F" unicode="&#x662f;" d="M58 83 q-2 -2 -5 1 q-1 1 -2 4 q-1 1 -1 2 q-1 3 -1 4 q1 1 4 1 q67 10 105 20 q17 3 27 8 q3 4 12 -7 q9 -11 5 -14 q-3 -3 -6 -1 q0 0 -1 0 q-3 2 -15 4 q-14 -1 -37 -4 q-11 -1 -17 -2 q1 -1 2 -2 q1 0 3 -3 q4 -5 4 -16 l0 -6 q25 6 24 10 q1 4 8 -2 q7 -4 8 -8 q-2 -5 -7 -5 q-5 -2 -13 -3 q-8 -1 -13 -3 q-4 0 -7 4 q0 -1 0 -5 q-1 -3 -1 -5 q0 -13 -3 -23 q40 -20 69 -26 q10 -2 24 -5 q10 -1 12 -1 q1 0 2 -1 q1 0 1 -1 q0 0 -2 -1 q-5 0 -20 -3 q-16 -3 -24 -6 q-3 -1 -7 -3 q-3 -1 -3 -1 q-1 0 -2 0 q-1 0 -4 1 q-3 1 -30 15 q-22 10 -44 30 q-12 12 -18 16 q-14 -24 -38 -45 q-1 0 -3 -1 q-5 -1 -6 -1 q-1 -1 1 1 q1 2 2 4 q8 7 24 33 q15 25 14 33 q0 6 -2 8 q0 2 2 3 q3 0 6 0 q3 0 7 -8 q3 -9 2 -12 q-1 -3 -3 -6 q0 -1 2 -1 q14 -9 27 -16 q-1 5 0 9 q1 6 1 23 q0 20 -2 21 q-1 3 -1 6 q-5 -1 -16 -4 q-18 -4 -28 -6 q-3 -1 -8 -2 q-4 -1 -8 -2 ZM146 114 q-3 -3 -6 0 q-3 6 -2 8 q0 4 2 10 q2 7 1 25 q0 27 -2 30 q0 2 -4 0 q-10 -4 -13 -6 q-2 -1 -3 2 q-1 1 -1 4 q-1 2 -1 3 q-1 3 0 3 q0 1 2 1 q1 1 4 2 q5 1 7 2 q8 2 10 5 q1 0 2 0 q3 0 8 -4 q6 -6 5 -12 q-1 -3 -1 -25 q0 -16 -1 -28 q-1 -12 -7 -20 ZM122 133 q3 2 6 0 q5 -1 5 -4 q2 -3 0 -3 q0 0 -2 -1 q-5 -1 -9 -2 q-1 0 -3 -1 q-6 -1 -8 -4 q-4 -4 -7 -2 q-3 2 -3 5 q-1 5 -1 24 q0 16 -1 24 q0 13 -2 16 q-2 1 0 3 q3 1 8 -2 q1 0 2 -1 q3 -1 4 -4 q0 -5 0 -21 q12 3 13 5 q2 2 6 -1 q5 -2 5 -5 q-1 -2 -11 -5 q-4 -1 -9 -2 q-2 -1 -2 -1 q-1 0 -2 1 q0 -12 1 -23 q7 4 10 4 Z" /><glyph glyph-name="uni66FE" unicode="&#x66fe;" d="M134 163 q-1 4 1 5 q1 1 3 4 q4 4 6 7 q7 9 4 17 q-3 8 -5 11 q-3 4 0 4 q2 1 8 1 q5 0 10 -7 q2 -2 3 -3 q2 -3 4 -8 q3 -3 3 -6 q-1 -3 -28 -24 q30 5 36 6 q7 2 10 3 q2 2 11 -9 q6 -6 6 -10 q0 0 0 -1 q-1 -1 -1 -2 q-4 -3 -16 -27 q-10 -22 -18 -27 q-7 -3 -9 6 q1 -3 -11 -4 q-10 0 -43 -7 q-35 -8 -36 -8 q-4 -2 -6 4 q-1 2 -3 6 q-1 1 -1 2 q-1 3 3 3 q2 0 8 1 q5 1 8 1 q-10 23 -16 27 q-7 6 -10 10 q-3 4 -3 7 q0 3 1 5 q2 8 5 6 q3 -1 12 -13 q9 -10 14 -21 q5 -11 5 -20 l31 4 q-1 6 -1 17 q0 3 -1 8 q0 6 -1 8 q0 4 -3 7 q-3 2 -2 4 q-28 -4 -31 -6 q-3 0 -5 3 q-3 3 -4 6 q-2 3 1 2 q1 0 6 1 q14 2 27 3 q-3 1 -8 7 q-4 6 -9 12 q-5 6 -5 12 q0 2 1 5 q0 3 1 4 q0 3 4 0 q5 -3 15 -13 q10 -10 10 -16 q2 -4 -3 -10 l22 3 ZM132 123 q14 14 15 18 q2 3 2 6 q-1 3 4 2 q4 0 7 -8 q1 -8 1 -10 q-1 0 -2 -1 q-5 -4 -10 -6 q-5 -3 -16 -5 q-1 0 -1 0 q0 -7 -2 -11 q24 3 25 3 q1 2 7 -3 q11 18 15 32 q1 2 2 6 q3 9 3 12 q0 3 -2 3 q-3 0 -58 -9 q9 -3 10 -7 q2 -2 0 -22 ZM105 127 q8 -9 6 -13 q-1 -2 -9 1 q-6 3 -10 9 q-3 7 0 12 q3 5 4 3 q2 -1 9 -12 ZM150 -34 q-5 -1 -7 6 q-2 6 1 13 q3 6 4 30 q0 25 -1 40 q-1 13 -3 16 q-1 2 -5 0 q-1 0 -4 -2 q-4 -1 -7 -2 q-3 -1 -7 -4 q-1 -1 -2 -1 q-2 0 -4 2 q-4 3 -5 6 q-1 3 1 4 q1 0 6 1 q5 2 9 3 q13 5 16 6 q3 4 12 -5 q8 -7 8 -13 q0 -6 1 -36 q1 -28 -5 -46 q-5 -17 -8 -18 ZM110 0 q0 -4 -2 -8 q-3 -5 -7 1 q-4 7 -3 10 q1 6 -2 35 q-3 29 -3 33 q1 4 5 1 q1 0 3 -2 q2 -1 3 -2 q1 -1 2 -6 q1 -2 1 -3 q0 -5 1 -17 q18 5 21 6 q2 1 6 -2 q5 -4 3 -6 q0 -1 -4 -3 q-5 0 -26 -3 q0 -15 1 -25 q26 5 28 6 q2 2 5 -3 q3 -6 2 -7 q-1 -2 -6 -2 q-3 2 -10 0 q-7 0 -18 -3 Z" /><glyph glyph-name="uni6709" unicode="&#x6709;" d="M134 172 q5 1 16 2 q5 1 8 1 q44 6 47 9 q3 3 12 -6 q7 -7 7 -12 q0 -1 0 -2 q-2 -4 -4 -4 q-2 2 -20 3 q-18 3 -53 0 q-10 0 -21 -2 q-12 -15 -25 -34 q-16 -20 -27 -29 q-7 -7 -17 -12 q-3 -1 -3 -1 q0 1 2 4 q4 4 16 19 q1 2 4 5 q7 10 19 29 q6 9 10 16 q-5 -1 -14 -2 q-10 -2 -15 -3 q-36 -9 -38 -9 q-3 -2 -6 7 q-2 6 -2 7 q0 2 0 2 q0 0 8 1 q19 2 35 4 q7 1 21 2 q11 2 17 2 q1 1 1 2 q1 2 1 2 q3 8 2 14 q0 1 -1 3 q-2 7 -5 9 q-4 5 -1 6 q2 2 8 2 q2 0 3 0 q3 0 6 -1 q2 0 8 -8 q-5 8 2 -2 q7 -9 4 -15 q0 -1 -2 -3 q-2 -4 -3 -6 ZM151 122 q-6 0 -15 -3 q-9 -1 -13 -3 q-6 -1 -7 6 q-3 7 -1 7 q0 0 4 1 q8 2 15 3 q17 3 19 5 q3 3 13 -5 q10 -7 7 -13 q-1 -6 0 -52 q1 -16 2 -39 q1 -16 1 -19 q0 -9 -4 -20 q-5 -14 -11 -15 q-1 0 -3 0 q-3 0 -3 3 q0 1 -1 6 q1 -3 -1 3 q-1 2 -2 4 q0 3 -3 8 q-1 1 -3 1 q-3 3 -6 4 q-5 3 -2 3 q4 0 12 0 q8 0 8 2 q1 1 1 4 q1 2 1 3 q0 2 0 11 q-1 23 -2 42 q-1 47 -6 53 ZM110 88 q12 3 17 5 q2 1 4 2 q2 1 4 2 q1 2 7 -3 q5 -4 3 -7 q-3 -3 -11 -4 q-5 -1 -13 -4 q-3 -1 -4 -1 q-6 -2 -7 1 q0 -1 0 -3 q-1 -3 -1 -4 q0 -9 0 -17 q8 2 18 6 q2 1 3 1 q3 2 5 4 q3 2 8 -3 q4 -4 4 -7 q0 -3 -2 -3 q-3 0 -10 -2 q-4 0 -17 -4 q-6 -2 -10 -3 q0 -13 0 -21 q0 -15 -3 -24 q-5 -11 -8 -9 q-5 0 -5 10 q-1 7 0 10 q2 2 2 15 q1 4 1 7 q2 19 3 49 q1 29 1 32 q0 1 -1 3 q-1 2 -1 3 q0 1 4 1 q3 1 5 -2 q1 -1 2 -4 q1 -3 2 -4 q0 -4 0 -22 Z" /><glyph glyph-name="uni6742" unicode="&#x6742;" d="M136 163 q-8 -39 -23 -57 q-16 -18 -26 -24 q-10 -6 -15 -7 q-2 -1 -2 1 q1 1 4 3 q6 6 21 25 q16 20 23 47 q-30 -16 -42 -24 q-11 -9 -13 -9 q-3 -1 -5 3 q-3 4 -6 10 q-3 7 0 8 q3 2 67 27 q2 9 -4 13 q-4 6 -7 5 q-3 0 -3 9 q-2 8 5 8 q7 0 17 -6 q10 -5 10 -19 q21 9 25 15 q3 7 12 -8 q9 -12 -1 -15 q-10 -1 -15 -18 q-4 -16 12 -27 q15 -10 23 -6 q6 4 16 -5 q9 -9 6 -13 q-3 -4 -19 -3 q-15 3 -35 17 q-20 17 -17 33 q3 17 8 26 l-16 -9 ZM126 64 q-48 -8 -69 -14 q-20 -6 -23 -7 q-2 -1 -4 2 q-3 3 -4 9 q0 3 -1 3 q0 3 2 3 q-5 -1 99 15 q0 10 -3 16 q-2 6 -4 8 q-2 2 1 3 q1 0 2 1 q2 1 4 2 q3 1 11 -5 q8 -6 8 -10 q0 -4 0 -12 q53 5 56 7 q2 3 11 -6 q1 -1 2 -2 q5 -5 5 -9 q0 0 -1 -2 q-3 -4 -7 -1 q-4 3 -18 4 q-14 3 -49 -3 q0 -43 0 -55 q0 -10 -4 -22 q-5 -11 -11 -11 q-5 -1 -7 8 q-1 7 -6 14 q-6 8 -13 11 q-4 3 -5 4 q0 1 4 0 q7 0 16 -1 q7 0 7 2 q0 1 0 4 q1 21 1 44 ZM81 22 q-3 -18 -3 -23 q0 -6 -8 -2 q-9 3 -9 15 q0 12 3 19 q3 7 11 10 q8 4 8 1 q0 0 0 -3 q-1 -9 -2 -17 ZM184 27 q-11 15 -14 18 q-2 2 -2 2 q0 1 2 2 q3 1 11 1 q8 0 18 -9 q11 -9 11 -20 q0 -11 -5 -14 q-5 -3 -8 1 q-3 4 -13 19 Z" /><glyph glyph-name="uni6765" unicode="&#x6765;" d="M94 134 q1 1 2 2 q4 3 6 3 q2 2 0 -4 q-1 -2 -1 -6 q0 -1 1 -6 q-1 3 1 -3 q3 -6 1 -12 q-1 -6 -6 -8 q-4 -1 -10 11 q-7 13 -7 20 q-1 7 -1 11 q-1 3 2 2 q1 -1 6 -5 q4 -3 6 -5 ZM119 160 q-6 -2 -10 -4 q-6 -2 -10 -2 q-4 0 -8 12 q-3 11 0 11 q1 0 3 0 q5 -1 8 -1 q6 0 17 4 q0 16 -1 19 q-2 7 -5 10 q-3 2 -1 3 q1 2 7 2 q0 0 1 0 q4 0 10 -6 q8 -6 6 -21 q-1 0 -1 -2 q4 1 9 3 q3 1 5 2 q2 2 8 -3 q6 -4 5 -8 q-3 -3 -25 -12 q0 0 -1 0 q-1 -1 -2 -1 q0 -4 0 -15 q-1 -15 -1 -23 q0 -6 0 -12 q3 5 10 11 q15 18 15 22 q0 3 -1 8 q0 2 0 4 q-1 2 0 3 q0 3 4 2 q1 0 4 -1 q2 0 3 -1 q4 -2 7 -11 q3 -9 2 -13 q-1 -3 -18 -14 q-4 -3 -11 -7 q-5 -4 -14 -9 q0 0 -2 -1 q0 -4 0 -9 q6 2 12 3 q7 2 18 4 q28 7 27 8 q3 1 11 -5 q8 -7 7 -12 q0 -4 -4 -4 q-1 0 -5 1 q-5 1 -9 2 q-12 2 -46 -5 q-6 0 -11 -2 l0 -3 q1 0 1 -1 q1 -1 1 -2 q0 -1 -1 -6 q2 0 6 -4 q6 -6 28 -20 q23 -13 42 -21 q20 -7 25 -9 q4 0 4 -1 q0 0 -3 0 q-5 0 -16 -1 q-11 -2 -17 -5 q-7 -3 -9 -5 q-3 -1 -5 0 q-1 1 -6 4 q-4 2 -6 4 q-3 2 -7 5 q-6 5 -8 7 q-6 5 -17 17 q-2 3 -6 7 q-3 3 -6 7 q0 -15 0 -28 q0 -47 -2 -58 q-3 -12 -7 -13 q-1 0 -1 0 q-4 0 -6 12 q-3 12 0 16 q2 4 2 46 q0 9 0 21 q-13 -15 -36 -34 q-26 -19 -32 -22 q-4 -1 -4 1 q0 1 4 4 q1 1 5 5 q3 2 24 24 q12 12 27 29 q3 4 4 5 q1 2 3 5 q4 7 5 10 l0 2 q-3 -1 -10 -3 q-20 -5 -29 -9 q-13 -4 -28 -9 q-6 -3 -7 -3 q-4 -3 -6 -3 q-2 0 -5 7 q3 -7 0 1 q-2 6 -2 7 q0 3 0 2 q1 1 14 3 q13 3 23 5 q10 3 31 7 q13 3 19 4 q0 6 0 19 q1 14 1 21 q0 12 0 23 Z" /><glyph glyph-name="uni67D0" unicode="&#x67d0;" d="M107 106 q0 0 -1 1 q-3 6 -3 10 q0 6 -3 27 q-21 -7 -24 -10 q-1 0 -1 -1 q-3 -1 -5 0 q-1 1 -3 5 q-2 3 -3 5 q-3 8 -2 9 q1 1 4 1 q2 1 3 1 q1 0 6 1 q12 3 23 6 q-1 8 -3 14 q-3 6 -6 9 q-2 1 -2 2 q0 1 2 2 q3 3 8 4 q4 1 11 -5 q6 -5 7 -10 q0 -3 0 -13 l35 8 q0 3 -1 9 q0 5 -1 9 q0 6 -4 10 q-4 5 0 6 q2 2 5 3 q2 1 2 1 q1 0 1 0 q4 1 10 -5 q7 -8 7 -14 q-1 -3 -1 -15 q11 2 14 3 q3 0 9 -5 q6 -6 4 -10 q-2 -3 -2 -3 q-3 -1 -7 0 q-6 0 -19 0 q-3 -51 -6 -64 q-3 -12 -7 -13 q-3 0 -5 6 q-3 8 -1 12 q3 5 2 21 q0 5 0 15 q1 13 1 19 q-18 -3 -35 -8 q0 -4 1 -10 q0 -4 0 -5 q15 5 17 7 q2 1 7 -2 q5 -3 3 -6 q-1 -1 -3 -2 q-2 -1 -3 -2 q-4 -3 -11 -4 q-2 0 -5 -1 q-1 -1 -2 -1 q-1 0 -3 3 q0 -7 0 -18 q9 2 17 6 q3 2 8 -3 q5 -3 3 -7 q-2 -2 -5 -2 q-3 0 -15 -4 q-7 -2 -15 -4 q-1 -1 -2 -1 q-3 -1 -6 1 q0 1 -1 2 q-1 2 -1 5 q-1 4 1 4 q2 0 6 1 ZM129 63 q-54 -9 -76 -14 q-22 -6 -24 -6 q-3 -1 -4 1 q-1 3 -3 7 q0 2 0 3 q0 2 2 2 q1 0 13 2 q9 2 14 3 q11 2 42 7 q23 4 36 6 q-3 9 -6 13 q0 0 -1 1 q-1 2 0 3 q1 1 3 2 q2 1 3 2 q4 2 10 -3 q0 0 1 -1 q5 -3 7 -7 q1 -1 1 -3 q1 -2 1 -3 q30 4 6 1 q24 3 36 6 q11 2 14 4 q3 2 11 -5 q6 -6 6 -10 q0 -1 -1 -2 q0 -1 -1 -2 q0 -2 -8 1 q-7 3 -24 1 q-16 -1 -39 -6 q0 -43 1 -51 q2 -9 -3 -20 q-5 -13 -12 -16 q-1 0 -2 0 q-6 -1 -10 14 q-3 13 -11 17 q-8 3 -8 5 q-1 1 5 1 q6 0 14 0 q8 1 8 4 q0 3 -1 43 ZM84 22 q-1 -7 -2 -16 q-1 -3 -1 -4 q-1 -2 -5 -2 q-3 0 -6 5 q-3 6 -3 15 q0 9 3 14 q3 5 10 6 q6 3 6 1 q1 -1 -2 -19 ZM182 36 q-6 9 -12 15 q-3 2 3 3 q5 0 12 0 q8 -2 12 -6 q5 -4 9 -13 q3 -8 1 -14 q-2 -4 -5 -6 q-3 0 -6 4 q-1 1 -5 6 q-5 7 -9 11 Z" /><glyph glyph-name="uni6B4C" unicode="&#x6b4c;" d="M75 193 q9 3 17 6 q8 3 9 5 q1 0 1 0 q3 0 7 -3 q6 -4 6 -9 q0 -3 -10 -8 q-11 -5 -20 -8 q-2 0 -6 -1 q-3 -1 -6 -1 q-2 0 -5 4 q-2 2 -3 5 q-1 2 -1 2 q-2 5 1 5 q3 2 10 3 ZM58 154 q19 8 25 9 q6 3 6 4 q1 3 6 1 q5 -1 9 -4 q4 -1 4 -3 q0 -2 -5 -8 q-1 -2 -4 -5 q-6 -7 -9 -11 q6 -4 5 -8 q-2 -2 -5 -2 q-5 0 -17 -3 q1 -9 -1 -10 q-2 0 -5 0 q-3 0 -4 4 q0 0 -1 1 q-1 2 -4 10 q-3 8 -9 15 q-7 9 -9 12 q-2 2 -1 3 q0 1 3 2 q4 3 7 2 q3 0 9 -9 ZM63 146 q3 -5 6 -14 l14 4 q0 0 0 1 q-1 2 0 3 q0 3 4 16 q-12 -4 -24 -10 ZM98 116 q-2 6 1 9 q0 1 2 3 q4 9 7 16 q9 16 8 20 q-1 3 -1 6 q0 5 4 3 q5 0 9 -8 q4 -8 4 -10 q0 0 -2 -3 q-3 -5 -6 -9 q-8 -9 -11 -15 q-3 -5 -8 -11 q16 4 18 7 q3 2 9 -1 q5 -3 7 -5 q1 -3 -2 -7 q-3 -3 -5 -2 q-2 2 -10 2 q-15 -2 -33 -6 q-3 -1 -10 -2 q-19 -3 -37 -9 q-17 -6 -19 -6 q-3 -1 -4 2 q-3 2 -4 6 q-1 1 -1 2 q0 2 3 2 q1 0 8 2 q11 1 18 3 q5 1 15 3 q7 1 40 8 ZM72 83 q-3 -2 -8 -4 q-6 -3 -7 -4 q-1 0 -3 -1 q-2 0 -2 -1 q-1 0 -3 4 q0 1 0 3 q-1 1 -1 2 q-2 3 2 4 q3 0 14 3 q5 2 11 5 q2 1 2 1 q3 3 5 2 q1 -1 3 -2 q3 -2 4 -4 q5 -3 4 -5 q0 0 -2 -3 q-1 -4 -3 -7 q-2 -3 -5 -8 q-2 -4 -3 -6 q5 -1 7 -4 q2 -2 2 -4 q-1 -2 -7 -2 q-6 1 -12 -2 q-6 -3 -12 -4 q4 -13 2 -16 q-3 -3 -6 -1 q-3 1 -5 4 q-1 2 -1 5 q0 3 -4 12 q-1 2 -3 7 q-2 8 -4 12 q-5 11 -5 14 q0 2 3 1 q3 0 6 -1 q2 0 14 -27 q8 3 14 6 q-1 3 0 6 q2 5 3 15 ZM94 101 q6 4 9 1 q3 0 8 -5 q3 -5 2 -11 q0 -2 -1 -14 q0 -15 -1 -27 q-3 -33 -3 -40 q0 -3 -2 -8 q-1 -4 -2 -6 q-4 -9 -9 -14 q-4 -5 -6 -4 q0 0 -1 0 q-1 1 -2 1 q-4 4 -4 14 q-1 11 -1 12 q-1 5 -8 11 q-6 6 -5 6 q2 1 7 0 q3 -1 4 -1 q2 0 6 0 q5 -1 6 0 q3 2 3 5 q0 2 1 12 q1 9 1 15 q0 3 1 9 q1 14 1 27 q0 12 -4 17 ZM152 140 q0 1 1 3 q4 12 3 16 q0 6 -3 9 q-2 5 -2 5 q1 1 3 1 q-2 0 2 1 q3 0 6 -1 q3 -2 9 -9 q-5 6 1 -2 q6 -7 4 -12 q0 0 -1 -1 q0 -2 -7 -13 q-2 -2 -5 -7 q-7 -9 -12 -14 q-10 -12 -13 -13 q-3 -1 1 7 q1 2 2 3 q8 15 11 27 ZM195 131 q-5 -2 -12 -6 q-6 -3 -8 -4 q-1 0 -3 2 q-1 5 -3 9 q-1 5 2 6 q2 0 9 2 q4 1 6 2 q12 4 14 8 q1 5 13 -4 q11 -8 9 -14 q-1 -5 -6 -8 q0 0 -2 -2 q-7 -7 -13 -13 q-10 -12 -18 -18 q-7 -6 -9 -6 q-1 0 3 6 q1 4 6 12 q3 4 4 6 q8 12 9 16 q2 6 -1 6 ZM162 70 q-9 -29 -21 -46 q-12 -17 -18 -20 q-3 -1 -3 0 q0 1 3 5 q6 8 15 30 q10 23 13 36 q3 12 3 18 q0 5 -1 8 q-3 3 -1 4 q1 0 2 1 q1 1 2 1 q3 2 8 -4 q5 -4 5 -9 q0 -1 -1 -6 q1 3 -1 -3 q5 -4 13 -20 q9 -16 23 -28 q15 -11 26 -17 q5 -3 12 -6 q2 -1 3 -1 q2 0 2 -1 q0 -1 -1 -1 q1 0 -2 -1 q-4 0 -12 -3 q-4 -1 -11 -3 q-1 -1 -2 -1 q-2 0 -4 -1 q-1 -1 -4 -1 q-1 0 -7 6 q-6 6 -14 18 q-9 14 -16 30 q-7 18 -11 15 Z" /><glyph glyph-name="uni6B63" unicode="&#x6b63;" d="M208 43 q8 -6 8 -10 q0 -2 -1 -2 q-4 -4 -7 -3 q-4 2 -22 2 q-19 1 -53 -4 q-40 -7 -58 -15 q-23 -9 -26 -10 q-3 0 -4 3 q-3 4 -4 13 q-1 3 -1 5 q0 4 2 4 q12 1 36 4 q-15 -2 5 1 q-2 5 -2 7 q2 3 0 17 q0 13 -2 17 q-1 1 -2 3 q-2 4 -3 5 q-1 4 0 7 q1 2 10 0 q8 -3 12 -6 q4 -2 6 -6 q0 -1 0 -1 q0 -4 0 -16 q0 -1 0 -3 q-2 -15 -5 -22 q6 1 16 2 q11 2 16 2 q-2 4 -1 7 q0 1 0 4 q1 17 1 35 q0 29 -3 36 q-4 9 -8 12 q-3 3 0 5 q3 2 8 3 q5 3 10 -1 q6 -3 8 -9 q3 -5 3 -11 l0 -13 q24 6 27 11 q2 3 9 -5 q7 -7 4 -10 q-2 -2 -10 -4 q-8 -3 -17 -4 q-9 -2 -10 -2 q-1 2 -3 3 q-1 -14 -4 -42 q-1 -9 -1 -13 q9 2 27 5 q18 4 27 5 q0 3 12 -6 ZM157 180 q1 2 4 1 q6 -1 11 -5 q12 -7 8 -13 q-2 -6 -5 -5 q-1 1 -13 0 q-6 -1 -9 -1 q-22 -2 -41 -8 q-2 -1 -6 -2 q-13 -4 -15 -5 q-4 0 -6 3 q-1 2 -3 6 q-1 3 -2 5 q-1 9 2 8 q1 1 10 1 q7 1 11 1 q20 3 36 7 q9 2 17 6 q1 1 1 1 Z" /><glyph glyph-name="uni7136" unicode="&#x7136;" d="M110 41 q-6 0 -4 1 q1 1 3 3 q3 4 5 6 q7 8 17 24 q10 20 14 41 q-4 -2 -12 -4 q-4 -1 -6 -2 q-4 -1 -6 0 q-1 1 -3 10 q-2 8 1 7 q1 0 3 0 q4 1 7 1 q9 3 18 5 q1 23 -1 43 q-1 7 -6 14 q0 1 0 1 q-4 5 -1 5 q1 0 4 1 q2 0 3 0 q1 0 1 0 q4 0 10 -7 q6 -7 5 -13 q0 -5 0 -17 q0 -3 -1 -11 q0 -7 -1 -11 q4 2 10 5 q7 4 10 5 q2 3 10 -4 q8 -4 6 -9 q-2 -3 -7 -4 q-16 -4 -31 -10 q-7 -43 -29 -66 q-1 -1 -3 -3 q-12 -9 -16 -11 ZM103 156 q-1 2 -4 0 q-5 -2 -8 -2 q-3 -1 -5 2 q-1 4 -3 10 q0 8 3 6 q8 3 15 4 q3 1 7 2 q3 2 4 2 q2 2 9 -6 q6 -10 3 -15 q-1 -3 -5 -16 q-5 -16 -8 -26 q-15 -43 -40 -67 q-9 -10 -20 -15 q-2 -1 -2 0 q0 1 2 4 q1 1 3 4 q12 15 18 24 q25 39 31 80 q2 8 0 9 ZM45 103 q-3 1 -6 7 q-1 5 0 8 q0 0 2 2 q3 7 7 12 q8 14 13 30 q1 2 2 5 q2 7 1 9 q-1 3 3 5 q3 2 6 -1 q3 -1 5 -9 q1 -4 0 -10 q0 -2 0 -3 q-12 -30 -27 -52 q-3 -4 -6 -3 ZM158 92 q-2 2 -2 3 q0 1 3 2 q12 1 18 -2 q6 -3 16 -15 q11 -12 9 -19 q-2 -5 -6 -9 q-5 1 -12 12 q-9 13 -26 28 ZM205 21 q-3 9 -7 13 q-3 5 -4 6 q-2 2 1 2 q3 2 10 0 q7 -1 13 -10 q7 -9 8 -18 l0 -3 q0 -8 -4 -11 q-4 -4 -6 -1 q-4 3 -5 8 q-3 6 -6 14 ZM152 6 q0 12 -2 20 q0 7 -2 10 q-1 3 2 4 q3 0 9 -3 q6 -6 6 -13 q1 -9 1 -21 q-1 -10 -4 -12 q-4 -2 -7 2 q-3 5 -3 13 ZM44 -2 q0 -12 -4 -12 l-1 0 q-4 0 -7 4 q-3 5 -3 10 q0 1 0 4 q0 11 2 14 q0 1 4 5 q1 1 2 2 q6 5 6 2 q1 -2 1 -11 q0 -9 0 -18 ZM93 5 q3 6 3 14 q0 2 1 5 q0 2 1 5 q1 2 4 0 q-3 3 1 -1 q3 -2 5 -8 q1 -5 -2 -20 q-3 -14 -6 -14 l-1 0 q-4 0 -6 4 q0 1 -1 2 q-1 2 -1 5 q0 2 1 5 q1 2 1 3 ZM184 174 q-8 9 -11 10 q-1 2 3 3 q1 1 5 1 q2 1 4 1 q5 1 12 -8 q8 -8 8 -14 q0 -5 -1 -8 q-2 -3 -5 -1 q-3 1 -15 16 ZM73 138 q11 -1 14 -4 q4 -4 4 -10 q0 -7 -3 -9 q-1 0 -2 -1 q-1 -1 -2 -1 q-2 0 -4 8 q-3 6 -9 12 q-2 2 -2 4 q1 1 4 1 ZM61 110 q9 1 16 -5 q4 -4 4 -10 q0 -6 -3 -9 q-3 -1 -5 -1 q-3 0 -5 7 q-4 6 -10 12 q-3 2 -2 4 q1 1 5 2 Z" /></font>
</defs>
</svg>
