<?xml version="1.0" standalone="no"?><!DOCTYPE svg PUBLIC "-//W3C//DTD SVG 1.1//EN" "http://www.w3.org/Graphics/SVG/1.1/DTD/svg11.dtd"><svg t="1524141023188" class="icon" style="" viewBox="0 0 1024 1024" version="1.1" xmlns="http://www.w3.org/2000/svg" p-id="517" xmlns:xlink="http://www.w3.org/1999/xlink" width="200" height="200"><defs><style type="text/css"></style></defs><path d="M516.629333 950.037333c-11.562667 0-21.056-9.258667-21.312-20.864-2.432-110.250667-3.818667-223.082667-5.141333-332.202667-1.216-99.392-2.432-198.570667-4.416-296.682667-0.234667-11.776 9.130667-21.525333 20.906667-21.76 11.818667 0.341333 21.525333 9.130667 21.76 20.906667 1.984 98.218667 3.178667 197.504 4.416 297.024 1.322667 109.013333 2.688 221.76 5.141333 331.776 0.256 11.797333-9.088 21.546667-20.864 21.802667C516.949333 950.037333 516.8 950.037333 516.629333 950.037333z" p-id="518" fill="#ffffff"></path><path d="M452.586667 739.434667" p-id="519" fill="#ffffff"></path><path d="M598.229333 761.429333c-6.634667 0-13.141333-3.072-17.322667-8.853333-6.890667-9.536-4.757333-22.869333 4.821333-29.781333 68.842667-49.706667 116.522667-174.506667 132.117333-233.536 20.544-77.674667 18.88-153.28-4.778667-218.666667-25.898667-71.488-79.658667-128.704-143.850667-153.066667-68.586667-26.048-147.968-12.373333-197.504 34.048-53.653333 50.24-67.541333 130.965333-69.76 189.845333-5.034667 133.930667 36.138667 299.306667 139.434667 366.784 9.856 6.442667 12.629333 19.669333 6.208 29.525333-6.442667 9.877333-19.648 12.650667-29.525333 6.186667-125.290667-81.834667-163.818667-268.842667-158.741333-404.096 3.605333-95.914667 32.384-171.776 83.221333-219.392 61.184-57.301333 158.293333-74.496 241.834667-42.794667 75.626667 28.736 138.752 95.445333 168.810667 178.453333 26.624 73.6 28.650667 157.994667 5.888 244.074667-18.218667 68.885333-69.930667 200.576-148.416 257.216C606.912 760.128 602.56 761.429333 598.229333 761.429333z" p-id="520" fill="#ffffff"></path><path d="M572.309333 744.341333" p-id="521" fill="#ffffff"></path><path d="M501.312 421.973333c-5.034667 0-10.112-1.770667-14.165333-5.376l-107.285333-95.36c-8.810667-7.829333-9.6-21.312-1.770667-30.122667 7.829333-8.810667 21.312-9.621333 30.122667-1.770667l107.306667 95.36c8.810667 7.829333 9.6 21.312 1.770667 30.122667C513.045333 419.562667 507.178667 421.973333 501.312 421.973333z" p-id="522" fill="#ffffff"></path><path d="M519.552 483.029333c-7.488 0-14.762667-3.946667-18.666667-10.965333-5.738667-10.282667-2.048-23.274667 8.256-29.013333 42.218667-23.509333 83.029333-50.368 121.301333-79.829333 9.344-7.168 22.741333-5.44 29.909333 3.904 7.189333 9.344 5.461333 22.72-3.882667 29.909333-39.936 30.741333-82.517333 58.752-126.592 83.285333C526.634667 482.154667 523.072 483.029333 519.552 483.029333z" p-id="523" fill="#ffffff"></path><path d="M506.986667 596.906667c-3.754667 0-7.573333-1.002667-11.029333-3.093333-40.064-24.277333-75.776-54.698667-106.133333-90.432-7.616-8.981333-6.528-22.442667 2.453333-30.08 8.96-7.616 22.442667-6.549333 30.08 2.453333 27.370667 32.234667 59.562667 59.669333 95.701333 81.557333 10.090667 6.101333 13.312 19.221333 7.189333 29.312C521.237333 593.258667 514.197333 596.906667 506.986667 596.906667z" p-id="524" fill="#ffffff"></path></svg>